<?xml version="1.0" encoding="UTF-8" standalone="no"?>
<!DOCTYPE svg PUBLIC "-//W3C//DTD SVG 1.1//EN" "http://www.w3.org/Graphics/SVG/1.1/DTD/svg11.dtd">
<svg width="100%" height="100%" viewBox="0 0 834 834" version="1.1" xmlns="http://www.w3.org/2000/svg" xmlns:xlink="http://www.w3.org/1999/xlink" xml:space="preserve" xmlns:serif="http://www.serif.com/" style="fill-rule:evenodd;clip-rule:evenodd;stroke-linejoin:round;stroke-miterlimit:2;">
    <g transform="matrix(8.33333,0,0,8.33333,0,0)">
        <g id="Layer2">
        </g>
        <g id="Slide-up" serif:id="Slide up">
            <g transform="matrix(1,0,0,1,0,28.8729)">
                <path d="M77.478,29.942C77.478,22.365 71.327,16.213 63.75,16.213L36.293,16.213C28.716,16.213 22.564,22.365 22.564,29.942L22.564,57.399C22.564,64.976 28.716,71.127 36.293,71.127L63.75,71.127C71.327,71.127 77.478,64.976 77.478,57.399L77.478,29.942Z" style="fill:rgb(176,176,176);fill-opacity:0.1;"/>
            </g>
            <g transform="matrix(1,0,0,1,-0.0213422,17.6014)">
                <path d="M77.478,29.942C77.478,22.365 71.327,16.213 63.75,16.213L36.293,16.213C28.716,16.213 22.564,22.365 22.564,29.942L22.564,57.399C22.564,64.976 28.716,71.127 36.293,71.127L63.75,71.127C71.327,71.127 77.478,64.976 77.478,57.399L77.478,29.942Z" style="fill:rgb(176,176,176);fill-opacity:0.2;"/>
            </g>
            <g transform="matrix(1,0,0,1,-0.0213422,6.32987)">
                <path d="M77.478,29.942C77.478,22.365 71.327,16.213 63.75,16.213L36.293,16.213C28.716,16.213 22.564,22.365 22.564,29.942L22.564,57.399C22.564,64.976 28.716,71.127 36.293,71.127L63.75,71.127C71.327,71.127 77.478,64.976 77.478,57.399L77.478,29.942Z" style="fill:rgb(176,176,176);"/>
            </g>
            <g transform="matrix(0.0388554,0,0,0.0388554,82.8118,40.0525)">
                <path d="M214.6,41.4C202.1,28.9 181.8,28.9 169.3,41.4L9.3,201.4C-3.2,213.9 -3.2,234.2 9.3,246.7C21.8,259.2 42.1,259.2 54.6,246.7L160,141.2L160,836.191C160,853.891 174.3,868.191 192,868.191C209.7,868.191 224,853.891 224,836.191L224,141.3L329.4,246.6C341.9,259.1 362.2,259.1 374.7,246.6C387.2,234.1 387.2,213.8 374.7,201.3L214.7,41.3L214.6,41.4Z" style="fill:rgb(176,176,176);fill-rule:nonzero;"/>
            </g>
        </g>
    </g>
</svg>
