<?xml version="1.0" encoding="UTF-8" standalone="no"?>
<!DOCTYPE svg PUBLIC "-//W3C//DTD SVG 1.1//EN" "http://www.w3.org/Graphics/SVG/1.1/DTD/svg11.dtd">
<svg width="100%" height="100%" viewBox="0 0 65 81" version="1.1" xmlns="http://www.w3.org/2000/svg" xmlns:xlink="http://www.w3.org/1999/xlink" xml:space="preserve" xmlns:serif="http://www.serif.com/" style="fill-rule:evenodd;clip-rule:evenodd;stroke-linejoin:round;stroke-miterlimit:2;">
    <path id="skin" d="M34.308,76.67C37.115,76.322 39.2,75.422 41.804,73.436C44.623,71.285 47.067,68.675 49.11,65.63C50.741,63.201 51.817,60.192 52.166,57.082C52.23,56.515 52.35,55.521 52.433,54.871C52.841,51.677 53.56,40.514 53.484,38.555C53.437,37.353 53.291,36.914 52.369,35.2C50.917,32.501 50.415,30.981 50.079,28.256C49.76,25.674 49.534,24.734 48.938,23.498C48.514,22.617 48.196,22.156 47.584,21.532C45.865,19.78 42.959,19.128 39.517,19.724C38.234,19.946 37.326,20.172 35.431,20.743C31.879,21.815 30.76,22.114 29.301,22.385C27.734,22.676 26.522,22.793 25.108,22.792C22.46,22.788 20.457,22.36 18.269,21.328C17.353,20.896 17.005,20.824 16.389,20.937C14.029,21.372 12.045,24.757 11.127,29.916C10.504,33.413 10.33,36.626 10.5,41.452C10.679,46.513 11.149,52.961 11.537,55.671C11.597,56.09 11.684,56.828 11.73,57.31C11.776,57.792 11.844,58.29 11.881,58.416C11.917,58.542 12.05,59.092 12.175,59.64C12.44,60.802 12.964,62.292 13.485,63.371C15.36,67.249 19.45,71.743 23.583,74.463C25.708,75.861 27.738,76.542 30.406,76.754C31.34,76.827 33.395,76.783 34.308,76.67ZM56.232,53.456C56.889,53.209 57.409,52.847 58.055,52.187C58.825,51.4 59.385,50.576 59.988,49.343C61.32,46.618 61.772,43.922 61.323,41.378C61.158,40.444 60.939,39.85 60.529,39.223C59.489,37.632 57.776,37.548 55.926,38.998C55.684,39.188 55.472,39.414 55.455,39.502C55.437,39.589 55.403,40.089 55.378,40.614C55.175,44.96 54.93,48.704 54.649,51.741C54.566,52.64 54.498,53.459 54.498,53.561L54.498,53.747L55.124,53.692C55.469,53.662 55.967,53.556 56.232,53.456ZM9.403,53.479C9.234,52.747 8.711,44.565 8.558,40.248L8.506,38.775L8.115,38.552C7.482,38.188 6.799,37.987 6.2,37.988C5.182,37.988 4.437,38.546 3.866,39.737C3.334,40.847 3.146,41.97 3.212,43.663C3.352,47.306 5.281,51.402 7.63,53.043C8.023,53.317 8.892,53.646 9.232,53.649C9.412,53.65 9.438,53.626 9.403,53.479Z" style="fill:rgb(241,195,156);"/>
    <path id="hair" d="M55.985,36.686C56.321,36.52 56.609,36.375 56.626,36.365C56.665,36.341 56.808,35.584 57.092,33.904C57.718,30.195 57.917,26.357 57.622,23.726C57.131,19.366 55.995,16.609 53.786,14.423C51.234,11.895 47.77,10.588 43.253,10.446C40.106,10.348 37.244,10.947 34.483,12.282C31.096,13.919 28.305,16.323 25.595,19.938L24.927,20.829L25.475,20.854C27.13,20.928 30.269,20.323 33.685,19.273C37.407,18.128 38.907,17.791 40.909,17.647C45.538,17.315 48.968,19.074 50.683,22.659C51.29,23.927 51.62,25.282 51.946,27.837C52.053,28.671 52.174,29.512 52.217,29.704C52.481,30.91 53.121,32.561 53.79,33.769C54.666,35.347 54.859,35.773 55.229,36.941C55.247,36.997 55.287,37.031 55.318,37.016C55.35,37.001 55.65,36.853 55.985,36.686ZM8.627,35.01C8.709,32.654 9.194,29.397 9.792,27.18C10.559,24.334 11.608,22.235 12.974,20.812C14.006,19.736 15.083,19.163 16.265,19.063C16.579,19.037 16.836,18.995 16.835,18.969C16.835,18.944 16.803,18.803 16.763,18.656C16.611,18.092 16.53,16.64 16.606,15.84C16.694,14.919 17.029,13.647 17.394,12.852C17.99,11.549 19.737,9.354 20.078,9.477C20.499,9.628 20.521,9.852 20.166,10.385C18.534,12.842 18.011,15.691 18.678,18.503C18.935,19.583 18.922,19.566 19.779,19.929C20.195,20.104 20.586,20.268 20.649,20.292C20.747,20.33 20.766,20.189 20.78,19.325C20.81,17.473 21.283,15.515 22.069,13.993C22.528,13.103 23.601,11.672 24.316,10.994C25.638,9.74 27.443,8.652 29.428,7.913C30.527,7.504 30.788,7.456 30.937,7.635C31.158,7.903 31.004,8.078 30.101,8.58C28.524,9.459 27.637,10.106 26.376,11.298C24.438,13.129 23.21,15.366 22.819,17.777C22.699,18.516 22.664,20.562 22.771,20.562C22.807,20.562 23.105,20.176 23.433,19.705C24.29,18.474 24.615,18.055 25.573,16.941C30.828,10.833 37.164,8.03 44.439,8.596C45.454,8.675 46.739,8.85 46.979,8.942C47.414,9.11 46.763,8.527 45.616,7.724C41.254,4.668 36.213,3.26 30.705,3.559C26.194,3.804 22.527,4.873 19.695,6.767C18.09,7.84 16.468,9.677 15.828,11.147C15.246,12.483 15.024,13.348 14.935,14.63C14.84,15.989 14.58,16.292 13.508,16.293C12.515,16.293 11.373,16.756 10.6,17.472C10.141,17.897 9.875,17.993 9.684,17.803C9.634,17.752 9.593,17.64 9.593,17.553C9.593,17.29 10.134,16.46 10.66,15.915C11.2,15.356 11.602,15.093 12.437,14.754C12.736,14.632 13.007,14.491 13.039,14.44C13.071,14.39 13.098,14.207 13.099,14.033C13.1,13.595 13.303,12.57 13.53,11.85C13.635,11.518 13.708,11.234 13.693,11.218C13.637,11.162 12.896,11.396 12.275,11.665C9.821,12.729 7.873,15.08 6.831,18.237C6.062,20.564 5.824,22.21 5.826,25.175C5.828,27.495 5.911,28.47 6.325,31.007C6.594,32.663 7.353,36.112 7.474,36.233C7.489,36.248 7.724,36.341 7.994,36.438C8.423,36.592 8.493,36.6 8.533,36.499C8.559,36.435 8.601,35.765 8.627,35.01Z" style="fill:rgb(143,60,0);"/>
    <path d="M30.826,78.648C27.842,78.53 25.445,77.831 23.071,76.387C18.169,73.406 13.111,67.7 11.23,63.028C10.545,61.327 9.968,58.919 9.822,57.153C9.701,55.691 9.688,55.633 9.468,55.633C8.544,55.633 6.973,54.969 5.95,54.144C3.462,52.141 1.51,47.812 1.309,43.854C1.115,40.041 2.53,37.054 4.884,36.306C5.167,36.216 5.413,36.127 5.432,36.109C5.45,36.09 5.382,35.767 5.28,35.39C4.982,34.285 4.506,31.839 4.303,30.359C3.71,26.061 3.777,22.633 4.516,19.359C4.942,17.47 5.869,15.293 6.877,13.817C7.774,12.501 9.358,11.039 10.66,10.324C11.766,9.718 13.638,9.126 14.453,9.126C14.731,9.126 14.761,9.099 15.236,8.421C15.508,8.033 16.06,7.386 16.464,6.984C18.589,4.861 21.249,3.441 24.877,2.493C28.35,1.585 32.474,1.359 36.026,1.88C40.208,2.494 43.984,4.097 47.522,6.761C48.627,7.593 50.041,8.854 50.929,9.8C51.375,10.275 51.683,10.519 52.225,10.827C55.199,12.516 57.286,15.089 58.482,18.542C59.019,20.09 59.248,21.233 59.538,23.803C59.586,24.222 59.626,25.44 59.628,26.509C59.633,29.174 59.454,31.239 58.957,34.25C58.811,35.131 58.692,35.904 58.692,35.967C58.692,36.05 58.84,36.105 59.233,36.167C61.108,36.462 62.579,38.171 63.127,40.69C63.28,41.395 63.302,41.704 63.303,43.282C63.305,45.265 63.197,46.046 62.719,47.548C62.01,49.772 61.349,51.119 60.282,52.521C58.748,54.536 56.988,55.554 54.98,55.587C54.595,55.593 54.262,55.615 54.242,55.636C54.221,55.657 54.149,56.171 54.082,56.778C53.745,59.85 53.292,61.615 52.232,63.981C50.914,66.924 47.695,70.957 44.435,73.747C39.9,77.629 36.455,78.87 30.826,78.648ZM34.308,76.67C37.115,76.322 39.2,75.422 41.804,73.436C44.623,71.285 47.067,68.675 49.11,65.63C50.741,63.201 51.817,60.192 52.166,57.082C52.23,56.515 52.35,55.521 52.433,54.871C52.841,51.677 53.56,40.514 53.484,38.555C53.437,37.353 53.291,36.914 52.369,35.2C50.917,32.501 50.415,30.981 50.079,28.256C49.76,25.674 49.534,24.734 48.938,23.498C48.514,22.617 48.196,22.156 47.584,21.532C45.865,19.78 42.959,19.128 39.517,19.724C38.234,19.946 37.326,20.172 35.431,20.743C31.879,21.815 30.76,22.114 29.301,22.385C27.734,22.676 26.522,22.793 25.108,22.792C22.46,22.788 20.457,22.36 18.269,21.328C17.353,20.896 17.005,20.824 16.389,20.937C14.029,21.372 12.045,24.757 11.127,29.916C10.504,33.413 10.33,36.626 10.5,41.452C10.679,46.513 11.149,52.961 11.537,55.671C11.597,56.09 11.684,56.828 11.73,57.31C11.776,57.792 11.844,58.29 11.881,58.416C11.917,58.542 12.05,59.092 12.175,59.64C12.44,60.802 12.964,62.292 13.485,63.371C15.36,67.249 19.45,71.743 23.583,74.463C25.708,75.861 27.738,76.542 30.406,76.754C31.34,76.827 33.395,76.783 34.308,76.67ZM56.232,53.456C56.889,53.209 57.409,52.847 58.055,52.187C58.825,51.4 59.385,50.576 59.988,49.343C61.32,46.618 61.772,43.922 61.323,41.378C61.158,40.444 60.939,39.85 60.529,39.223C59.489,37.632 57.776,37.548 55.926,38.998C55.684,39.188 55.472,39.414 55.455,39.502C55.437,39.589 55.403,40.089 55.378,40.614C55.175,44.96 54.93,48.704 54.649,51.741C54.566,52.64 54.498,53.459 54.498,53.561L54.498,53.747L55.124,53.692C55.469,53.662 55.967,53.556 56.232,53.456ZM9.403,53.479C9.234,52.747 8.711,44.565 8.558,40.248L8.506,38.775L8.115,38.552C7.482,38.188 6.799,37.987 6.2,37.988C5.182,37.988 4.437,38.546 3.866,39.737C3.334,40.847 3.146,41.97 3.212,43.663C3.352,47.306 5.281,51.402 7.63,53.043C8.023,53.317 8.892,53.646 9.232,53.649C9.412,53.65 9.438,53.626 9.403,53.479ZM55.985,36.686C56.321,36.52 56.609,36.375 56.626,36.365C56.665,36.341 56.808,35.584 57.092,33.904C57.718,30.195 57.917,26.357 57.622,23.726C57.131,19.366 55.995,16.609 53.786,14.423C51.234,11.895 47.77,10.588 43.253,10.446C40.106,10.348 37.244,10.947 34.483,12.282C31.096,13.919 28.305,16.323 25.595,19.938L24.927,20.829L25.475,20.854C27.13,20.928 30.269,20.323 33.685,19.273C37.407,18.128 38.907,17.791 40.909,17.647C45.538,17.315 48.968,19.074 50.683,22.659C51.29,23.927 51.62,25.282 51.946,27.837C52.053,28.671 52.174,29.512 52.217,29.704C52.481,30.91 53.121,32.561 53.79,33.769C54.666,35.347 54.859,35.773 55.229,36.941C55.247,36.997 55.287,37.031 55.318,37.016C55.35,37.001 55.65,36.853 55.985,36.686ZM8.627,35.01C8.709,32.654 9.194,29.397 9.792,27.18C10.559,24.334 11.608,22.235 12.974,20.812C14.006,19.736 15.083,19.163 16.265,19.063C16.579,19.037 16.836,18.995 16.835,18.969C16.835,18.944 16.803,18.803 16.763,18.656C16.611,18.092 16.53,16.64 16.606,15.84C16.694,14.919 17.029,13.647 17.394,12.852C17.99,11.549 19.737,9.354 20.078,9.477C20.499,9.628 20.521,9.852 20.166,10.385C18.534,12.842 18.011,15.691 18.678,18.503C18.935,19.583 18.922,19.566 19.779,19.929C20.195,20.104 20.586,20.268 20.649,20.292C20.747,20.33 20.766,20.189 20.78,19.325C20.81,17.473 21.283,15.515 22.069,13.993C22.528,13.103 23.601,11.672 24.316,10.994C25.638,9.74 27.443,8.652 29.428,7.913C30.527,7.504 30.788,7.456 30.937,7.635C31.158,7.903 31.004,8.078 30.101,8.58C28.524,9.459 27.637,10.106 26.376,11.298C24.438,13.129 23.21,15.366 22.819,17.777C22.699,18.516 22.664,20.562 22.771,20.562C22.807,20.562 23.105,20.176 23.433,19.705C24.29,18.474 24.615,18.055 25.573,16.941C30.828,10.833 37.164,8.03 44.439,8.596C45.454,8.675 46.739,8.85 46.979,8.942C47.414,9.11 46.763,8.527 45.616,7.724C41.254,4.668 36.213,3.26 30.705,3.559C26.194,3.804 22.527,4.873 19.695,6.767C18.09,7.84 16.468,9.677 15.828,11.147C15.246,12.483 15.024,13.348 14.935,14.63C14.84,15.989 14.58,16.292 13.508,16.293C12.515,16.293 11.373,16.756 10.6,17.472C10.141,17.897 9.875,17.993 9.684,17.803C9.634,17.752 9.593,17.64 9.593,17.553C9.593,17.29 10.134,16.46 10.66,15.915C11.2,15.356 11.602,15.093 12.437,14.754C12.736,14.632 13.007,14.491 13.039,14.44C13.071,14.39 13.098,14.207 13.099,14.033C13.1,13.595 13.303,12.57 13.53,11.85C13.635,11.518 13.708,11.234 13.693,11.218C13.637,11.162 12.896,11.396 12.275,11.665C9.821,12.729 7.873,15.08 6.831,18.237C6.062,20.564 5.824,22.21 5.826,25.175C5.828,27.495 5.911,28.47 6.325,31.007C6.594,32.663 7.353,36.112 7.474,36.233C7.489,36.248 7.724,36.341 7.994,36.438C8.423,36.592 8.493,36.6 8.533,36.499C8.559,36.435 8.601,35.765 8.627,35.01ZM29.586,65.818C28.875,65.659 28.538,65.244 28.886,64.955C29.056,64.814 29.311,64.815 30.081,64.96C30.991,65.131 32.385,65.094 33.624,64.866C33.973,64.802 34.106,64.842 34.18,65.035C34.233,65.175 34.209,65.371 34.125,65.472C33.755,65.918 30.977,66.129 29.586,65.818ZM24.171,62.2C24.003,61.762 24.416,61.61 26.449,61.364C29.117,61.041 34.004,61.041 36.56,61.366C38.495,61.612 38.962,61.789 38.798,62.215C38.691,62.494 37.865,62.521 36.56,62.287C35.088,62.022 28.993,61.988 26.97,62.234C24.669,62.512 24.289,62.507 24.171,62.2ZM28.347,54.191C27.648,53.617 28.545,53.133 29.429,53.607C29.576,53.685 29.696,53.913 29.696,54.113C29.696,54.428 29.629,54.477 29.196,54.477C28.92,54.477 28.54,54.349 28.347,54.191ZM33.29,54.25C33.151,53.887 33.665,53.444 34.226,53.444C34.87,53.444 35.045,53.824 34.575,54.205C34.164,54.538 33.411,54.564 33.29,54.25ZM19.35,42.81C18.38,42.315 17.848,41.152 18.128,40.139C18.211,39.84 18.257,39.574 18.231,39.549C18.067,39.384 16.453,40.174 15.828,40.725C15.425,41.081 14.833,41.014 14.774,40.604C14.697,40.066 16.71,38.845 18.391,38.409C20.631,37.828 23.121,38.467 24.965,40.093C26.11,41.102 25.772,41.888 24.601,40.94C24.051,40.495 22.794,39.653 22.68,39.653C22.658,39.652 22.662,40.034 22.688,40.502C22.74,41.435 22.433,42.072 21.655,42.649C21.117,43.048 19.973,43.128 19.35,42.81ZM21.887,40.345C22.019,40.128 21.985,40.024 21.711,39.798C21.324,39.481 20.997,39.547 20.862,39.969C20.661,40.605 21.534,40.925 21.887,40.345ZM41.459,42.807C40.683,42.425 40.224,41.607 40.235,40.629C40.241,40.179 40.196,39.811 40.135,39.811C40.001,39.811 39.524,40.126 38.545,40.866C37.703,41.503 37.572,41.536 37.289,41.194C36.863,40.681 39.387,38.878 41.215,38.388C43.23,37.849 46.02,38.538 47.689,39.988C48.637,40.812 48.006,41.401 46.998,40.632C46.499,40.251 45.018,39.519 44.742,39.517C44.624,39.515 44.62,39.673 44.727,40.075C45.25,42.034 43.263,43.696 41.459,42.807ZM43.769,40.666C44.238,40.197 43.731,39.367 43.167,39.683C42.837,39.867 42.84,40.491 43.171,40.684C43.506,40.88 43.557,40.878 43.769,40.666ZM25.74,36.448C25.578,36.409 24.698,36.152 23.786,35.877C19.196,34.497 17.038,34.449 14.348,35.668C13.519,36.044 13.327,36.085 13.16,35.919C12.795,35.553 13.144,35.218 14.651,34.487C16.632,33.527 18.093,33.231 20.202,33.362C22.582,33.51 25.571,34.312 26.317,35.004C26.788,35.44 26.838,36.173 26.414,36.4C26.257,36.484 26.107,36.545 26.082,36.536C26.056,36.526 25.902,36.487 25.74,36.448ZM36.677,36.45C36.328,36.374 36.189,35.738 36.425,35.295C36.97,34.279 41.518,33.164 44.315,33.361C45.665,33.457 47.427,33.976 48.805,34.686C49.915,35.257 50.175,35.564 49.838,35.901C49.631,36.108 49.518,36.087 48.659,35.688C46.035,34.464 43.534,34.514 39.149,35.878C37.486,36.396 36.973,36.514 36.677,36.45Z" style="fill-rule:nonzero;"/>
</svg>
