<?xml version="1.0" encoding="UTF-8" standalone="no"?>
<!DOCTYPE svg PUBLIC "-//W3C//DTD SVG 1.1//EN" "http://www.w3.org/Graphics/SVG/1.1/DTD/svg11.dtd">
<svg width="100%" height="100%" viewBox="0 0 800 1200" version="1.1" xmlns="http://www.w3.org/2000/svg" xmlns:xlink="http://www.w3.org/1999/xlink" xml:space="preserve" xmlns:serif="http://www.serif.com/" style="fill-rule:evenodd;clip-rule:evenodd;">
    <path d="M770.608,1161.72C764.587,1161.72 759.707,1166.6 759.707,1172.62L770.608,1172.62L770.608,1161.72ZM40.261,1172.62C40.261,1166.6 35.381,1161.72 29.36,1161.72L29.36,1172.62L40.261,1172.62ZM320.288,992.768C360.187,939.723 439.803,939.723 479.707,992.768L320.288,992.768ZM181.339,1172.62L181.339,992.768L619.744,992.768L619.744,1172.62L181.339,1172.62ZM301.243,1172.62L301.243,1112.67L499.845,1112.67L499.845,1172.62L301.243,1172.62ZM361.195,1172.62L361.195,1183.53L439.893,1183.53L439.893,1172.62L361.195,1172.62ZM400,1050.54C401.205,1050.54 402.181,1051.52 402.181,1052.72C402.181,1053.92 401.205,1054.9 400,1054.9C398.795,1054.9 397.819,1053.92 397.819,1052.72C397.819,1051.52 398.795,1050.54 400,1050.54ZM29.371,885.739L29.392,1172.63L770.619,1172.63L770.619,886.496M29.392,38.283C35.413,38.277 40.293,33.397 40.293,27.381L29.392,27.381L29.392,38.283ZM759.739,27.381C759.739,33.397 764.619,38.283 770.64,38.283L770.64,27.381L759.739,27.381ZM479.712,207.232C439.813,260.277 360.197,260.277 320.293,207.232L479.712,207.232ZM618.661,27.376L618.661,207.232L180.256,207.232L180.256,27.376L618.661,27.376ZM498.757,27.376L498.757,87.328L300.155,87.328L300.155,27.376L498.757,27.376ZM438.805,27.376L438.805,16.475L360.107,16.475L360.107,27.376L438.805,27.376ZM400,149.461C398.795,149.461 397.819,148.485 397.819,147.28C397.819,146.075 398.795,145.099 400,145.099C401.205,145.099 402.181,146.075 402.181,147.28C402.181,148.485 401.205,149.461 400,149.461ZM400,601.819C398.795,601.819 397.819,600.843 397.819,599.637C397.819,598.432 398.795,597.456 400,597.456C401.205,597.456 402.181,598.432 402.181,599.637C402.181,600.843 401.205,601.819 400,601.819ZM400,699.376C344.917,699.376 300.261,654.72 300.261,599.637C300.261,544.555 344.917,499.899 400,499.899C455.083,499.899 499.739,544.549 499.739,599.637C499.739,654.72 455.083,699.376 400,699.376ZM770.608,885.771L770.608,599.637L29.381,599.637L770.608,599.637L770.608,27.371L29.381,27.371L29.381,885.771" fill="transparent" stroke="currentColor" stroke-width="4"/>
</svg>
