<?xml version="1.0" encoding="UTF-8" standalone="no"?>
<!DOCTYPE svg PUBLIC "-//W3C//DTD SVG 1.1//EN" "http://www.w3.org/Graphics/SVG/1.1/DTD/svg11.dtd">
<svg width="100%" height="100%" viewBox="0 0 800 1200" version="1.1" xmlns="http://www.w3.org/2000/svg" xmlns:xlink="http://www.w3.org/1999/xlink" xml:space="preserve" xmlns:serif="http://www.serif.com/" style="fill-rule:evenodd;clip-rule:evenodd;">
    <path d="M399.875,948.869C401.39,948.869 402.622,950.107 402.622,951.632C402.622,953.153 401.39,954.39 399.875,954.39C398.354,954.39 397.127,953.153 397.127,951.632C397.127,950.107 398.354,948.869 399.875,948.869ZM399.875,801.246C401.39,801.246 402.622,802.483 402.622,804.004C402.622,805.529 401.39,806.767 399.875,806.767C398.354,806.767 397.127,805.529 397.127,804.004C397.127,802.483 398.354,801.246 399.875,801.246ZM399.875,598.71C401.39,598.71 402.622,599.948 402.622,601.474C402.622,602.994 401.39,604.232 399.875,604.232C398.354,604.232 397.127,602.994 397.127,601.474C397.127,599.948 398.354,598.71 399.875,598.71ZM399.875,395.77C401.39,395.77 402.622,397.007 402.622,398.528C402.622,400.053 401.39,401.291 399.875,401.291C398.354,401.291 397.127,400.053 397.127,398.528C397.127,397.007 398.354,395.77 399.875,395.77ZM399.875,248.146C401.39,248.146 402.622,249.379 402.622,250.904C402.622,252.43 401.39,253.667 399.875,253.667C398.354,253.667 397.127,252.43 397.127,250.904C397.127,249.379 398.354,248.146 399.875,248.146ZM770.608,229.103L752.231,228.937M770.608,977.712L752.231,977.712M770.608,416.302L752.231,416.302M770.608,790.598L752.231,790.598M399.875,486.118C433.284,486.118 463.38,500.494 484.366,523.416C503.18,543.964 514.67,571.382 514.67,601.474C514.67,665.134 463.231,716.824 399.875,716.824C336.513,716.824 285.079,665.134 285.079,601.474C285.079,537.808 336.513,486.118 399.875,486.118ZM291.443,1186.47L291.55,1173.76L399.987,1173.76L29.36,1173.76L29.36,601.474M29.36,1159.83C36.604,1159.83 42.92,1165.34 42.92,1173.76L121.341,1173.76C121.341,1053.74 213.572,952.038 343.709,952.038L399.987,952.038M399.987,1186.47L343.709,1186.47L343.709,1173.76M508.525,1186.47L508.418,1173.76L399.987,1173.76L770.608,1173.76L770.608,601.474M770.608,1159.83C763.364,1159.83 757.048,1165.34 757.048,1173.76L678.627,1173.76C678.627,1053.74 586.396,952.038 456.259,952.038L399.987,952.038M399.987,1186.47L456.259,1186.47L456.259,1173.76M291.443,16.475L291.55,29.186L399.987,29.186L29.36,29.186L29.36,601.474L399.875,601.474M29.36,43.115C36.604,43.115 42.92,37.604 42.92,29.186L121.341,29.186C121.341,149.204 213.572,250.904 343.709,250.904L399.987,250.904M399.987,16.475L343.709,16.475L343.709,29.186M508.525,16.475L508.418,29.186L399.987,29.186L770.608,29.186L770.608,601.474L399.875,601.474M770.608,43.115C763.364,43.115 757.048,37.604 757.048,29.186L678.627,29.186C678.627,149.204 586.396,250.904 456.259,250.904L399.987,250.904M399.987,16.475L456.259,16.475L456.259,29.186" fill="transparent" stroke="currentColor" stroke-width="4"/>
</svg>
