<?xml version="1.0" encoding="UTF-8" standalone="no"?>
<!DOCTYPE svg PUBLIC "-//W3C//DTD SVG 1.1//EN" "http://www.w3.org/Graphics/SVG/1.1/DTD/svg11.dtd">
<svg width="100%" height="100%" viewBox="0 0 32 32" version="1.1" xmlns="http://www.w3.org/2000/svg" xmlns:xlink="http://www.w3.org/1999/xlink" xml:space="preserve" xmlns:serif="http://www.serif.com/" style="fill-rule:evenodd;clip-rule:evenodd;stroke-linecap:square;stroke-linejoin:round;stroke-miterlimit:1.5;">
    <g transform="matrix(1,0,0,1,-12.4603,-29.4242)">
        <g transform="matrix(6.12323e-17,-1,-1,-6.12323e-17,73.1368,73.1368)">
            <path d="M23.561,46.317C23.55,45.899 23.544,45.477 23.544,45.05C23.544,36.914 25.579,30.308 28.086,30.308C30.593,30.308 32.629,36.914 32.629,45.05C32.629,53.187 30.593,59.793 28.086,59.793C26.604,59.793 25.286,57.482 24.457,53.91M23.544,46.316L23.561,46.317" style="fill:none;stroke:black;stroke-width:1.25px;"/>
        </g>
        <path d="M32.612,43.758C32.623,44.184 32.629,44.615 32.629,45.05C32.629,53.187 30.593,59.793 28.086,59.793C25.579,59.793 23.544,53.187 23.544,45.05C23.544,36.914 25.579,30.308 28.086,30.308C29.655,30.308 31.039,32.893 31.855,36.821" style="fill:none;stroke:black;stroke-width:1.25px;"/>
        <path d="M22.544,49.318L18.363,51.121L18.834,46.678L22.544,49.318ZM32.155,38.662L29.449,35.726L33.57,34.824L32.155,38.662Z"/>
    </g>
</svg>
