<svg width="1080" height="170" viewBox="0 0 1080 170" fill="none" xmlns="http://www.w3.org/2000/svg">
<path d="M444.997 68.178C448.745 64.0667 453.288 60.7327 458.609 58.1933C464.059 55.7749 469.742 54.5657 475.676 54.5657C479.425 54.5657 483.061 55.1098 486.568 56.1981C488.261 56.8027 489.954 57.4678 491.655 58.1933C493.348 58.9189 494.981 59.7653 496.561 60.7327C498.133 61.7001 499.584 62.7279 500.914 63.8162C502.365 64.9045 503.756 66.1137 505.086 67.4438C505.691 68.0485 506.295 68.7135 506.9 69.4391L508.714 71.2529C509.681 72.4621 510.951 73.3085 512.531 73.7922C514.224 74.155 515.736 74.0341 517.075 73.4295L530.506 67.9794C531.957 67.3747 532.924 66.4678 533.408 65.2586C533.891 63.9285 533.71 62.5983 532.864 61.2682C530.687 58.0033 528.087 54.7902 525.056 51.6463C523 49.5906 520.754 47.6559 518.336 45.8334C516.038 43.8986 513.551 42.1453 510.89 40.5647C505.803 37.5416 500.241 35.175 494.186 33.4821C488.01 31.7892 481.843 30.9427 475.668 30.9427C466.227 30.9427 457.331 32.7566 448.978 36.3929C440.747 40.0205 433.423 44.9265 427.014 51.1021C420.838 57.5196 415.941 64.8354 412.313 73.0667C408.686 81.4189 406.863 90.3153 406.863 99.7559C406.863 109.196 408.677 118.093 412.313 126.445C415.941 134.797 420.847 142.061 427.014 148.228C433.31 154.525 440.626 159.483 448.978 163.119C457.331 166.747 466.227 168.569 475.668 168.569C481.843 168.569 488.01 167.723 494.186 166.03C497.209 165.183 500.12 164.155 502.901 162.946C505.682 161.737 508.351 160.346 510.89 158.774C516.341 155.63 521.056 151.934 525.056 147.701C526.507 146.25 527.837 144.739 529.046 143.167C530.376 141.474 531.646 139.781 532.855 138.079C533.701 136.749 533.883 135.419 533.399 134.089C532.915 132.759 531.948 131.791 530.497 131.187L517.066 125.737C515.736 125.132 514.224 125.072 512.523 125.555C510.951 126.039 509.681 126.886 508.705 128.095C508.101 128.699 507.496 129.364 506.891 130.09L505.078 131.904C503.747 133.234 502.357 134.504 500.906 135.713C499.576 136.801 498.125 137.829 496.553 138.796C494.981 139.764 493.348 140.61 491.647 141.336C489.954 142.061 488.261 142.726 486.559 143.331C483.052 144.419 479.416 144.963 475.668 144.963C469.492 144.963 463.809 143.694 458.6 141.154C453.271 138.857 448.737 135.583 444.988 131.351C441.119 127.119 438.026 122.334 435.729 117.013C433.431 111.684 432.283 105.94 432.283 99.7645C432.283 93.5889 433.431 87.966 435.729 82.5159C438.026 77.1867 441.119 72.4103 444.988 68.178H444.997Z" fill="#070E1C"/>
<path d="M382.031 33.3176H367.875C366.303 33.3176 364.973 33.8618 363.884 34.9501C362.796 36.0384 362.252 37.3685 362.252 38.9405V112.288C362.252 118.948 361.163 124.449 358.987 128.811C356.81 133.164 354.081 136.619 350.816 139.159C347.672 141.819 344.217 143.572 340.469 144.427C336.599 145.395 333.326 145.879 330.665 145.879C329.214 145.879 327.642 145.758 325.949 145.516C324.377 145.274 322.624 144.911 320.681 144.427C317.174 143.581 313.719 141.828 310.333 139.159C307.189 136.498 304.52 133.044 302.344 128.811C300.167 124.458 299.079 118.948 299.079 112.288V38.9405C299.079 37.3685 298.535 36.0384 297.446 34.9501C296.358 33.8618 295.028 33.3176 293.456 33.3176H279.109C277.658 33.3176 276.389 33.8618 275.3 34.9501C274.212 36.0384 273.668 37.3685 273.668 38.9405V112.47C273.668 121.064 274.998 128.751 277.658 135.522C280.319 142.424 284.197 148.288 289.276 153.134C293.991 157.85 299.986 161.607 307.25 164.388C314.03 167.048 321.838 168.379 330.665 168.379C339.493 168.379 347.37 167.048 354.262 164.388C361.405 161.607 367.391 157.85 372.236 153.134C377.194 148.167 381.012 142.303 383.672 135.522C385.002 132.016 385.97 128.379 386.574 124.631C387.3 120.761 387.663 116.702 387.663 112.47V38.9405C387.663 37.3685 387.118 36.0384 386.03 34.9501C384.942 33.8618 383.612 33.3176 382.04 33.3176H382.031Z" fill="#070E1C"/>
<path d="M236.035 50.9426C229.86 44.6461 222.604 39.6883 214.252 36.052C205.9 32.4243 196.943 30.6019 187.382 30.6019C177.82 30.6019 169.045 32.4157 160.692 36.052C152.34 39.6796 145.016 44.6461 138.728 50.9426C132.552 57.1183 127.655 64.434 124.019 72.9072C120.391 81.2594 118.569 90.1558 118.569 99.5964C118.569 109.037 120.382 118.115 124.019 126.467C127.646 134.819 132.552 142.144 138.728 148.431C145.024 154.607 152.34 159.504 160.692 163.141C169.045 166.768 177.941 168.591 187.382 168.591C196.822 168.591 205.9 166.777 214.252 163.141C222.604 159.513 229.868 154.607 236.035 148.431C242.332 142.135 247.29 134.819 250.926 126.467C254.554 118.115 256.376 109.158 256.376 99.5964C256.376 90.0349 254.562 81.2594 250.926 72.9072C247.29 64.434 242.332 57.1096 236.035 50.9426ZM227.502 116.836C225.204 122.286 222.052 127.123 218.061 131.356C214.192 135.467 209.588 138.801 204.267 141.34C199.059 143.759 193.436 144.968 187.382 144.968C181.327 144.968 175.644 143.759 170.314 141.34C165.106 138.801 160.511 135.467 156.521 131.356C152.651 127.123 149.559 122.278 147.262 116.836C144.964 111.386 143.815 105.642 143.815 99.5877C143.815 93.533 144.964 87.9706 147.262 82.5205C149.559 76.9494 152.651 72.1126 156.521 68.0012C160.511 63.8899 165.115 60.6164 170.314 58.1979C175.644 55.6586 181.327 54.3889 187.382 54.3889C193.436 54.3889 199.059 55.6586 204.267 58.1979C209.597 60.6164 214.192 63.8899 218.061 68.0012C222.052 72.1126 225.204 76.9581 227.502 82.5205C229.799 87.9706 230.948 93.6539 230.948 99.5877C230.948 105.522 229.799 111.386 227.502 116.836Z" fill="#070E1C"/>
<path d="M121.894 34.7687C121.41 33.8013 120.382 33.3176 118.81 33.3176H100.292C98.72 33.3176 97.0876 33.8013 95.3947 34.7687C93.8227 35.6151 92.674 36.7034 91.9484 38.0336L89.4091 42.3868C88.5626 43.8378 87.6557 45.2889 86.6883 46.7399L82.3351 54.0039C81.005 56.4223 79.6144 58.8494 78.1633 61.2678L69.4483 75.9771C68.481 77.5491 67.5136 79.0606 66.5462 80.5117L64.0069 84.8648C63.1604 86.195 62.1326 86.86 60.9234 86.86C59.8351 86.86 58.9282 86.195 58.2026 84.8648L51.3014 73.2477C49.0039 69.3782 46.7064 65.4396 44.4003 61.4492C41.9818 57.4588 39.6239 53.5202 37.3177 49.6507L30.4165 38.0336C29.691 36.7034 28.4818 35.6151 26.7889 34.7687C25.2169 33.8013 23.6449 33.3176 22.0729 33.3176H3.52872C1.95673 33.3176 0.868438 33.8013 0.263829 34.7687C-0.219858 35.6151 -0.0384751 36.7034 0.807977 38.0336C4.31471 44.2092 7.951 50.3158 11.6996 56.3705C15.4481 62.3043 19.3263 68.3504 23.3167 74.526C27.1862 80.5808 30.9434 86.6268 34.5711 92.6816C38.3196 98.6154 41.9559 104.661 45.4627 110.837C46.3091 112.167 46.9742 113.86 47.4579 115.924C48.0625 117.98 48.3648 119.794 48.3648 121.375V160.406C48.3648 161.978 48.8485 163.309 49.8158 164.397C50.9041 165.485 52.2343 166.029 53.8063 166.029H68.1441C69.7161 166.029 71.0462 165.485 72.1345 164.397C73.2228 163.309 73.767 161.978 73.767 160.406V121.375C73.767 119.803 74.0088 117.989 74.4925 115.924C74.9762 113.869 75.6413 112.176 76.4877 110.837C77.8179 108.54 79.2085 106.182 80.6595 103.755C82.2315 101.336 83.8639 98.7968 85.5568 96.1278C87.7334 92.6211 89.91 89.0453 92.0953 85.4176C94.3928 81.669 96.7507 77.9118 99.1778 74.1633C101.475 70.4147 103.712 66.7179 105.898 63.0903C108.195 59.4626 110.432 55.8868 112.617 52.3801C114.31 49.7198 115.882 47.2323 117.333 44.9348C118.784 42.5163 120.175 40.2188 121.505 38.0336C122.231 36.7034 122.352 35.6151 121.868 34.7687H121.894Z" fill="#070E1C"/>
<path d="M1078.37 36.0605C1077.28 34.9722 1075.95 34.4281 1074.38 34.4281H1060.21C1058.64 34.4281 1057.31 34.9722 1056.22 36.0605C1055.13 37.1488 1054.59 38.479 1054.59 40.051V86.3467C1054.59 87.9187 1054.04 89.2488 1052.96 90.3371C1051.87 91.4254 1050.54 91.9696 1048.97 91.9696H994.69C993.118 91.9696 991.788 91.4254 990.699 90.3371C989.611 89.2488 989.067 87.9187 989.067 86.3467V40.051C989.067 38.479 988.523 37.1488 987.434 36.0605C986.346 34.9722 985.016 34.4281 983.444 34.4281H969.287C967.715 34.4281 966.385 34.9722 965.297 36.0605C964.209 37.1488 963.665 38.479 963.665 40.051V161.681C963.665 163.253 964.209 164.583 965.297 165.671C966.385 166.76 967.715 167.304 969.287 167.304H983.444C985.016 167.304 986.346 166.76 987.434 165.671C988.523 164.583 989.067 163.253 989.067 161.681V120.11C989.067 118.538 989.611 117.208 990.699 116.119C991.788 115.031 993.118 114.487 994.69 114.487H1048.97C1050.54 114.487 1051.87 115.031 1052.96 116.119C1054.04 117.208 1054.59 118.538 1054.59 120.11V161.681C1054.59 163.253 1055.13 164.583 1056.22 165.671C1057.31 166.76 1058.64 167.304 1060.21 167.304H1074.38C1075.95 167.304 1077.28 166.76 1078.37 165.671C1079.46 164.583 1080 163.253 1080 161.681V40.0596C1080 38.4876 1079.46 37.1575 1078.37 36.0692V36.0605Z" fill="#070E1C"/>
<path d="M859.422 69.4754C863.17 65.364 867.713 62.03 873.034 59.4907C878.484 57.0723 884.167 55.863 890.101 55.863C893.85 55.863 897.486 56.4072 900.993 57.4955C902.686 58.1001 904.379 58.7652 906.08 59.4907C907.773 60.2162 909.405 61.0627 910.986 62.0301C912.558 62.9974 914.009 64.0253 915.339 65.1136C916.79 66.2019 918.181 67.4111 919.511 68.7412C920.116 69.3458 920.72 70.0109 921.325 70.7364L923.139 72.5502C924.106 73.7595 925.376 74.6059 926.956 75.0896C928.649 75.4524 930.161 75.3314 931.491 74.7268L944.931 69.2767C946.382 68.6721 947.349 67.7652 947.833 66.556C948.316 65.2258 948.135 63.8957 947.289 62.5656C945.112 59.3007 942.512 56.0876 939.48 52.9436C937.425 50.888 935.188 48.9532 932.761 47.1308C930.463 45.196 927.976 43.4427 925.315 41.862C920.228 38.839 914.666 36.4724 908.611 34.7795C902.435 33.0866 896.268 32.2401 890.093 32.2401C880.652 32.2401 871.756 34.0539 863.403 37.6902C855.172 41.3179 847.848 46.2238 841.439 52.3995C835.263 58.817 830.366 66.1328 826.73 74.3641C823.102 82.7163 821.279 91.6127 821.279 101.053C821.279 110.494 823.093 119.39 826.73 127.742C830.357 136.095 835.263 143.359 841.439 149.526C847.735 155.822 855.051 160.78 863.403 164.416C871.756 168.044 880.652 169.866 890.093 169.866C896.268 169.866 902.435 169.02 908.611 167.327C911.634 166.481 914.545 165.453 917.326 164.243C920.107 163.034 922.776 161.644 925.315 160.072C930.765 156.928 935.481 153.231 939.472 148.999C940.923 147.548 942.262 146.036 943.471 144.464C944.801 142.771 946.071 141.078 947.28 139.377C948.126 138.047 948.308 136.717 947.824 135.386C947.34 134.056 946.373 133.089 944.922 132.484L931.482 127.034C930.152 126.43 928.641 126.369 926.948 126.853C925.376 127.336 924.106 128.183 923.13 129.392C922.525 129.997 921.921 130.662 921.316 131.387L919.502 133.201C918.172 134.531 916.782 135.801 915.331 137.01C914 138.098 912.549 139.126 910.977 140.094C909.405 141.061 907.773 141.908 906.072 142.633C904.379 143.359 902.686 144.024 900.984 144.628C897.477 145.717 893.841 146.261 890.093 146.261C883.917 146.261 878.234 144.991 873.025 142.452C867.696 140.154 863.162 136.881 859.413 132.648C855.543 128.416 852.451 123.631 850.154 118.31C847.856 112.981 846.708 107.238 846.708 101.062C846.708 94.8862 847.856 89.2634 850.154 83.8132C852.451 78.484 855.543 73.7076 859.413 69.4754H859.422Z" fill="#070E1C"/>
<path d="M763.047 36.6047C762.321 35.1536 761.112 34.4281 759.419 34.4281C757.726 34.4281 756.517 35.1536 755.792 36.6047L692.8 162.415C692.195 163.745 692.135 164.894 692.619 165.861C693.223 166.829 694.312 167.312 695.884 167.312H712.407C713.979 167.312 715.49 166.829 716.95 165.861C718.522 164.894 719.671 163.685 720.396 162.234L725.665 151.524C726.269 150.072 727.358 148.863 728.93 147.896C730.502 146.929 732.074 146.445 733.646 146.445H785.202C786.774 146.445 788.285 146.929 789.736 147.896C791.308 148.863 792.457 150.012 793.182 151.342L798.633 162.234C799.237 163.685 800.325 164.894 801.897 165.861C803.469 166.829 805.041 167.312 806.613 167.312H823.136C824.708 167.312 825.736 166.829 826.22 165.861C826.825 164.894 826.764 163.745 826.039 162.415L763.038 36.6047H763.047ZM775.942 122.839C775.459 123.807 774.431 124.29 772.859 124.29H745.988C744.416 124.29 743.328 123.807 742.723 122.839C742.119 121.872 742.119 120.663 742.723 119.212L757.07 89.2575C757.675 87.8064 758.461 87.0809 759.428 87.0809C760.395 87.0809 761.181 87.8064 761.786 89.2575L775.942 119.212C776.547 120.542 776.547 121.751 775.942 122.839Z" fill="#070E1C"/>
<path d="M674.558 70.4282C674.558 70.4282 674.549 70.4023 674.541 70.3936C673.28 67.6988 671.863 65.1249 670.317 62.6719C669.946 62.0846 669.065 62.171 668.806 62.8101L660.721 83.0645C660.652 83.2286 660.643 83.41 660.687 83.5828L667.216 110.505C667.337 111.006 667.881 111.291 668.357 111.092L673.945 108.864C673.997 108.847 675.551 108.208 677.27 107.508C677.901 107.249 678.566 107.802 678.428 108.467C675.569 122.658 668.011 135.735 656.67 145.296C656.126 145.762 655.28 145.374 655.271 144.648L655.107 131.243C655.107 130.811 654.77 130.449 654.33 130.405L634.213 128.566C633.972 128.54 633.73 128.626 633.548 128.799L611.212 149.917C610.893 150.219 610.858 150.72 611.135 151.066L617.587 159.176C618.019 159.72 617.647 160.532 616.947 160.558C604.855 160.955 592.945 157.932 582.588 152.016C581.958 151.662 582.044 150.729 582.718 150.478L587.676 148.656C588.082 148.509 588.315 148.069 588.203 147.645L581.587 122.01C581.517 121.734 581.319 121.518 581.051 121.423L556.443 112.535C555.951 112.362 555.424 112.656 555.321 113.165L554.794 115.791C554.621 116.646 553.42 116.724 553.153 115.895C549.266 104.062 548.981 91.745 551.805 80.2747C551.943 79.7046 552.6 79.4455 553.092 79.7564L558.007 82.909C558.37 83.1422 558.845 83.0645 559.112 82.7449L577.035 61.5404C577.164 61.3936 577.233 61.2036 577.233 61.0049L577.501 42.6421L577.518 41.5624C577.527 40.8887 576.793 40.4741 576.223 40.8196C566.938 46.4684 559.389 54.0692 553.852 62.8447C541.993 81.6653 539.437 105.867 549.18 127.711C553.351 137.065 559.354 145.037 566.575 151.394C567.888 152.551 569.235 153.648 570.634 154.693C585.732 166.06 605.158 170.931 624.22 167.52C629.61 166.561 634.974 164.929 640.199 162.605C645.77 160.126 650.849 156.991 655.383 153.346C670.024 141.573 679.041 124.385 680.777 106.1C681.865 94.673 680.103 82.8227 675.102 71.5942C674.929 71.2055 674.757 70.8169 674.575 70.4368L674.558 70.4282Z" fill="#070E1C"/>
<path d="M623.279 63.4246L595.553 75.75C595.164 75.9227 594.931 76.3287 594.983 76.7519L598.395 104.512C598.447 104.918 598.74 105.246 599.138 105.333L629.074 112.165C629.489 112.26 629.912 112.078 630.128 111.707L645.01 86.0542C645.226 85.6828 645.166 85.2078 644.872 84.8969L624.367 63.6319C624.082 63.3382 623.65 63.2519 623.279 63.416V63.4246Z" fill="#070E1C"/>
<path d="M648.197 40.7876C637.703 34.3355 625.352 30.6129 612.128 30.6129C607.3 30.6129 602.575 31.1138 598.023 32.0553C597.263 32.2108 597.134 33.2472 597.833 33.5841L623.616 45.9958C624.151 46.2549 624.756 46.3413 625.343 46.2377L647.912 42.2818C648.655 42.1522 648.836 41.1762 648.197 40.7876Z" fill="#070E1C"/>
<path d="M670.205 16.7173C651.229 2.78535 628.193 -2.25018 605.348 2.53487C582.822 7.25945 563.301 21.3814 551.762 41.3507C551.304 42.1454 551.512 43.1041 552.263 43.631C553.014 44.1579 553.999 44.0369 554.595 43.3373C579.246 14.3075 621.111 7.09534 654.148 26.1923C686.417 44.8402 701.299 84.0102 689.544 119.311C689.224 120.269 689.665 121.254 690.589 121.66C690.848 121.772 691.107 121.824 691.366 121.824C692.031 121.824 692.662 121.461 693.007 120.831C695.27 116.702 697.11 112.453 698.63 107.832C709.789 74.0083 698.362 37.3949 670.196 16.7173H670.205Z" fill="#070E1C"/>
</svg>
