<?xml version="1.0" encoding="UTF-8" standalone="no"?>
<!DOCTYPE svg PUBLIC "-//W3C//DTD SVG 1.1//EN" "http://www.w3.org/Graphics/SVG/1.1/DTD/svg11.dtd">
<svg width="100%" height="100%" viewBox="0 0 398 63" version="1.1" xmlns="http://www.w3.org/2000/svg" xmlns:xlink="http://www.w3.org/1999/xlink" xml:space="preserve" xmlns:serif="http://www.serif.com/" style="fill-rule:evenodd;clip-rule:evenodd;stroke-linejoin:round;stroke-miterlimit:2;">
    <g transform="matrix(1,0,0,1,-8.16327e-06,0.000317523)">
        <path d="M163.942,24.832C165.323,23.317 166.997,22.089 168.957,21.153C170.965,20.262 173.059,19.817 175.245,19.817C176.626,19.817 177.966,20.017 179.257,20.418C179.881,20.641 180.505,20.886 181.132,21.153C181.755,21.421 182.357,21.732 182.939,22.089C183.518,22.445 184.053,22.824 184.543,23.225C185.077,23.626 185.59,24.071 186.08,24.561C186.303,24.784 186.525,25.029 186.748,25.296L187.416,25.965C187.773,26.41 188.24,26.722 188.823,26.9C189.446,27.034 190.003,26.989 190.497,26.766L195.445,24.759C195.979,24.536 196.336,24.202 196.514,23.756C196.692,23.266 196.625,22.776 196.313,22.286C195.512,21.083 194.554,19.9 193.437,18.741C192.679,17.984 191.852,17.271 190.961,16.6C190.115,15.887 189.198,15.241 188.218,14.662C186.344,13.548 184.295,12.676 182.064,12.053C179.789,11.429 177.517,11.117 175.242,11.117C171.764,11.117 168.486,11.785 165.409,13.125C162.377,14.462 159.678,16.269 157.317,18.541C155.042,20.905 153.238,23.6 151.901,26.633C150.565,29.71 149.893,32.987 149.893,36.465C149.893,39.943 150.562,43.221 151.901,46.298C153.241,49.375 155.045,52.051 157.317,54.323C159.637,56.643 162.332,58.469 165.409,59.809C168.486,61.145 171.764,61.817 175.242,61.817C177.517,61.817 179.789,61.505 182.064,60.881C183.178,60.569 184.25,60.191 185.275,59.745C186.299,59.3 187.283,58.787 188.218,58.208C190.226,57.05 191.964,55.688 193.437,54.129C193.971,53.594 194.461,53.037 194.907,52.458C195.397,51.835 195.865,51.211 196.31,50.584C196.622,50.094 196.689,49.604 196.511,49.114C196.332,48.624 195.976,48.268 195.442,48.045L190.493,46.037C190.003,45.814 189.446,45.792 188.82,45.97C188.24,46.148 187.773,46.46 187.413,46.906C187.19,47.128 186.968,47.373 186.745,47.641L186.077,48.309C185.587,48.799 185.074,49.267 184.54,49.712C184.05,50.113 183.515,50.492 182.936,50.848C182.357,51.205 181.755,51.516 181.129,51.784C180.505,52.051 179.881,52.296 179.254,52.519C177.962,52.92 176.623,53.12 175.242,53.12C172.967,53.12 170.873,52.652 168.954,51.717C166.991,50.87 165.32,49.664 163.939,48.105C162.513,46.546 161.374,44.783 160.528,42.823C159.681,40.86 159.258,38.744 159.258,36.469C159.258,34.193 159.681,32.122 160.528,30.114C161.374,28.151 162.513,26.391 163.939,24.832L163.942,24.832Z" style="fill:white;fill-rule:nonzero;"/>
    </g>
    <g transform="matrix(1,0,0,1,-8.16327e-06,0.000317523)">
        <path d="M140.748,11.984L135.529,11.984C134.95,11.984 134.46,12.185 134.059,12.586C133.658,12.987 133.458,13.477 133.458,14.056L133.458,41.078C133.458,43.531 133.057,45.558 132.255,47.165C131.453,48.769 130.448,50.042 129.245,50.977C128.087,51.957 126.814,52.603 125.433,52.918C124.007,53.275 122.801,53.453 121.821,53.453C121.286,53.453 120.707,53.408 120.084,53.319C119.504,53.23 118.859,53.096 118.143,52.918C116.851,52.606 115.578,51.96 114.33,50.977C113.172,49.997 112.189,48.724 111.387,47.165C110.585,45.561 110.184,43.531 110.184,41.078L110.184,14.056C110.184,13.477 109.984,12.987 109.583,12.586C109.182,12.185 108.692,11.984 108.113,11.984L102.827,11.984C102.293,11.984 101.825,12.185 101.424,12.586C101.023,12.987 100.823,13.477 100.823,14.056L100.823,41.145C100.823,44.311 101.313,47.143 102.293,49.637C103.273,52.18 104.701,54.341 106.573,56.126C108.31,57.866 110.518,59.247 113.194,60.272C115.692,61.252 118.569,61.742 121.821,61.742C125.073,61.742 127.975,61.252 130.514,60.272C133.146,59.247 135.351,57.863 137.136,56.126C138.963,54.296 140.369,52.135 141.349,49.637C141.839,48.346 142.196,47.006 142.419,45.625C142.686,44.199 142.82,42.704 142.82,41.145L142.82,14.056C142.82,13.477 142.619,12.987 142.218,12.586C141.817,12.185 141.327,11.984 140.748,11.984Z" style="fill:white;fill-rule:nonzero;"/>
    </g>
    <g transform="matrix(1,0,0,1,-8.16327e-06,0.000317523)">
        <path d="M86.959,18.483C84.683,16.163 82.011,14.337 78.933,13C75.856,11.664 72.557,10.992 69.034,10.992C65.511,10.992 62.278,11.66 59.201,13C56.124,14.337 53.426,16.166 51.109,18.483C48.834,20.758 47.03,23.453 45.69,26.575C44.354,29.652 43.682,32.929 43.682,36.407C43.682,39.885 44.351,43.229 45.69,46.306C47.027,49.384 48.834,52.082 51.109,54.398C53.429,56.674 56.124,58.478 59.201,59.817C62.278,61.154 65.556,61.825 69.034,61.825C72.512,61.825 75.856,61.157 78.933,59.817C82.011,58.481 84.687,56.674 86.959,54.398C89.278,52.079 91.105,49.384 92.445,46.306C93.781,43.229 94.452,39.93 94.452,36.407C94.452,32.885 93.784,29.652 92.445,26.575C91.105,23.453 89.278,20.755 86.959,18.483ZM83.815,42.759C82.968,44.766 81.807,46.548 80.337,48.108C78.911,49.622 77.215,50.85 75.255,51.786C73.336,52.677 71.265,53.122 69.034,53.122C66.803,53.122 64.71,52.677 62.746,51.786C60.827,50.85 59.135,49.622 57.664,48.108C56.239,46.548 55.1,44.763 54.253,42.759C53.407,40.754 52.984,38.635 52.984,36.404C52.984,34.173 53.407,32.124 54.253,30.116C55.1,28.064 56.239,26.282 57.664,24.767C59.135,23.253 60.831,22.047 62.746,21.156C64.71,20.22 66.803,19.752 69.034,19.752C71.265,19.752 73.336,20.22 75.255,21.156C77.218,22.047 78.911,23.253 80.337,24.767C81.807,26.282 82.968,28.067 83.815,30.116C84.661,32.124 85.084,34.218 85.084,36.404C85.084,38.59 84.661,40.751 83.815,42.759Z" style="fill:white;fill-rule:nonzero;"/>
    </g>
    <g transform="matrix(1,0,0,1,-8.16327e-06,0.000317523)">
        <path d="M44.907,12.522C44.729,12.166 44.35,11.988 43.771,11.988L36.949,11.988C36.37,11.988 35.768,12.166 35.145,12.522C34.565,12.834 34.142,13.235 33.875,13.725L32.939,15.329C32.628,15.863 32.293,16.398 31.937,16.932L30.333,19.609C29.843,20.5 29.331,21.394 28.796,22.285L25.586,27.7C25.229,28.28 24.873,28.836 24.516,29.371L23.581,30.975C23.269,31.465 22.89,31.71 22.445,31.71C22.044,31.71 21.71,31.465 21.443,30.975L18.9,26.695C18.054,25.269 17.207,23.818 16.358,22.348C15.467,20.878 14.598,19.427 13.748,18.002L11.206,13.722C10.939,13.232 10.493,12.831 9.869,12.519C9.29,12.163 8.711,11.984 8.132,11.984L1.3,11.984C0.721,11.984 0.32,12.163 0.097,12.519C-0.081,12.831 -0.014,13.232 0.298,13.722C1.59,15.997 2.929,18.247 4.31,20.477C5.691,22.663 7.12,24.891 8.59,27.166C10.016,29.397 11.4,31.624 12.736,33.855C14.117,36.041 15.457,38.268 16.749,40.543C17.061,41.033 17.306,41.657 17.484,42.417C17.707,43.175 17.818,43.843 17.818,44.425L17.818,58.805C17.818,59.384 17.996,59.874 18.353,60.275C18.754,60.676 19.244,60.876 19.823,60.876L25.105,60.876C25.684,60.876 26.174,60.676 26.575,60.275C26.976,59.874 27.177,59.384 27.177,58.805L27.177,44.425C27.177,43.846 27.266,43.178 27.444,42.417C27.622,41.657 27.867,41.036 28.179,40.543C28.669,39.697 29.181,38.828 29.716,37.934C30.295,37.043 30.897,36.104 31.52,35.124C32.322,33.832 33.124,32.515 33.929,31.178C34.775,29.797 35.647,28.413 36.538,27.032C37.385,25.651 38.209,24.289 39.014,22.953C39.86,21.616 40.685,20.299 41.49,19.007C42.113,18.027 42.692,17.111 43.23,16.264C43.765,15.373 44.277,14.527 44.767,13.722C45.034,13.232 45.079,12.831 44.901,12.519L44.907,12.522Z" style="fill:white;fill-rule:nonzero;"/>
    </g>
    <g transform="matrix(1,0,0,1,-8.16327e-06,0.000317523)">
        <path d="M397.284,13C396.883,12.599 396.393,12.398 395.813,12.398L390.595,12.398C390.016,12.398 389.526,12.599 389.125,13C388.724,13.401 388.523,13.891 388.523,14.47L388.523,31.526C388.523,32.105 388.323,32.595 387.922,32.996C387.521,33.397 387.031,33.597 386.452,33.597L366.456,33.597C365.877,33.597 365.386,33.397 364.986,32.996C364.585,32.595 364.384,32.105 364.384,31.526L364.384,14.47C364.384,13.891 364.184,13.401 363.783,13C363.382,12.599 362.892,12.398 362.313,12.398L357.097,12.398C356.518,12.398 356.028,12.599 355.627,13C355.226,13.401 355.026,13.891 355.026,14.47L355.026,59.279C355.026,59.859 355.226,60.349 355.627,60.75C356.028,61.151 356.518,61.351 357.097,61.351L362.313,61.351C362.892,61.351 363.382,61.151 363.783,60.75C364.184,60.349 364.384,59.859 364.384,59.279L364.384,43.964C364.384,43.385 364.585,42.895 364.986,42.494C365.386,42.093 365.877,41.893 366.456,41.893L386.452,41.893C387.031,41.893 387.521,42.093 387.922,42.494C388.323,42.895 388.523,43.385 388.523,43.964L388.523,59.279C388.523,59.859 388.724,60.349 389.125,60.75C389.526,61.151 390.016,61.351 390.595,61.351L395.813,61.351C396.393,61.351 396.883,61.151 397.284,60.75C397.685,60.349 397.885,59.859 397.885,59.279L397.885,14.473C397.885,13.894 397.685,13.404 397.284,13.003L397.284,13Z" style="fill:white;fill-rule:nonzero;"/>
    </g>
    <g transform="matrix(1,0,0,1,-8.16327e-06,0.000317523)">
        <path d="M316.621,25.312C318.002,23.797 319.676,22.569 321.636,21.633C323.644,20.742 325.738,20.297 327.924,20.297C329.305,20.297 330.645,20.497 331.937,20.898C332.56,21.121 333.184,21.366 333.811,21.633C334.435,21.9 335.036,22.212 335.618,22.569C336.197,22.925 336.732,23.304 337.222,23.705C337.757,24.106 338.269,24.551 338.759,25.041C338.982,25.264 339.205,25.509 339.427,25.776L340.096,26.444C340.452,26.89 340.92,27.202 341.502,27.38C342.126,27.514 342.683,27.469 343.173,27.246L348.124,25.238C348.658,25.016 349.015,24.681 349.193,24.236C349.371,23.746 349.304,23.256 348.993,22.766C348.191,21.563 347.233,20.379 346.116,19.221C345.359,18.464 344.535,17.751 343.64,17.08C342.794,16.367 341.878,15.721 340.897,15.139C339.026,14.025 336.974,13.153 334.743,12.529C332.468,11.906 330.196,11.594 327.921,11.594C324.443,11.594 321.165,12.262 318.088,13.602C315.056,14.938 312.357,16.745 309.996,19.017C307.721,21.382 305.917,24.077 304.577,27.109C303.241,30.186 302.569,33.464 302.569,36.942C302.569,40.42 303.238,43.697 304.577,46.774C305.914,49.851 307.721,52.528 309.996,54.8C312.316,57.119 315.011,58.946 318.088,60.285C321.165,61.622 324.443,62.293 327.921,62.293C330.196,62.293 332.468,61.981 334.743,61.358C335.857,61.046 336.929,60.667 337.954,60.222C338.979,59.776 339.962,59.264 340.897,58.685C342.905,57.527 344.643,56.165 346.113,54.605C346.647,54.071 347.141,53.514 347.586,52.935C348.076,52.311 348.544,51.687 348.989,51.061C349.301,50.571 349.368,50.081 349.19,49.591C349.012,49.1 348.655,48.744 348.121,48.521L343.169,46.513C342.679,46.291 342.122,46.268 341.499,46.447C340.92,46.625 340.452,46.937 340.092,47.382C339.87,47.605 339.647,47.85 339.424,48.117L338.756,48.785C338.266,49.276 337.754,49.743 337.219,50.189C336.729,50.59 336.194,50.968 335.615,51.325C335.036,51.681 334.435,51.993 333.808,52.26C333.184,52.528 332.56,52.773 331.934,52.995C330.642,53.396 329.302,53.597 327.921,53.597C325.646,53.597 323.552,53.129 321.633,52.193C319.67,51.347 317.999,50.141 316.618,48.582C315.193,47.023 314.053,45.26 313.207,43.3C312.361,41.336 311.937,39.22 311.937,36.945C311.937,34.67 312.361,32.598 313.207,30.591C314.053,28.627 315.193,26.868 316.618,25.308L316.621,25.312Z" style="fill:white;fill-rule:nonzero;"/>
    </g>
    <g transform="matrix(1,0,0,1,-8.16327e-06,0.000317523)">
        <path d="M281.116,13.2C280.848,12.666 280.403,12.398 279.779,12.398C279.156,12.398 278.71,12.666 278.443,13.2L255.236,59.55C255.013,60.04 254.991,60.463 255.169,60.82C255.392,61.176 255.793,61.354 256.372,61.354L262.459,61.354C263.038,61.354 263.595,61.176 264.133,60.82C264.712,60.463 265.135,60.018 265.403,59.483L267.344,55.537C267.566,55.003 267.967,54.557 268.547,54.201C269.126,53.845 269.705,53.666 270.284,53.666L289.278,53.666C289.857,53.666 290.414,53.845 290.948,54.201C291.527,54.557 291.951,54.981 292.221,55.471L294.229,59.483C294.452,60.018 294.853,60.463 295.432,60.82C296.011,61.176 296.59,61.354 297.169,61.354L303.257,61.354C303.836,61.354 304.214,61.176 304.393,60.82C304.615,60.463 304.593,60.04 304.326,59.55L281.116,13.2ZM285.867,44.97C285.688,45.326 285.31,45.504 284.731,45.504L274.831,45.504C274.252,45.504 273.851,45.326 273.628,44.97C273.406,44.613 273.406,44.168 273.628,43.633L278.914,32.598C279.136,32.063 279.426,31.796 279.782,31.796C280.139,31.796 280.428,32.063 280.651,32.598L285.867,43.633C286.089,44.123 286.089,44.569 285.867,44.97Z" style="fill:white;fill-rule:nonzero;"/>
    </g>
    <g transform="matrix(1,0,0,1,-8.16327e-06,0.000317523)">
        <path d="M255.312,44.23C256.146,42.709 256.824,41.144 257.384,39.441C261.495,26.981 257.285,13.492 246.908,5.874C239.917,0.741 231.431,-1.114 223.014,0.649C214.715,2.39 207.524,7.592 203.273,14.949C203.104,15.242 203.18,15.595 203.457,15.789C203.734,15.983 204.097,15.939 204.316,15.681C213.398,4.986 228.821,2.329 240.993,9.365C252.881,16.235 258.364,30.665 254.033,43.67C253.915,44.024 254.078,44.386 254.418,44.536C254.513,44.577 254.609,44.596 254.704,44.596C254.949,44.596 255.182,44.463 255.309,44.23L255.312,44.23Z" style="fill:white;fill-rule:nonzero;"/>
    </g>
    <g transform="matrix(1,0,0,1,-8.16327e-06,0.000317523)">
        <path d="M250.384,39.104L246.387,40.707C246.18,40.79 245.948,40.669 245.897,40.453L243.533,30.608C243.513,30.534 243.52,30.458 243.548,30.388L246.699,22.544C246.743,22.43 246.731,22.303 246.661,22.201C244.812,19.486 242.451,17.148 239.714,15.327C239.635,15.273 239.536,15.254 239.444,15.273L230.356,16.922C230.279,16.934 230.203,16.922 230.133,16.89L219.715,11.865C219.638,11.827 219.549,11.818 219.463,11.84C217.21,12.4 215.078,13.266 213.112,14.382C213.001,14.446 212.931,14.567 212.927,14.697L212.8,22.245C212.8,22.331 212.768,22.411 212.714,22.474L206.137,30.204C206.022,30.34 205.825,30.372 205.672,30.28L202.108,28.145C201.911,28.027 201.65,28.119 201.574,28.339C200.705,30.897 200.237,33.637 200.237,36.491C200.237,40.434 201.135,44.166 202.738,47.495C202.891,47.81 203.353,47.752 203.426,47.412L204.673,41.535C204.718,41.318 204.944,41.191 205.154,41.267L214.168,44.513C214.283,44.555 214.369,44.647 214.398,44.765L216.829,54.142C216.876,54.323 216.778,54.511 216.603,54.575L211.098,56.621C210.821,56.723 210.776,57.092 211.018,57.264C215.155,60.182 220.202,61.897 225.649,61.897C226.935,61.897 228.201,61.801 229.436,61.613C229.71,61.572 229.837,61.248 229.665,61.028L225.312,55.456C225.197,55.307 225.213,55.097 225.35,54.966L233.535,47.247C233.611,47.173 233.713,47.138 233.818,47.148L241.159,47.819C241.343,47.835 241.487,47.991 241.49,48.179L241.585,55.504C241.588,55.816 241.954,55.975 242.19,55.774C246.909,51.727 250.126,45.977 250.886,39.479C250.918,39.206 250.641,38.999 250.387,39.101L250.384,39.104ZM237.763,31.495L232.278,40.949C232.201,41.083 232.045,41.153 231.893,41.118L220.864,38.601C220.717,38.566 220.609,38.445 220.59,38.299L219.333,28.068C219.314,27.912 219.4,27.763 219.543,27.699L229.754,23.158C229.891,23.098 230.05,23.13 230.155,23.238L237.709,31.072C237.821,31.187 237.843,31.359 237.763,31.495Z" style="fill:white;fill-rule:nonzero;"/>
    </g>
</svg>
