<?xml version="1.0" encoding="UTF-8" standalone="no"?>
<!DOCTYPE svg PUBLIC "-//W3C//DTD SVG 1.1//EN" "http://www.w3.org/Graphics/SVG/1.1/DTD/svg11.dtd">
<svg width="100%" height="100%" viewBox="0 0 745 900" version="1.1" xmlns="http://www.w3.org/2000/svg" xmlns:xlink="http://www.w3.org/1999/xlink" xml:space="preserve" xmlns:serif="http://www.serif.com/" style="fill-rule:evenodd;clip-rule:evenodd;stroke-linejoin:round;stroke-miterlimit:2;">
    <g id="background" transform="matrix(1,0,0,1,-225.415,5.24708e-14)">
        <rect x="409.015" y="84.369" width="375.323" height="732.646" style="fill:rgb(59,156,204);"/>
    </g>
    <path id="areas" d="M420.185,715.846L327.508,715.846C280.615,715.846 242.4,760.523 241.754,815.723L505.938,815.723C505.2,760.523 466.985,715.846 420.185,715.846ZM302.492,451.385C303.877,489.323 335.077,519.785 373.292,519.785C411.508,519.785 442.8,489.415 444.092,451.385L302.492,451.385ZM373.385,378.092C334.338,378.092 302.585,409.846 302.585,448.892L444.185,448.892C444.185,409.846 412.431,378.092 373.385,378.092ZM326.585,186.923L419.077,186.923C466.338,186.923 504.831,141.508 504.831,85.662L240.831,85.662C240.831,141.508 279.231,186.923 326.585,186.923Z" style="fill:rgb(39,126,160);fill-rule:nonzero;"/>
    <g id="border" transform="matrix(1,0,0,1,-225.415,5.24025e-14)">
        <path d="M376.338,50.308L376.338,850.523L819.231,850.523L819.231,50.308L376.338,50.308ZM784.338,817.015L409.015,817.015L409.015,84.369L784.338,84.369L784.338,817.015Z" style="fill:rgb(255,159,72);fill-rule:nonzero;"/>
    </g>
    <path id="field_lines" d="M373.754,719.169C376.246,719.169 378.185,717.138 378.185,714.738C378.185,712.338 376.154,710.308 373.754,710.308C371.354,710.308 369.415,712.338 369.323,714.738C369.231,717.138 371.354,719.169 373.754,719.169ZM373.385,619.569C375.015,619.569 376.338,620.893 376.338,622.523C376.338,624.153 375.015,625.477 373.385,625.477C371.754,625.477 370.431,624.153 370.431,622.523C370.431,620.893 371.754,619.569 373.385,619.569ZM373.754,454.431C376.246,454.431 378.185,452.4 378.185,450C378.185,447.6 376.154,445.569 373.754,445.569C371.354,445.569 369.415,447.6 369.323,450C369.231,452.492 371.354,454.431 373.754,454.431ZM373.754,284.585C375.323,284.585 376.708,283.2 376.708,281.631C376.708,280.062 375.323,278.677 373.754,278.677C372.185,278.677 370.892,280.062 370.8,281.631C370.8,283.2 372.185,284.585 373.754,284.585ZM373.754,192.738C376.246,192.738 378.185,190.708 378.185,188.308C378.185,185.908 376.154,183.877 373.754,183.877C371.354,183.877 369.415,185.908 369.323,188.308C369.231,190.615 371.354,192.738 373.754,192.738ZM149.723,49.015L149.723,851.723L595.108,851.723L595.108,49.015L149.723,49.015ZM592.708,849.231L152.215,849.231L152.215,51.6L592.708,51.6L592.708,849.231ZM409.569,83.077L409.569,71.169L336.277,71.169L336.277,83.077L182.308,83.077L182.308,818.215L336.646,818.215L336.646,831.415L407.169,831.415L407.169,818.215L560.123,818.215L560.123,83.077L409.569,83.077ZM404.677,828.923L339.046,828.923L339.046,818.215L404.677,818.215L404.677,828.923ZM184.892,815.908L184.892,451.477L300,451.477C301.385,490.708 333.692,522.277 373.292,522.277C412.892,522.277 445.2,490.8 446.585,451.477L557.631,451.477L557.631,815.815L508.431,815.815C507.785,761.077 470.769,716.4 424.708,713.631L424.708,713.538L322.615,713.538L322.615,713.723C276.646,716.769 240,761.262 239.354,815.908L184.892,815.908ZM241.754,815.723C242.4,760.523 280.615,715.846 327.508,715.846L420.185,715.846C467.077,715.846 505.292,760.523 505.938,815.723L241.754,815.723ZM444.185,451.385C442.8,489.323 411.6,519.785 373.385,519.785C335.169,519.785 303.877,489.415 302.585,451.385L444.185,451.385ZM184.892,85.662L238.338,85.662C238.154,141.138 275.354,186.554 321.969,189.323L321.969,189.508L424.062,189.508L424.062,189.323C470.4,186.277 507.323,140.954 507.323,85.662L557.723,85.662L557.723,448.985L446.677,448.985C446.677,408.554 413.815,375.6 373.292,375.6C332.862,375.6 299.908,408.462 299.908,448.985L184.892,448.985L184.892,85.662ZM302.492,448.892C302.492,409.846 334.246,378.092 373.292,378.092C412.338,378.092 444.092,409.846 444.092,448.892L302.492,448.892ZM504.923,85.662C504.923,141.508 466.431,186.923 419.169,186.923L326.585,186.923C279.323,186.923 240.831,141.508 240.831,85.662L504.923,85.662ZM338.769,73.754L407.169,73.754L407.169,82.985L338.769,82.985L338.769,73.754Z" style="fill:white;fill-rule:nonzero;"/>
</svg>
