<svg version="1.1" viewBox="-424 -84 150 368" xmlns="http://www.w3.org/2000/svg">
            <path class="skin" d="m-321.1 160.6c3.1 0 6.5 0.4 9.6-0.1 2.5-0.4 4.8-1.2 7-2.3 0.7-0.4 1.4-0.8 2-1.3 0.1 2.1-0.3 4.3-0.3 6.4s0 4.1 0.4 6.1c0.7 4.1 2 8.6 1.1 12.8 0.4 1.7 1.1 3.3 1.6 4.9-0.4 1.1-2 2.2-3.1 3-1.6 1.2-3.8 2-5.8 2.5-2.3 0.5-4.9 1-7.3 0.9-1.3 0-4.9-0.3-5.1-1.9-0.9-4.4-4.1-7.6-5.2-12-0.9-3.3-0.7-6.8-1.2-10.1-0.3-1.7-0.9-3.3-1.4-5-0.3-1.1-1.2-2.5-1.3-3.7h1c2.6-0.2 5.3-0.2 8-0.2z"></path>
            <path class="shoes" d="m-277 276.3c0.6 0.4 2.1 1.4 1.9 2.2-0.1 0.9-2.6 1.7-3.4 2-6 2-12.3 2.3-18.1-0.3-2.3-1-4.9-1.9-7.4-2-1.4 0-2.1 0.1-3.1-0.9-0.8-0.8-1.4-2-1.8-3-0.8-2.1-0.5-5.2-0.2-7.4 0.3-1.8 1.2-3.3 1.4-5.1 0.2 0.9 1.8 3.9 2.7 3.8 1.6-0.1 0.6-3.9 1.4-5 1.5-2 4.3-2.7 6.7-2.8 1.4 0 2.2 0.2 3.3 1.1 0.2 0.1 0.4 0.4 0.7 0.6l0.3 0.3 0.3 0.3 0.3 0.3c0.1 0.1 0.2 0.2 0.2 0.3l0.2 0.2 0.6-0.5c3.1 3.5 5.6 7.2 8.2 11.2 1.4 2.4 3.8 3.2 5.8 4.7z"></path>
            <path class="skin" d="m-314.2 129.1c-0.5 0.5-1 0.9-1.7 0.7-1.3-0.4-0.9-1.9-0.7-2.9 0.4-1.5 1.3-2.4 2.1-3.7 0.6-1 0.8-2 1-3.1 0.3-1.4 0.3-2.8 0.5-4.1 0.1-0.7 0.2-1.3 0.4-2 0.4-1 2.3-5.4-0.1-5.6-0.1 2.5 0 5.1-0.4 7.6-0.1 0.8-0.3 1.6-0.5 2.4-0.4 1.4-3.8 5.8-4.3 2.5v-0.6c0-2 1.6-4.7 1.9-6.6 0.5-3.2-0.1-6.7 1.3-9.8 1-2.1 3-2.9 4.3-4.7 0.1-0.2 0.1-0.4 0.2-0.6v-0.2c1.8-6.1 1.1-12.3 0.2-18.6-0.4-3-0.7-6-1.2-9-0.1-0.6-0.2-1.1-0.3-1.7s-0.2-1.1-0.3-1.6c-0.1-0.8 0.2-2.1-0.3-2.7-0.1-1.6-0.1-4.2-0.2-4.8-0.2-2.7-0.1-5.3-1-7.9-0.8-2.6-1-5-1.1-7.7-0.1-3.1-0.7-6.1-0.7-9.2l-0.1-0.2c3.3-2.5 7.8-3.5 11.9-4.3 2.1-0.4 4.3 0.2 6.3 0h0.2v0.1c0.1 3-0.6 6-0.6 9s0.8 5.5 1.4 8.3c1.8 10 1 20.1-0.5 30-0.8 5.2-1.1 10.6-1.3 15.8-0.1 1.3 0.1 5.6-0.5 7.5-0.6 3.2-0.4 6.8-0.2 10 0.1 2.3 1 4.6-0.4 6.7-0.8 1.3-1.2 2.1-1.6 3.5-0.3 1.1-1.3 1.9-2.3 2.5-0.1 0.1-0.3 0.2-0.4 0.2-1 0.5-1.8 1-2.7 1.8-0.8 0.7-1.8 1.8-2.8 2.2-1.6 0.8-4.1-0.1-5.2 0.9l-0.3-0.1z"></path>
            <path class="skin" d="m-332.3-48.2c-0.9 1.1-1.8 2.4-3.3 2 0-0.2-0.2-0.2-0.3-0.4l-0.4-0.1v-0.2c0.3-1.4 0.6-3 0.6-4.5 0.6-0.7 0.6-2.2 0.8-3.2l0.3 0.1c0.2-1 1.4-2.2 2.6-2.8 1.4-0.7 2.9-0.5 2.9 2.1 0 2.5-1.6 5.1-3.2 7z"></path>
            <path class="skin" d="m-337.3-41.6c0.6 2.6 0.5 5.6 1.8 8.1 0.1 0.2 0.3 0.5 0.5 0.9 0.7 1.2 1.7 2.8 2.4 2.8l0.4 0.2c-0.5 1.3-0.7 2.8-1.2 4.1-0.7 2-3 3.4-4.4 5-3.3 3.8-6.6 7.6-9.3 11.7-1-1.7-2.2-3.6-3.5-5-1.7-1.8-3.9-3.1-5.8-4.7-1.7-1.5-3.3-3.2-4-5.3-0.5-1.4-0.9-3-1.1-4.5-0.1-0.6 0-1.2-0.3-1.7l0.1-0.1c0.5-0.8 1.1-1.5 1.4-2.4 0.2-0.7 0.2-1.4 0.2-2.1 1.1 1.6 2.4 3.7 4.2 4.6 1.6 0.8 3.3 0.7 5.1 0.7 1.1 0 1.7-0.3 2.7-0.6 1.1-0.3 1.6-0.9 2.6-1.5 1.7-1.1 3.3-3.1 4.6-4.6 0.6-0.7 0.9-1.6 1.6-2.2 0.8-0.7 0.9-1.2 1.4-2.2 0.3-0.5 0.5-0.8 0.6-1.2z"></path>
            <path class="skin" d="m-341.5-69.6c1.2 0.4 2.8 3.1 3.3 4.3 0.7 1.7 0.5 3.6 1 5.3 0.5 1.5 0.4 2.8 0.3 4.4s0.7 3.1 0.6 4.6c0.3 0 0.5-0.2 0.6-0.4 0 1.5-0.4 3.1-0.6 4.5v0.2c-0.2 1-0.4 1.9-0.4 2.9 0 0.8-0.2 1.5-0.5 2.1-0.1 0.4-0.3 0.7-0.5 1.1-0.5 1-0.6 1.5-1.4 2.2-0.7 0.7-1 1.5-1.6 2.2-1.3 1.5-2.9 3.5-4.6 4.6-1 0.6-1.5 1.1-2.6 1.5-1 0.3-1.6 0.7-2.7 0.6-1.8 0-3.5 0-5.1-0.7-1.8-0.9-3.1-2.9-4.2-4.6v-0.1c-1.2-1.7-2.7-3.1-3.6-5-0.8-1.6-0.7-2.8-0.9-4.5-0.1-1.3-0.3-2.7-0.5-4.1-0.1-0.5-0.2-1.1-0.2-1.6-0.3-2.3-0.2-4.7-0.1-7v-0.9c0-1.6 0-3.1 0.3-4.7 0-0.1 0.1-0.2 0.1-0.4 0.3-1.1 1.1-3.5 0.8-4.6l-0.1-0.1c0.6-0.9 1.4-1.6 2.8-1.6 1.6 0.1 3 1 4.6 1.2 1 0.1 2 0.4 3.1 0.3 1.4-0.1 2.6-0.8 3.9-1.1 1.7-0.4 3.3-0.9 5.1-1.1 0.4 0.1 2.4-0.2 3.1 0.5z"></path>
            <path class="hair" d="m-345.3-83c1.9 0.6 3.7 1.6 5.4 2.4 1.6 0.8 3.3 1.6 4.6 2.8 0.6 0.5 1.2 1.1 1.8 1.6 0.8 0.8 0.9 1.6 1.2 2.5 0.7 2 1.5 3.9 1.9 6 0.5 2.5-0.6 4.4-1.2 6.6-0.2 0.7-0.3 1.2-0.4 1.9v1c0 0.2 0 0.5-0.1 0.5l0.1 0.3c-1.2 0.6-2.4 1.9-2.6 2.8h-0.3c-0.2 1-0.3 2.5-0.8 3.2-0.2 0.2-0.4 0.3-0.6 0.4 0.1-1.5-0.7-3-0.6-4.6s0.2-2.8-0.3-4.4c-0.5-1.7-0.4-3.6-1-5.3-0.5-1.2-2.1-3.9-3.3-4.3-0.7-0.7-2.7-0.4-3.5-0.3-1.8 0.3-3.4 0.8-5.1 1.1-1.3 0.3-2.5 1-3.9 1.1-1.1 0.1-2-0.2-3.1-0.3-1.6-0.2-2.9-1.2-4.6-1.2-1.4 0-2.1 0.7-2.8 1.6l0.1 0.1c0.4 1.1-0.4 3.5-0.8 4.6 0 0.1-0.1 0.2-0.1 0.4l-0.7-0.2c-0.5-2.3-2.1-4.1-2-6.7s1.5-5.1 3.3-6.9c1.1-1.1 2.4-1.9 3.7-2.6 1.4-0.8 2.5-1.6 4.1-2.2 4-1.5 7.5-3.2 11.6-1.9z"></path>
            <path class="skin" d="m-367.8-58.3c0.7-0.9 1.7-0.1 2.3 0.4h0.1v1c-0.1 2.3-0.2 4.7 0.1 7 0.1 0.5 0.1 1.1 0.2 1.6l-0.4 0.1c-1.6 0.3-2.5-4.6-2.5-5.7-0.1-1.1-0.5-3.5 0.2-4.4z"></path>
            <path class="skin" d="m-390.8 162.9c2.7 1.3 5.9 1.8 8.8 2.5 3.4 0.7 6.7 1.8 10.2 1.1 1.3-0.2 2.6-0.5 4-0.7-0.1 1.1-0.6 2-0.8 3.1-0.3 1.3-0.4 2.6-0.8 4-0.6 2.1-1.1 4.3-1.6 6.4s-1 4.4-1.8 6.5c-0.4 1.1-2.2 5.2-3.2 5.3 0.1-0.1 0.2-0.3 0.3-0.3-2.8 1.8-7.8 1.3-11 0.9-2.4-0.3-4.6-0.2-6.7-1.6-1.6-1.1-3.3-2.6-3.9-4.4 1.2-3.9 2.6-7.8 3.6-11.8 1-3.8 1-7.9 1-11.9l0.1-0.1c0.5 0.3 1.1 0.6 1.8 1z"></path>
            <path class="shoes" d="m-391.4 259.7c0 2.1 1.1 3.7 1.4 5.7 0.3 2.2 0.5 5.3-0.2 7.4-0.3 1-0.9 2.2-1.7 3-1 1-1.7 0.8-3 0.9-2.5 0.1-4.9 1-7.2 2-5.7 2.5-11.7 2.2-17.5 0.2-0.8-0.2-3.1-1.1-3.3-2-0.1-0.8 1.3-1.8 1.8-2.2 1.9-1.5 4.3-2.3 5.7-4.5 2.6-4.1 5.1-7.9 8.2-11.5 0 0.1-0.1 0.2-0.1 0.3 0.4-0.6 1.6-1.8 2.2-2.4 1-0.9 1.8-1.2 3.2-1.1 2.4 0.1 5.1 0.8 6.5 2.8 0.8 1-0.2 4.9 1.4 5 0.8 0 2.2-2.4 2.6-3.6z"></path>
            <path class="skin" d="m-386.8 126.5c-1.6 0.1-3.1-0.4-4.2-1.4l-0.1 0.1c-1.1 0-2.2-0.5-3.1-1.2-0.4-0.3-0.8-0.7-1.1-1l-0.2 0.2v-0.1c-2.7 0-3.5-3.4-4.5-5.3-0.6-1.1-1.1-2.2-1.9-3.2-0.9-1.2-0.9-1.4-0.7-2.9 0.3-3.2 0.6-6.4 0.8-9.6 0.1-1.7-0.1-3.3-0.4-4.9-0.1-0.7-0.1-2-0.3-2.9 0-2-0.3-3.9-0.3-6 0.1-2.8 0.2-5.7 0.3-8.5 0.1-1.7-0.1-3.5-0.1-5.2 0-2 0.4-4 0.5-6 0.3-6.4-0.3-12.6 1.7-18.7 0.9-2.8 2.2-5.5 2.3-8.4 0.2-3.6-0.2-7.1-0.2-10.7 0.5 0 1.1 0.1 1.6 0.2 2.8 0.4 5.4 0.4 8.1 1.1 2.1 0.6 5.1 0.7 7.2 1.8 0 3.3-0.9 5.9-2 9-1 2.9-0.3 5.9-0.1 9 0.2 4.2-0.3 8.4-1 12.5-0.7 4-2 7.8-3.2 11.7-0.2 0.6-0.3 1.1-0.5 1.7-0.9 3.4-1.5 6.9-2.1 10.4-0.3 1.6-1.4 4.2-0.9 5.8-0.2 1.6 1.5 4.8 2.5 5.9 0.2 0.3 0.4 0.5 0.7 0.8 1.3 1.5 2.5 2.9 3.2 4.9 1 2.8 0.9 5.4 1 8.3 0.1 1.3 0.3 2 1 3 0.4 0.6 1.3 1.9 0.5 2.6-1 0.7-2.7-0.7-3-1.3-0.7-1.1-1-2.5-1.3-3.8-0.4-1.7-0.2-4.9-1.8-5.9 0 0.8-0.1 2.1-0.2 2.6-0.1 0.9-0.2 1.8-0.1 2.7 0.2 2.1 1.1 3.9 2.1 5.7 0.9 1.6 1.6 3.3 2.3 5 0.3 0.7 0.8 1.3 1 2 0.1 0.5-0.2 2.2-0.6 1.9-0.5 1.1-2.2-1.3-2.9-1.9 0.1 0 0 0 0 0z"></path>
            <path class="socks" d="m-315.8 193.3c2.4 0.1 5-0.4 7.3-0.9 2-0.4 4.2-1.2 5.8-2.5 1-0.8 2.6-1.9 3.1-3 0.2 0.7 0.5 1.4 0.6 2.2 0.6 2.9 2 5.5 3.2 8.3 1.8 4.4 3 9.6 3.2 14.3 0.2 4-0.3 7.9-0.3 11.8 0 6.9 0.2 13.7 0.6 20.5 0.3 5.4 1.5 10.8 1.5 16.2l-0.3 0.3 0.1 0.1-0.6 0.5c-0.1-0.1-0.1-0.2-0.2-0.2-0.1-0.1-0.2-0.2-0.2-0.3l-0.3-0.3-0.3-0.3-0.3-0.3c-0.3-0.2-0.5-0.5-0.7-0.6-1-0.9-1.9-1.2-3.3-1.1-2.4 0.1-5.2 0.8-6.7 2.8-0.8 1 0.2 4.9-1.4 5-0.9 0-2.5-3-2.7-3.8 0-0.3 0.1-0.6 0-0.9h0.2c-0.2-4.1 0-8.1-0.8-12.2-0.8-3.8-1.5-7.5-2.7-11.2-1.3-4.1-2.6-8.3-3.8-12.4-1.1-4.1-3.2-7.8-4.1-11.9-0.9-4.2-1.6-8.2-1.9-12.6-0.1-1.4-0.1-2.8-0.1-4.3-0.1-1.1-0.4-2.9-0.1-3.9l0.1-0.5c0-0.2-0.1-0.5-0.1-0.7 0.3 1.6 3.9 1.9 5.2 1.9z" style="fill: rgb(255, 0, 0);"></path>
            <path class="shorts" d="m-326 98.6c3.9 0 7.7 1.1 11.6 0.9 1.4-0.1 2.1-0.7 3.3-1.2 0 0 0.1 0 0.1-0.1l0.8 0.2v0.2c-0.1 0.2-0.1 0.4-0.2 0.6-1.2 1.9-3.3 2.6-4.3 4.7-1.4 3.1-0.8 6.5-1.3 9.8-0.3 1.9-1.9 4.6-1.9 6.6l-1.9-0.1c-3.8-5.4-6.9-11.3-10.4-17-0.5-0.8-1.6-3.8-2.6-4 2.2-0.4 4.5-0.6 6.8-0.6z" style="fill: rgb(0, 0, 0);"></path>
            <path class="base_tshirt" d="m-315.6 50.3c0.3 1.4 0.4 3.1 0.2 4.5-0.1 0.9-0.6 1.8-0.3 2.6l-0.3 0.1c0.6 0.8 1.1 1.1 1.5 2.3 1.1 3.2 2.3 6.2 3 9.4 0.4 1.8 0.6 3.6 0.5 5.5-0.1 2-0.3 4.6-1.4 6.4-0.7 1-1.7 1.9-1.9 3.1-0.3 1.9 2.2 4.1 2.9 5.9 0.8 2.2-1.3 5.8 0.4 7.8 0 0.1-0.1 0.1-0.1 0.1l0.1 0.2c-1.2 0.5-1.9 1.1-3.3 1.2-3.9 0.2-7.7-0.9-11.6-0.9-2.4 0-4.6 0.2-6.8 0.6-1.3 0.2-2.6 0.5-4 0.8-4.5 1-9.1 1.1-13.7 1.5-8.1 0.7-15.7-0.8-23.7-1.8-3.1-0.4-6.3-0.7-9.4-1.4-0.6-0.1-2.4-0.1-3.7-0.4v0.2c-0.3 0-0.2-0.6-0.3 0 1-2.6-0.6-0.4-0.8-0.7-0.9-1.1 0.9-4.4 1.1-6-0.5-1.6 1.2-3.5 1.4-5.1 0.6-3.5 1.7-4.9-0.4-7.1 0.1-0.6-0.5-1-0.3-1.5l0.6-1.5c0.5-1.5 1.4-3 2.2-4.1 1.4-2.3 2.7-4.8 2.8-7.5 0.1-1.9-0.6-3.6-0.6-5.4 0-1.7 0.2-3.6 0.6-5.2 0.3-1.3 0.7-2.6 1.1-3.9-0.1-1.5 0.1-3.2 0.4-4.7 0.3-2.3-0.2-4.6-0.3-6.9-0.1-1.2-0.1-2.4 0-3.6h-0.4c-0.4-0.5-0.9-0.8-1.5-1.1-2.1-1.1-5-1.2-7.2-1.8-2.7-0.7-5.3-0.7-8.1-1.1-0.5-0.1-1.1-0.1-1.6-0.2-1.6-0.1-3.3-0.1-4.7 0.5 1.1-1.3 1.1-3.3 1.1-4.9-0.2-5.5-0.5-11.1 1.3-16.4 0.5-1.4 1-2.7 1.2-4.1 0.3-1.6 0-3.3 0.1-5 0.3-4.9 1.2-10.6 3.9-14.8 0.9-1.4 2.4-3.9 4.2-4.5l0.1 0.3c5.2 0 10.2-2.4 14.5-5.2 4.1-2.5 8.5-5.1 13-6.8 0.6-0.2 1.2-0.3 1.6-0.9v0.8h0.2c0 0.1 0.1 0.1 0.1 0.2 0.2 0.5 0.2 1.1 0.3 1.7 0.2 1.5 0.6 3.1 1.1 4.5 0.8 2.1 2.3 3.9 4 5.3 1.9 1.6 4 2.9 5.8 4.7 1.3 1.4 2.5 3.3 3.5 5 2.8-4.1 6.1-7.9 9.3-11.7 1.4-1.6 3.7-3 4.4-5 0.4-1.2 0.6-2.8 1.2-4.1l-0.4-0.2c-0.7-0.1-1.7-1.7-2.4-2.8l0.3-0.2c0.9 0.6 1.9-0.1 2.9 0 1.1 0.1 2.2 0.5 3 1.3 1.2 1.1 2.3 3.3 3.7 4l0.9 0.6c1.3 0.7 2.2 1.4 3.5 2.3 2.3 1.6 4.6 2.8 7.2 3.7 3.8 1.4 8.2 1.9 11.5 4.2 3.7 2.6 4.9 6.1 5.5 10.4 0.5 3.9 1 7.9 1 11.7 0 2.4 0.5 4.9 0.9 7.3 0.4 2.3 0.2 4.7 0.7 7 0.4 2 0.4 4.2 0.6 6.3 0.1 1.1 0.2 3.1 0.3 4-1.2 0.3-2.4 0.6-3.6 0.7h-0.2c-2.1 0.2-4.2-0.4-6.3 0-4.1 0.8-8.6 1.8-11.9 4.3-0.6 0.4-1.1 0.9-1.6 1.4h-0.1c0.3 1.9 0.6 3.7 0.7 5.7 0.1 3 0 5.7 0.5 8.4z" style="fill: rgb(255, 0, 0);"></path>
            <path class="shorts" d="m-315.9 129.8c0.7 0.2 1.2-0.1 1.7-0.7l0.2 0.1c1.1-1 3.6-0.1 5.2-0.9 0.9-0.5 2-1.5 2.8-2.2 0.9-0.8 1.7-1.2 2.7-1.8l0.1 0.1c-0.7 2.9 0 6.5 0.3 9.5 0.4 3.3 1.4 6.4 2 9.6 0.5 2.4 0.8 4.9 1.2 7.3 0.2 1.1 1.2 2.3 0.6 3.2-0.4 0.6-1.6 1.2-2.1 1.6s-0.9 0.7-1.4 1.1c-0.6 0.5-1.3 1-2 1.3-2.2 1.1-4.6 1.9-7 2.3-3.1 0.5-6.5 0.1-9.6 0.1h-8-1v-0.1 0.1c-2 0-4 0.2-6-0.1-1.8-0.2-3.3 0.5-5.1 0.4-0.8 0-2.3-0.1-2.7-1-0.2-0.5 0.1-0.9 0.2-1.4 0.1-0.9 0.1-1.7 0-2.6-0.2-5.2-1.3-10.3-1.3-15.5l0.2-0.1s-0.1-0.1-0.1-0.2c-0.6-1.3-1.9-3.4-1.9-4.9l-0.2-0.1c-0.8 2.6-1.4 5.2-2.1 7.7-1.7 6-4.1 12.7-4.1 18.3-0.1 0.4-0.2 0.7-0.2 1.1-1.7 0.3-3.5 1.3-5.2 1.7-3 0.7-6.1 1.2-9.1 1.7-1.3 0.2-2.6 0.5-4 0.7-3.4 0.7-6.8-0.4-10.2-1.1-2.9-0.6-6.1-1.2-8.8-2.5-0.7-0.3-1.4-0.7-2-1.1-1-0.7-1.9-1.6-2.7-2.6-0.7-0.9-1.6-2.2-2.7-2.5-0.6-3.9 0.6-8.7 1.4-12.5 0.7-3.5 1.6-7 2-10.6 0.4-3 0.2-6.6 0.2-9.4l0.4-0.2c0.9 0.7 2.1 1.3 3.1 1.2l0.1-0.1c1.1 1.1 2.6 1.6 4.2 1.4 0.6 0.7 2.3 3 2.7 1.8 0.4 0.3 0.8-1.4 0.6-1.9-0.2-0.7-0.7-1.4-1-2-0.8-1.7-1.4-3.4-2.3-5-1-1.8-1.9-3.6-2.1-5.7-0.1-0.9 0-1.8 0.1-2.7 0.1-0.5 0.2-1.9 0.2-2.6 1.6 1 1.3 4.2 1.8 5.9 0.3 1.3 0.6 2.7 1.3 3.8 0.4 0.6 2 2 3 1.3 0.9-0.6-0.1-2-0.5-2.6-0.7-1.1-1-1.7-1-3-0.1-2.9-0.1-5.6-1-8.3-0.7-1.9-1.9-3.4-3.2-4.9l0.2-0.2c0.2-0.6 0.5-2.1 0.8-2.1v-0.2c1.3 0.2 3.1 0.3 3.7 0.4 3.1 0.7 6.2 1 9.4 1.4 7.9 1 15.6 2.5 23.6 1.8 4.6-0.4 9.1-0.4 13.7-1.5 1.4-0.3 2.6-0.6 3.9-0.8 1 0.2 2.2 3.2 2.6 4 3.4 5.7 6.5 11.6 10.4 17l1.9 0.1v0.6c0.6 3.2 3.9-1.1 4.3-2.5 0.2-0.8 0.4-1.6 0.5-2.4h0.1c-0.2 1.4-0.2 2.8-0.4 4.1-0.2 1.1-0.3 2.1-1 3.1-0.8 1.2-1.7 2.2-2.1 3.7-0.2 1.2-0.5 2.7 0.7 3.1z" style="fill: rgb(0, 0, 0);"></path>
            <path class="socks" d="m-393.5 189.9c2.1 1.4 4.4 1.3 6.7 1.6 3.2 0.5 8.2 1 11-0.9l-0.3 0.3c-0.5 1-0.3 3.6-0.3 4.4 0 2.5-0.5 4.8-0.6 7.3-0.3 4.7-0.1 9.1-1.5 13.7-0.8 2.9-2.4 5.2-3.5 7.9-1.2 2.9-2.4 5.7-3.5 8.6-1.8 4.6-1.3 9.8-2.7 14.6-0.7 2.1-1.4 4.1-1.7 6.4-0.2 1-0.2 2-0.3 3.1-0.2 1-0.7 1.8-1.1 2.7h0.1v0.3c-0.4 1.1-1.8 3.5-2.5 3.5-1.5-0.1-0.6-3.9-1.4-5-1.4-2-4.1-2.7-6.5-2.8-1.4 0-2.2 0.2-3.2 1.1-0.5 0.5-1.8 1.7-2.2 2.4 0-0.1 0-0.2 0.1-0.3 0.4-1.5 1.3-2.9 1.5-4.5 0.2-1.5 0.1-3 0.4-4.4 0.3-1.9 0.4-3.9 0.4-5.8h0.2c-0.3-7.6-1.6-15.1-1.6-22.7 0-7 0.4-14 2.9-20.7 1-2.6 1.8-5.5 3-8 1.1-2.2 2.1-4.5 2.8-6.8 0-0.1 0-0.1 0.1-0.2 0.3 1.6 2.1 3.1 3.7 4.2z" style="fill: rgb(255, 0, 0);"></path>
            <path class="h_stripe" d="m-382.6 73.8c2.8 1.5 5.7 2.6 8.7 3.7 2.6 0.9 5.1 1.9 7.8 2.4 6.8 1.3 13.9-0.1 20.8-0.6 11-0.8 22.3 0.9 33-1.5 0.9 0.7 0.4 2.2-0.4 3s-1.8 1.6-2.1 2.7c-0.2 0.8 0.1 1.6 0.4 2.3l2.1 5.7c-16.7-2.3-33.5 3.9-50.3 2.2-4.6-0.5-9.2-1.6-13.7-2.7-3.4-0.8-6.8-1.6-10.2-2.5 1.5-2.6 2-5.7 1.4-8.6-0.5-2.3-1.4-5.2 0.4-6.8v-0.1c0.9 0.1 1.6 0.4 2.1 0.8z" style="fill: none;"></path>
            <path class="h_stripe" d="m-326.8 49.9c3.6-0.8 7.2-1.8 10.8-1.6-0.6 4.9 0.2 9.9 2.3 14.3-16.5 3.2-33.3 4.7-50 4.5-2 0-4.1-0.1-5.9-0.8-2.9-1.2-5.2-4.2-8.3-4.4-1.1-0.1-2.6 0.1-3.1-0.9-0.2-0.4-0.2-0.8-0.1-1.3 0.3-3.9 0.8-7.7 1.5-11.5l0.4-0.7c4.3-0.7 8.3 2.3 12.4 3.8 3.2 1.1 6.6 1.4 10 1.5 10 0.3 20.2-0.7 30-2.9z" style="fill: none;"></path>
            <path class="h_stripe" d="m-294.9 5.8c-0.4 5-0.2 10.1 0.7 15.1-7.1-0.9-14.2 1.8-20.8 4.5-0.6 0.2-1.3 0.4-1.8 0-0.3-0.2-0.4-0.7-0.4-1-0.2-1.2-0.4-2.4-0.5-3.6v-0.1c6.3-6.6 14.1-11.7 22.8-14.9z" style="fill: none;"></path>
            <path class="h_stripe" d="m-317.8 20.7v0c-0.1 1 0 2 0.1 2.9 0.3 3 1 6.1 0.6 9.1-9.5 0.3-19 0.7-28.5 1-4.3 0.1-8.6 0.3-12.9 0-6.5-0.5-13-2-19.1-4.5-0.5-0.2-1.1-0.5-1.4-0.9s-0.4-1-0.4-1.6c-0.2-2.5-0.3-5.1-0.5-7.7 0.2 0 0.4 0.1 0.5 0.1-0.2-0.4-0.4-0.9-0.6-1.3-0.1-2.2-0.3-4.4-0.4-6.7 7.3 4.5 16 6.2 24.5 7.3 13.5 1.8 27.9 2.2 40.2-3.6-1.3 1.7-1.9 3.8-2.1 5.9z" style="fill: none;"></path>
            <path class="h_stripe" d="m-380 18c0 0.4 0.1 0.8 0.1 1.2-6.8-1.2-13.8-1.5-20.7-1-0.4 0-0.9 0-1.1-0.3-0.2-0.2-0.1-0.6-0.1-0.9 0.5-3.9 2.7-7.6 2.6-11.6 0-0.6-0.1-1.3 0.1-1.9 0.1-0.3 0.3-0.7 0.6-0.9 3.8-0.5 7.6 1.8 10.5 4.5 3.2 3 6 6.8 8 10.9z" style="fill: none;"></path>
            <path class="h_stripe" d="m-306.3-18.4c4.6 1.5 8.2 5.8 8.8 10.7-8.7 6.2-19 9.9-29.5 11.8-5.3 1-10.6 1.5-16 1.1-5-0.3-9.9-1.4-14.8-2.5-7.8-1.7-15.8-3.5-22.6-7.8-2.2-1.4-4.2-2.9-6.5-4-3.1-1.5-6.6-2-10.1-2.5 0.6-3.8 4.2-6.8 8-6.8 1.1 0 2.2 0.3 3.4 0.2 1.1-0.1 2.3-0.7 2.7-1.7v-0.1c2.9 1.2 5.8 2.5 8.7 3.7 4.7 2 9.6 4.1 14.7 4.2 2.3 0.1 4.7-0.3 7 0.2s4.6 2 4.9 4.3c1.3-2.2 2.8-4.5 5.2-5.2 1-0.3 2.1-0.2 3.2-0.2 5.2 0.3 10.4 0.8 15.5 0.3s10.4-2 14.4-5.2c0.4-0.3 0.8-0.6 1.2-0.8 0.6 0 1.2 0.1 1.8 0.3z" style="fill: none;"></path>
            <path class="v_stripe" d="m-317.3 21.6c0.2-0.5 0.8-0.8 1.4-1.1 4.1-1.8 8.2-3.7 11.8-6.3s6.8-6.1 8.5-10.2c0.5 6.6 1 13.1 1.5 19.7-5.9 0.8-11.8 1.6-17.7 2.4-1.8 0.2-3.7 0.5-5.5 0.2v-4.7z" style="fill: none;"></path>
            <path class="v_stripe" d="m-297.2-10.1c0.4 3.9-1.6 7.6-3.7 10.8-4.4 6.6-10.1 12.4-16.6 17 3.7-6.6 7.4-13.1 11-19.7 2.6-4.7 5.2-9.6 5.2-14.9l0.2-0.1c2.1 1.6 3.6 4.2 3.9 6.9z" style="fill: none;"></path>
            <path class="v_stripe" d="m-323.9-25.9c1.1 1.9 3.5 2.9 5.7 3.5 2.6 0.7 5.5 1.3 7.1 3.5 1.6 2.1 1.5 5 1.1 7.6-2 13.2-8.6 25.5-9.7 38.8-0.3 4.4-0.1 8.8 0.2 13.2 0.2 2.7 0.3 5.3 0.5 8 0 0.9 0.1 1.8 0.3 2.6 0.2 0.9 0.6 1.8 1 2.7 0.9 2.8 0.6 6.1-0.8 8.7-0.6 1.1-1.4 2.2-1.3 3.4 0.1 0.9 0.6 1.6 1 2.3 0.8 1.5 0.9 3.1 1.1 4.8 0.8 7.8 1.5 15.5 2.3 23.3 0.1 0.5 0.1 1-0.2 1.4-0.4 0.6-1.2 0.7-1.9 0.7-3 0.1-5.9 0.1-8.9 0.2-0.5 0-1.1 0-1.4-0.4-0.2-0.2-0.2-0.7 0-0.9 0 0.1 0.5 0.2 0.5-0.1 2.2-7.6 1.9-15.6 1.6-23.5l-1.8-42c-0.2-5.9-0.5-11.8 0.1-17.6 0.7-6.8 2.5-13.4 3.7-20.1 1.2-6.6 1.7-13.6-0.2-20.1z" style="fill: none;"></path>
            <path class="v_stripe" d="m-341.1 99.8c-0.2 0.9-0.8 1.6-1.7 1.6-5.4-0.2-10.8-0.3-16.2-0.5-0.8-3.7 1.7-7.3 3-10.9 1.6-4.5 1.2-9.5 1.8-14.3 0.5-4.4 1.8-8.7 2.2-13.2 0.4-4.2-0.1-8.4-0.4-12.6-0.8-10.4-0.9-20.8-1-31.2-0.1-12.4-0.4-25-3.3-37.1 0.1 0 0.1-0.1 0.2-0.1 3.1 1.9 6.3 4.1 8 7.4 0.5 1 0.9 2.1 1.8 2.8 0.3-2.2 2.4-3.7 3.9-5.3 1.9-2 3.2-4.8 5.5-6.1 0.4 6.8-2.2 13.4-3.3 20.2-0.7 4.9-0.6 9.9-0.3 14.8 1.2 21.4 5 43.1 1.2 64.2-0.5 2.6-1 5.1-1 7.7 0 4.5 1.6 9.3-0.3 13.4-0.1-0.1-0.1-0.4-0.1-0.8zv-0.5 0.5z" style="fill: none;"></path>
            <path class="v_stripe" d="m-363.4 45.1c0.2 1.6 0.6 3.2 0.5 4.8-0.1 2-0.8 3.8-1.4 5.7-2.1 7.6-0.8 15.9-3.3 23.4-1 3.1-2.6 5.9-3.8 8.9-1.4 3.7-2.3 7.6-2.4 11.5-4.3-0.6-8.6-1.2-12.9-1.8 0.9-4.8 1.8-9.7 4.1-14.1 2.1-4.1 5.5-7.5 6.9-11.9 1.7-5.2 0.6-10.8 0.8-16.2 0.2-6.9 2.7-13.8 1.6-20.6-0.5-3.5-2-6.8-2.6-10.3-0.5-2.5-0.6-5.1-0.8-7.6-0.8-12.5-2.7-25-5.9-37.2 4.7-2 9.3-4.3 13.7-7-0.7 2.2-0.9 4.6-0.9 7-0.4 19.6 6.4 38.8 6.3 58.5-0.1 2.3-0.2 4.6 0.1 6.9z" style="fill: none;"></path>
            <path class="v_stripe" d="m-388.4-13.3c3.8 8 6.5 16.6 7.8 25.5-1.6-2.9-3.5-5.7-5.3-8.5-0.6-0.9-1.2-1.7-1.9-2.4-0.6-0.5-1.4-0.9-2.2-1.3-2.4-1.2-4.7-2.4-7.1-3.7-0.3-0.2-0.6-0.3-0.8-0.7-0.1-0.3-0.1-0.6-0.1-0.9 0.7-4.8 2.9-9.3 6.2-12.8 1.6 1.3 2.5 3.1 3.4 4.8z" style="fill: none;"></path>
            <path class="v_stripe" d="m-379.6 18.2c0 1.8 0.1 3.6 0.1 5.4-6.4-3.1-13.9-4-20.9-2.5-0.3 0.1-0.6 0.1-0.9 0.1-0.5-0.1-0.9-0.6-1.1-1.1-0.3-0.9-0.1-1.9 0-2.9 0.5-3 1.1-6.1 1.7-9.1 3.6-0.6 7.4 0.8 10.6 2.7 3.3 2 6.3 4.5 9.7 6.3 0.2 0.1 0.5 0.2 0.6 0.5 0.2 0.2 0.2 0.4 0.2 0.6z" style="fill: none;"></path>
            
                    <g fill="none">
                    <path d="m-292.1 260.6c0.1 0.1 0.2 0.2 0.2 0.3-0.1-0.1-0.1-0.2-0.2-0.3z"></path>
                    <path d="m-292.4 260.4l0.3 0.3c-0.1-0.2-0.2-0.3-0.3-0.3z"></path>
                    <path d="m-292.7 260.1l0.3 0.3-0.3-0.3z"></path>
                    <path d="m-292.9 259.8l0.3 0.3-0.3-0.3z"></path>
                    <path d="m-321.1 160.6c3.1 0 6.5 0.4 9.6-0.1 2.5-0.4 4.8-1.2 7-2.3 0.7-0.4 1.4-0.8 2-1.3 0.1 2.1-0.3 4.3-0.3 6.4s0 4.1 0.4 6.1c0.7 4.1 2 8.6 1.1 12.8 0.4 1.7 1.1 3.3 1.6 4.9-0.4 1.1-2 2.2-3.1 3-1.6 1.2-3.8 2-5.8 2.5-2.3 0.5-4.9 1-7.3 0.9-1.3 0-4.9-0.3-5.1-1.9-0.9-4.4-4.1-7.6-5.2-12-0.9-3.3-0.7-6.8-1.2-10.1-0.3-1.7-0.9-3.3-1.4-5-0.3-1.1-1.2-2.5-1.3-3.7h1c2.6-0.2 5.3-0.2 8-0.2z"></path>
                    <path d="m-277 276.3c0.6 0.4 2.1 1.4 1.9 2.2-0.1 0.9-2.6 1.7-3.4 2-6 2-12.3 2.3-18.1-0.3-2.3-1-4.9-1.9-7.4-2-1.4 0-2.1 0.1-3.1-0.9-0.8-0.8-1.4-2-1.8-3-0.8-2.1-0.5-5.2-0.2-7.4 0.3-1.8 1.2-3.3 1.4-5.1 0.2 0.9 1.8 3.9 2.7 3.8 1.6-0.1 0.6-3.9 1.4-5 1.5-2 4.3-2.7 6.7-2.8 1.4 0 2.2 0.2 3.3 1.1 0.2 0.1 0.4 0.4 0.7 0.6l0.3 0.3 0.3 0.3 0.3 0.3c0.1 0.1 0.2 0.2 0.2 0.3l0.2 0.2 0.6-0.5c3.1 3.5 5.6 7.2 8.2 11.2 1.4 2.4 3.8 3.2 5.8 4.7z"></path>
                    <path d="m-314.2 129.1c-0.5 0.5-1 0.9-1.7 0.7-1.3-0.4-0.9-1.9-0.7-2.9 0.4-1.5 1.3-2.4 2.1-3.7 0.6-1 0.8-2 1-3.1 0.3-1.4 0.3-2.8 0.5-4.1 0.1-0.7 0.2-1.3 0.4-2 0.4-1 2.3-5.4-0.1-5.6-0.1 2.5 0 5.1-0.4 7.6-0.1 0.8-0.3 1.6-0.5 2.4-0.4 1.4-3.8 5.8-4.3 2.5v-0.6c0-2 1.6-4.7 1.9-6.6 0.5-3.2-0.1-6.7 1.3-9.8 1-2.1 3-2.9 4.3-4.7 0.1-0.2 0.1-0.4 0.2-0.6v-0.2c1.8-6.1 1.1-12.3 0.2-18.6-0.4-3-0.7-6-1.2-9-0.1-0.6-0.2-1.1-0.3-1.7s-0.2-1.1-0.3-1.6c-0.1-0.8 0.2-2.1-0.3-2.7-0.1-1.6-0.1-4.2-0.2-4.8-0.2-2.7-0.1-5.3-1-7.9-0.8-2.6-1-5-1.1-7.7-0.1-3.1-0.7-6.1-0.7-9.2l-0.1-0.2c3.3-2.5 7.8-3.5 11.9-4.3 2.1-0.4 4.3 0.2 6.3 0h0.2v0.1c0.1 3-0.6 6-0.6 9s0.8 5.5 1.4 8.3c1.8 10 1 20.1-0.5 30-0.8 5.2-1.1 10.6-1.3 15.8-0.1 1.3 0.1 5.6-0.5 7.5-0.6 3.2-0.4 6.8-0.2 10 0.1 2.3 1 4.6-0.4 6.7-0.8 1.3-1.2 2.1-1.6 3.5-0.3 1.1-1.3 1.9-2.3 2.5-0.1 0.1-0.3 0.2-0.4 0.2-1 0.5-1.8 1-2.7 1.8-0.8 0.7-1.8 1.8-2.8 2.2-1.6 0.8-4.1-0.1-5.2 0.9l-0.3-0.1z"></path>
                    <path d="m-315.8 193.3c2.4 0.1 5-0.4 7.3-0.9 2-0.4 4.2-1.2 5.8-2.5 1-0.8 2.6-1.9 3.1-3 0.2 0.7 0.5 1.4 0.6 2.2 0.6 2.9 2 5.5 3.2 8.3 1.8 4.4 3 9.6 3.2 14.3 0.2 4-0.3 7.9-0.3 11.8 0 6.9 0.2 13.7 0.6 20.5 0.3 5.4 1.5 10.8 1.5 16.2l-0.3 0.3 0.1 0.1-0.6 0.5c-0.1-0.1-0.1-0.2-0.2-0.2-0.1-0.1-0.2-0.2-0.2-0.3l-0.3-0.3-0.3-0.3-0.3-0.3c-0.3-0.2-0.5-0.5-0.7-0.6-1-0.9-1.9-1.2-3.3-1.1-2.4 0.1-5.2 0.8-6.7 2.8-0.8 1 0.2 4.9-1.4 5-0.9 0-2.5-3-2.7-3.8 0-0.3 0.1-0.6 0-0.9h0.2c-0.2-4.1 0-8.1-0.8-12.2-0.8-3.8-1.5-7.5-2.7-11.2-1.3-4.1-2.6-8.3-3.8-12.4-1.1-4.1-3.2-7.8-4.1-11.9-0.9-4.2-1.6-8.2-1.9-12.6-0.1-1.4-0.1-2.8-0.1-4.3-0.1-1.1-0.4-2.9-0.1-3.9l0.1-0.5c0-0.2-0.1-0.5-0.1-0.7 0.3 1.6 3.9 1.9 5.2 1.9z"></path>
                    <path d="m-326 98.6c3.9 0 7.7 1.1 11.6 0.9 1.4-0.1 2.1-0.7 3.3-1.2 0 0 0.1 0 0.1-0.1l0.8 0.2v0.2c-0.1 0.2-0.1 0.4-0.2 0.6-1.2 1.9-3.3 2.6-4.3 4.7-1.4 3.1-0.8 6.5-1.3 9.8-0.3 1.9-1.9 4.6-1.9 6.6l-1.9-0.1c-3.8-5.4-6.9-11.3-10.4-17-0.5-0.8-1.6-3.8-2.6-4 2.2-0.4 4.5-0.6 6.8-0.6z"></path>
                    <path d="m-332.3-48.2c-0.9 1.1-1.8 2.4-3.3 2 0-0.2-0.2-0.2-0.3-0.4l-0.4-0.1v-0.2c0.3-1.4 0.6-3 0.6-4.5 0.6-0.7 0.6-2.2 0.8-3.2l0.3 0.1c0.2-1 1.4-2.2 2.6-2.8 1.4-0.7 2.9-0.5 2.9 2.1 0 2.5-1.6 5.1-3.2 7z"></path>
                    <path d="m-337.3-41.6c0.6 2.6 0.5 5.6 1.8 8.1 0.1 0.2 0.3 0.5 0.5 0.9 0.7 1.2 1.7 2.8 2.4 2.8l0.4 0.2c-0.5 1.3-0.7 2.8-1.2 4.1-0.7 2-3 3.4-4.4 5-3.3 3.8-6.6 7.6-9.3 11.7-1-1.7-2.2-3.6-3.5-5-1.7-1.8-3.9-3.1-5.8-4.7-1.7-1.5-3.3-3.2-4-5.3-0.5-1.4-0.9-3-1.1-4.5-0.1-0.6 0-1.2-0.3-1.7l0.1-0.1c0.5-0.8 1.1-1.5 1.4-2.4 0.2-0.7 0.2-1.4 0.2-2.1 1.1 1.6 2.4 3.7 4.2 4.6 1.6 0.8 3.3 0.7 5.1 0.7 1.1 0 1.7-0.3 2.7-0.6 1.1-0.3 1.6-0.9 2.6-1.5 1.7-1.1 3.3-3.1 4.6-4.6 0.6-0.7 0.9-1.6 1.6-2.2 0.8-0.7 0.9-1.2 1.4-2.2 0.3-0.5 0.5-0.8 0.6-1.2z"></path>
                    <path d="m-341.5-69.6c1.2 0.4 2.8 3.1 3.3 4.3 0.7 1.7 0.5 3.6 1 5.3 0.5 1.5 0.4 2.8 0.3 4.4s0.7 3.1 0.6 4.6c0.3 0 0.5-0.2 0.6-0.4 0 1.5-0.4 3.1-0.6 4.5v0.2c-0.2 1-0.4 1.9-0.4 2.9 0 0.8-0.2 1.5-0.5 2.1-0.1 0.4-0.3 0.7-0.5 1.1-0.5 1-0.6 1.5-1.4 2.2-0.7 0.7-1 1.5-1.6 2.2-1.3 1.5-2.9 3.5-4.6 4.6-1 0.6-1.5 1.1-2.6 1.5-1 0.3-1.6 0.7-2.7 0.6-1.8 0-3.5 0-5.1-0.7-1.8-0.9-3.1-2.9-4.2-4.6v-0.1c-1.2-1.7-2.7-3.1-3.6-5-0.8-1.6-0.7-2.8-0.9-4.5-0.1-1.3-0.3-2.7-0.5-4.1-0.1-0.5-0.2-1.1-0.2-1.6-0.3-2.3-0.2-4.7-0.1-7v-0.9c0-1.6 0-3.1 0.3-4.7 0-0.1 0.1-0.2 0.1-0.4 0.3-1.1 1.1-3.5 0.8-4.6l-0.1-0.1c0.6-0.9 1.4-1.6 2.8-1.6 1.6 0.1 3 1 4.6 1.2 1 0.1 2 0.4 3.1 0.3 1.4-0.1 2.6-0.8 3.9-1.1 1.7-0.4 3.3-0.9 5.1-1.1 0.4 0.1 2.4-0.2 3.1 0.5z"></path>
                    <path d="m-345.3-83c1.9 0.6 3.7 1.6 5.4 2.4 1.6 0.8 3.3 1.6 4.6 2.8 0.6 0.5 1.2 1.1 1.8 1.6 0.8 0.8 0.9 1.6 1.2 2.5 0.7 2 1.5 3.9 1.9 6 0.5 2.5-0.6 4.4-1.2 6.6-0.2 0.7-0.3 1.2-0.4 1.9v1c0 0.2 0 0.5-0.1 0.5l0.1 0.3c-1.2 0.6-2.4 1.9-2.6 2.8h-0.3c-0.2 1-0.3 2.5-0.8 3.2-0.2 0.2-0.4 0.3-0.6 0.4 0.1-1.5-0.7-3-0.6-4.6s0.2-2.8-0.3-4.4c-0.5-1.7-0.4-3.6-1-5.3-0.5-1.2-2.1-3.9-3.3-4.3-0.7-0.7-2.7-0.4-3.5-0.3-1.8 0.3-3.4 0.8-5.1 1.1-1.3 0.3-2.5 1-3.9 1.1-1.1 0.1-2-0.2-3.1-0.3-1.6-0.2-2.9-1.2-4.6-1.2-1.4 0-2.1 0.7-2.8 1.6l0.1 0.1c0.4 1.1-0.4 3.5-0.8 4.6 0 0.1-0.1 0.2-0.1 0.4l-0.7-0.2c-0.5-2.3-2.1-4.1-2-6.7s1.5-5.1 3.3-6.9c1.1-1.1 2.4-1.9 3.7-2.6 1.4-0.8 2.5-1.6 4.1-2.2 4-1.5 7.5-3.2 11.6-1.9z"></path>
                    <path d="m-367.8-58.3c0.7-0.9 1.7-0.1 2.3 0.4h0.1v1c-0.1 2.3-0.2 4.7 0.1 7 0.1 0.5 0.1 1.1 0.2 1.6l-0.4 0.1c-1.6 0.3-2.5-4.6-2.5-5.7-0.1-1.1-0.5-3.5 0.2-4.4z"></path>
                    <path d="m-315.6 50.3c0.3 1.4 0.4 3.1 0.2 4.5-0.1 0.9-0.6 1.8-0.3 2.6l-0.3 0.1c0.6 0.8 1.1 1.1 1.5 2.3 1.1 3.2 2.3 6.2 3 9.4 0.4 1.8 0.6 3.6 0.5 5.5-0.1 2-0.3 4.6-1.4 6.4-0.7 1-1.7 1.9-1.9 3.1-0.3 1.9 2.2 4.1 2.9 5.9 0.8 2.2-1.3 5.8 0.4 7.8 0 0.1-0.1 0.1-0.1 0.1l0.1 0.2c-1.2 0.5-1.9 1.1-3.3 1.2-3.9 0.2-7.7-0.9-11.6-0.9-2.4 0-4.6 0.2-6.8 0.6-1.3 0.2-2.6 0.5-4 0.8-4.5 1-9.1 1.1-13.7 1.5-8.1 0.7-15.7-0.8-23.7-1.8-3.1-0.4-6.3-0.7-9.4-1.4-0.6-0.1-2.4-0.1-3.7-0.4v0.2c-0.3 0-0.6 1.6-0.8 2.1l-0.2 0.2c-0.2-0.3-0.4-0.5-0.7-0.8-0.9-1.1-2.7-4.3-2.4-5.9-0.5-1.6 0.6-4.2 0.8-5.8 0.6-3.5 1.2-6.9 2.1-10.4 0.1-0.6 0.3-1.1 0.5-1.7l2 0.5c0.5-1.5 1.4-3 2.2-4.1 1.4-2.3 2.7-4.8 2.8-7.5 0.1-1.9-0.6-3.6-0.6-5.4 0-1.7 0.2-3.6 0.6-5.2 0.3-1.3 0.7-2.6 1.1-3.9-0.1-1.5 0.1-3.2 0.4-4.7 0.3-2.3-0.2-4.6-0.3-6.9-0.1-1.2-0.1-2.4 0-3.6h-0.4c-0.4-0.5-0.9-0.8-1.5-1.1-2.1-1.1-5-1.2-7.2-1.8-2.7-0.7-5.3-0.7-8.1-1.1-0.5-0.1-1.1-0.1-1.6-0.2-1.6-0.1-3.3-0.1-4.7 0.5 1.1-1.3 1.1-3.3 1.1-4.9-0.2-5.5-0.5-11.1 1.3-16.4 0.5-1.4 1-2.7 1.2-4.1 0.3-1.6 0-3.3 0.1-5 0.3-4.9 1.2-10.6 3.9-14.8 0.9-1.4 2.4-3.9 4.2-4.5l0.1 0.3c5.2 0 10.2-2.4 14.5-5.2 4.1-2.5 8.5-5.1 13-6.8 0.6-0.2 1.2-0.3 1.6-0.9v0.8h0.2c0 0.1 0.1 0.1 0.1 0.2 0.2 0.5 0.2 1.1 0.3 1.7 0.2 1.5 0.6 3.1 1.1 4.5 0.8 2.1 2.3 3.9 4 5.3 1.9 1.6 4 2.9 5.8 4.7 1.3 1.4 2.5 3.3 3.5 5 2.8-4.1 6.1-7.9 9.3-11.7 1.4-1.6 3.7-3 4.4-5 0.4-1.2 0.6-2.8 1.2-4.1l-0.4-0.2c-0.7-0.1-1.7-1.7-2.4-2.8l0.3-0.2c0.9 0.6 1.9-0.1 2.9 0 1.1 0.1 2.2 0.5 3 1.3 1.2 1.1 2.3 3.3 3.7 4l0.9 0.6c1.3 0.7 2.2 1.4 3.5 2.3 2.3 1.6 4.6 2.8 7.2 3.7 3.8 1.4 8.2 1.9 11.5 4.2 3.7 2.6 4.9 6.1 5.5 10.4 0.5 3.9 1 7.9 1 11.7 0 2.4 0.5 4.9 0.9 7.3 0.4 2.3 0.2 4.7 0.7 7 0.4 2 0.4 4.2 0.6 6.3 0.1 1.1 0.2 3.1 0.3 4-1.2 0.3-2.4 0.6-3.6 0.7h-0.2c-2.1 0.2-4.2-0.4-6.3 0-4.1 0.8-8.6 1.8-11.9 4.3-0.6 0.4-1.1 0.9-1.6 1.4h-0.1c0.3 1.9 0.6 3.7 0.7 5.7 0.1 2.9 0 5.6 0.5 8.3z"></path>
                    <path d="m-390.8 162.9c2.7 1.3 5.9 1.8 8.8 2.5 3.4 0.7 6.7 1.8 10.2 1.1 1.3-0.2 2.6-0.5 4-0.7-0.1 1.1-0.6 2-0.8 3.1-0.3 1.3-0.4 2.6-0.8 4-0.6 2.1-1.1 4.3-1.6 6.4s-1 4.4-1.8 6.5c-0.4 1.1-2.2 5.2-3.2 5.3 0.1-0.1 0.2-0.3 0.3-0.3-2.8 1.8-7.8 1.3-11 0.9-2.4-0.3-4.6-0.2-6.7-1.6-1.6-1.1-3.3-2.6-3.9-4.4 1.2-3.9 2.6-7.8 3.6-11.8 1-3.8 1-7.9 1-11.9l0.1-0.1c0.5 0.3 1.1 0.6 1.8 1z"></path>
                    <path d="m-315.9 129.8c0.7 0.2 1.2-0.1 1.7-0.7l0.2 0.1c1.1-1 3.6-0.1 5.2-0.9 0.9-0.5 2-1.5 2.8-2.2 0.9-0.8 1.7-1.2 2.7-1.8l0.1 0.1c-0.7 2.9 0 6.5 0.3 9.5 0.4 3.3 1.4 6.4 2 9.6 0.5 2.4 0.8 4.9 1.2 7.3 0.2 1.1 1.2 2.3 0.6 3.2-0.4 0.6-1.6 1.2-2.1 1.6s-0.9 0.7-1.4 1.1c-0.6 0.5-1.3 1-2 1.3-2.2 1.1-4.6 1.9-7 2.3-3.1 0.5-6.5 0.1-9.6 0.1h-8-1v-0.1 0.1c-2 0-4 0.2-6-0.1-1.8-0.2-3.3 0.5-5.1 0.4-0.8 0-2.3-0.1-2.7-1-0.2-0.5 0.1-0.9 0.2-1.4 0.1-0.9 0.1-1.7 0-2.6-0.2-5.2-1.3-10.3-1.3-15.5l0.2-0.1s-0.1-0.1-0.1-0.2c-0.6-1.3-1.9-3.4-1.9-4.9l-0.2-0.1c-0.8 2.6-1.4 5.2-2.1 7.7-1.7 6-4.1 12.7-4.1 18.3-0.1 0.4-0.2 0.7-0.2 1.1-1.7 0.3-3.5 1.3-5.2 1.7-3 0.7-6.1 1.2-9.1 1.7-1.3 0.2-2.6 0.5-4 0.7-3.4 0.7-6.8-0.4-10.2-1.1-2.9-0.6-6.1-1.2-8.8-2.5-0.7-0.3-1.4-0.7-2-1.1-1-0.7-1.9-1.6-2.7-2.6-0.7-0.9-1.6-2.2-2.7-2.5-0.6-3.9 0.6-8.7 1.4-12.5 0.7-3.5 1.6-7 2-10.6 0.4-3 0.2-6.6 0.2-9.4l0.4-0.2c0.9 0.7 2.1 1.3 3.1 1.2l0.1-0.1c1.1 1.1 2.6 1.6 4.2 1.4 0.6 0.7 2.3 3 2.7 1.8 0.4 0.3 0.8-1.4 0.6-1.9-0.2-0.7-0.7-1.4-1-2-0.8-1.7-1.4-3.4-2.3-5-1-1.8-1.9-3.6-2.1-5.7-0.1-0.9 0-1.8 0.1-2.7 0.1-0.5 0.2-1.9 0.2-2.6 1.6 1 1.3 4.2 1.8 5.9 0.3 1.3 0.6 2.7 1.3 3.8 0.4 0.6 2 2 3 1.3 0.9-0.6-0.1-2-0.5-2.6-0.7-1.1-1-1.7-1-3-0.1-2.9-0.1-5.6-1-8.3-0.7-1.9-1.9-3.4-3.2-4.9l0.2-0.2c0.2-0.6 0.5-2.1 0.8-2.1v-0.2c1.3 0.2 3.1 0.3 3.7 0.4 3.1 0.7 6.2 1 9.4 1.4 7.9 1 15.6 2.5 23.6 1.8 4.6-0.4 9.1-0.4 13.7-1.5 1.4-0.3 2.6-0.6 3.9-0.8 1 0.2 2.2 3.2 2.6 4 3.4 5.7 6.5 11.6 10.4 17l1.9 0.1v0.6c0.6 3.2 3.9-1.1 4.3-2.5 0.2-0.8 0.4-1.6 0.5-2.4h0.1c-0.2 1.4-0.2 2.8-0.4 4.1-0.2 1.1-0.3 2.1-1 3.1-0.8 1.2-1.7 2.2-2.1 3.7-0.2 1.2-0.5 2.7 0.7 3.1z"></path>
                    <path d="m-391.4 259.7c0 2.1 1.1 3.7 1.4 5.7 0.3 2.2 0.5 5.3-0.2 7.4-0.3 1-0.9 2.2-1.7 3-1 1-1.7 0.8-3 0.9-2.5 0.1-4.9 1-7.2 2-5.7 2.5-11.7 2.2-17.5 0.2-0.8-0.2-3.1-1.1-3.3-2-0.1-0.8 1.3-1.8 1.8-2.2 1.9-1.5 4.3-2.3 5.7-4.5 2.6-4.1 5.1-7.9 8.2-11.5 0 0.1-0.1 0.2-0.1 0.3 0.4-0.6 1.6-1.8 2.2-2.4 1-0.9 1.8-1.2 3.2-1.1 2.4 0.1 5.1 0.8 6.5 2.8 0.8 1-0.2 4.9 1.4 5 0.8 0 2.2-2.4 2.6-3.6z"></path>
                    <path d="m-386.8 126.5c-1.6 0.1-3.1-0.4-4.2-1.4l-0.1 0.1c-1.1 0-2.2-0.5-3.1-1.2-0.4-0.3-0.8-0.7-1.1-1l-0.2 0.2v-0.1c-2.7 0-3.5-3.4-4.5-5.3-0.6-1.1-1.1-2.2-1.9-3.2-0.9-1.2-0.9-1.4-0.7-2.9 0.3-3.2 0.6-6.4 0.8-9.6 0.1-1.7-0.1-3.3-0.4-4.9-0.1-0.7-0.1-2-0.3-2.9 0-2-0.3-3.9-0.3-6 0.1-2.8 0.2-5.7 0.3-8.5 0.1-1.7-0.1-3.5-0.1-5.2 0-2 0.4-4 0.5-6 0.3-6.4-0.3-12.6 1.7-18.7 0.9-2.8 2.2-5.5 2.3-8.4 0.2-3.6-0.2-7.1-0.2-10.7 0.5 0 1.1 0.1 1.6 0.2 2.8 0.4 5.4 0.4 8.1 1.1 2.1 0.6 5.1 0.7 7.2 1.8 0 3.3-0.9 5.9-2 9-1 2.9-0.3 5.9-0.1 9 0.2 4.2-0.3 8.4-1 12.5-0.7 4-2 7.8-3.2 11.7-0.2 0.6-0.3 1.1-0.5 1.7-0.9 3.4-1.5 6.9-2.1 10.4-0.3 1.6-1.4 4.2-0.9 5.8-0.2 1.6 1.5 4.8 2.5 5.9 0.2 0.3 0.4 0.5 0.7 0.8 1.3 1.5 2.5 2.9 3.2 4.9 1 2.8 0.9 5.4 1 8.3 0.1 1.3 0.3 2 1 3 0.4 0.6 1.3 1.9 0.5 2.6-1 0.7-2.7-0.7-3-1.3-0.7-1.1-1-2.5-1.3-3.8-0.4-1.7-0.2-4.9-1.8-5.9 0 0.8-0.1 2.1-0.2 2.6-0.1 0.9-0.2 1.8-0.1 2.7 0.2 2.1 1.1 3.9 2.1 5.7 0.9 1.6 1.6 3.3 2.3 5 0.3 0.7 0.8 1.3 1 2 0.1 0.5-0.2 2.2-0.6 1.9-0.5 1.1-2.2-1.3-2.9-1.9 0.1 0 0 0 0 0z"></path>
                    <path d="m-393.5 189.9c2.1 1.4 4.4 1.3 6.7 1.6 3.2 0.5 8.2 1 11-0.9l-0.3 0.3c-0.5 1-0.3 3.6-0.3 4.4 0 2.5-0.5 4.8-0.6 7.3-0.3 4.7-0.1 9.1-1.5 13.7-0.8 2.9-2.4 5.2-3.5 7.9-1.2 2.9-2.4 5.7-3.5 8.6-1.8 4.6-1.3 9.8-2.7 14.6-0.7 2.1-1.4 4.1-1.7 6.4-0.2 1-0.2 2-0.3 3.1-0.2 1-0.7 1.8-1.1 2.7h0.1v0.3c-0.4 1.1-1.8 3.5-2.5 3.5-1.5-0.1-0.6-3.9-1.4-5-1.4-2-4.1-2.7-6.5-2.8-1.4 0-2.2 0.2-3.2 1.1-0.5 0.5-1.8 1.7-2.2 2.4 0-0.1 0-0.2 0.1-0.3 0.4-1.5 1.3-2.9 1.5-4.5 0.2-1.5 0.1-3 0.4-4.4 0.3-1.9 0.4-3.9 0.4-5.8h0.2c-0.3-7.6-1.6-15.1-1.6-22.7 0-7 0.4-14 2.9-20.7 1-2.6 1.8-5.5 3-8 1.1-2.2 2.1-4.5 2.8-6.8 0-0.1 0-0.1 0.1-0.2 0.3 1.6 2.1 3.1 3.7 4.2z"></path>
                    <g stroke="#000">
                    <path d="m-361.9-30.3c0 0.1 0.1 0.1 0.1 0.2 0.2 0.5 0.2 1.1 0.3 1.7 0.2 1.5 0.6 3.1 1.1 4.5 0.8 2.1 2.3 3.9 4 5.3 1.9 1.6 4 2.9 5.8 4.7 1.3 1.4 2.5 3.3 3.5 5 2.8-4.1 6.1-7.9 9.3-11.7 1.4-1.6 3.7-3 4.4-5 0.4-1.2 0.6-2.8 1.2-4.1 0.1-0.3 0.3-0.7 0.5-0.9"></path>
                    <path d="m-391.3-18.3c5.2 0 10.2-2.4 14.5-5.2 4.1-2.5 8.5-5.1 13-6.8 0.6-0.2 1.2-0.3 1.6-0.9v0.8"></path>
                    <path d="m-379.8 0.1c-0.4 1.7-0.9 3.2-0.9 5 0 2.1 0 4.1 0.2 6.1 0.3 2.4 0.8 4.7 1.1 7 0.1 0.5 0.1 1.1 0.1 1.6 0.2 2.9 0.4 5.6 0 8.5-0.3 2.2-0.5 4.3-0.5 6.4v3.6c0.1 2.4 0.7 4.6 0.3 6.9-0.2 1.5-0.5 3.1-0.4 4.7v0.2"></path>
                    <path d="m-390.7-18.8c-0.2 0-0.5 0.1-0.7 0.2-1.8 0.7-3.2 3.1-4.2 4.5-2.7 4.2-3.5 9.9-3.9 14.8-0.1 1.7 0.2 3.4-0.1 5-0.3 1.4-0.8 2.7-1.2 4.1-1.8 5.3-1.5 10.9-1.3 16.4 0.1 1.6 0 3.6-1.1 4.9 1.4-0.6 3.1-0.6 4.7-0.5 0.5 0 1.1 0.1 1.6 0.2 2.8 0.4 5.4 0.4 8.1 1.1 2.1 0.6 5.1 0.7 7.2 1.8 0.6 0.3 1.1 0.7 1.5 1.1"></path>
                    <path d="m-386.7 6.3c-0.1 3.1 3 6.8 4.9 9.5 0.5 0.7 1.6 2.3 2.5 2.4h0.1"></path>
                    <path d="m-380.3 13.7c-1.5-2.1-2.2-4.8-3.1-7.3-1-2.7-2.2-6.6-1.4-9.5"></path>
                    <path d="m-310.4 1.2c0.1 2.6-1.8 6.1-2.8 8.5-0.9 2.2-2.4 4.1-3.2 6.4-1 2.6-1 5.6-1 8.4 0 2 0 4 0.1 5.9 0 1.2 0.1 2.4 0.2 3.6 0.1 0.9 0.2 1.7 0.3 2.5 0.3 1.9 0.6 3.7 0.7 5.7 0.1 2.8 0.1 5.5 0.6 8.2 0.3 1.4 0.4 3.1 0.2 4.5-0.1 0.9-0.6 1.8-0.3 2.6"></path>
                    <path d="m-304.9 1.5c-0.1 0.5-0.4 1.3-0.1 1.6-1 1.1-1.5 2.9-2.2 4.2-1.4 2.6-3.2 5-4.7 7.5-1.1 1.7-2.2 3.4-2.9 5.2-0.4 1.1-2.5 4.3-2.1 5.4"></path>
                    <path d="m-309.5 17c-2.7 1.4-4.5 5.9-5.9 8.5-0.9 1.7-1.4 3.2-1.9 4.9 0 0.1 0 0.1-0.1 0.2"></path>
                    <path d="m-316.8 36.5c0.5-0.5 1-1 1.6-1.4 3.3-2.5 7.8-3.5 11.9-4.3 2.1-0.4 4.3 0.2 6.3 0h0.2c1.2-0.1 2.4-0.4 3.6-0.7 0.2 0 0.4-0.1 0.5-0.1"></path>
                    <path d="m-325.2-27.5l0.9 0.6c1.3 0.7 2.2 1.5 3.5 2.3 2.3 1.6 4.6 2.8 7.2 3.7 3.8 1.4 8.2 1.9 11.5 4.2 3.7 2.6 4.9 6.1 5.5 10.4 0.5 3.9 1 7.9 1 11.7 0 2.4 0.5 4.9 0.9 7.3 0.4 2.3 0.2 4.7 0.7 7 0.4 2 0.4 4.2 0.6 6.3 0.1 1.1 0.2 3.1 0.3 4v0.4"></path>
                    <path d="m-325.8-28c0.2 0.2 0.4 0.3 0.6 0.5"></path>
                    <path d="m-337.5-42.5c0.1 0.3 0.2 0.6 0.2 0.9 0.6 2.6 0.5 5.6 1.8 8.1 0.1 0.2 0.3 0.5 0.5 0.9 0.7 1.2 1.7 2.8 2.4 2.8"></path>
                    <path d="m-325.2-27.5c-1.5-0.6-2.5-2.9-3.7-4-0.8-0.7-1.9-1.2-3-1.3-1 0-2 0.6-2.9 0"></path>
                    <path d="m-361.7-30.2c0.5-0.8 1.1-1.4 1.4-2.4 0.2-0.7 0.2-1.4 0.2-2.1 0-0.3 0.1-0.5 0.1-0.7"></path>
                    <path d="m-377.2 36.1c0.1-0.8 0.9-2.6 1.9-2.4 1.4 0.3 1.1 4.4 0.9 5.4-0.5 2-1.2 3.8-2.5 5.5-0.7 0.9-1.5 1.7-1.9 2.8-0.3 0.8-0.6 1.7-0.9 2.6-0.4 1.3-0.8 2.6-1.1 3.9-0.4 1.7-0.7 3.5-0.6 5.2 0 1.9 0.7 3.6 0.6 5.4-0.1 2.7-1.4 5.3-2.8 7.5-0.7 1.2-1.7 2.6-2.2 4.1-0.2 0.8-0.3 1.7-0.1 2.5 0.3 1 1 1.6 1.1 2.7 0.1 1.6-0.5 3.2-1 4.7-0.5 1.7-0.9 3.4-1.4 5.1-0.3 0.9-0.7 1.7-0.8 2.6-0.1 0.8 0.1 1.8-0.2 2.5-0.1-0.4 0-0.8 0.1-1.1"></path>
                    <path d="m-365.4 46.1c0.5 4.2-2 9.6-3.4 13.5-1.7 4.9-4 9.3-7.2 13.3-1.5 1.8-3.8 3.4-6 4.3-0.9 0.4-1 0.8-1.1-0.4 0-0.6 0.4-1.4 0.6-1.9"></path>
                    <path d="m-321.2 37.2c0 1.6 0.4 3.1 0.6 4.6 0.3 2.3 0.5 4.6 1 6.9 0.4 1.9 1.1 3.7 1.9 5.5 0.4 1 0.8 2.1 1.4 3 0.1 0.1 0.2 0.2 0.3 0.4 0.6 0.8 1.1 1.1 1.5 2.3 1.1 3.2 2.3 6.2 3 9.4 0.4 1.8 0.6 3.6 0.5 5.5-0.1 2-0.3 4.6-1.4 6.4-0.7 1-1.7 1.9-1.9 3.1-0.3 1.9 2.2 4.1 2.9 5.9 0.8 2.2-1.3 5.8 0.4 7.8 0 0.1-0.1 0.1-0.1 0.1s-0.1-0.1-0.2 0"></path>
                    <path d="m-322.8 57.1c0.9 4.5 3.2 8.9 5.5 12.8 0.5 0.9 5 6.8 3.8 7.8"></path>
                    <path d="m-332.8 99.2c2.2-0.4 4.4-0.6 6.8-0.6 3.9 0 7.7 1.1 11.6 0.9 1.4-0.1 2.1-0.7 3.3-1.2 0 0 0.1 0 0.1-0.1"></path>
                    <path d="m-388.4 97.2c0.1 0.3 0.6 0.5 1.3 0.6 1.3 0.2 3.1 0.3 3.7 0.4 3.1 0.7 6.2 1 9.4 1.4 7.9 1 15.6 2.5 23.7 1.8 4.6-0.4 9.1-0.4 13.7-1.5 1.4-0.3 2.6-0.6 4-0.8"></path>
                    <path d="m-381.5 33.5c0 3.4-0.9 6-2 9.1-1 2.9-0.3 5.9-0.1 9 0.2 4.2-0.3 8.4-1 12.5-0.7 4-2 7.8-3.2 11.7-0.2 0.6-0.3 1.1-0.5 1.7-0.9 3.4-1.5 6.9-2.1 10.4-0.3 1.6-1.4 4.2-0.9 5.8 0 0.1 0 0.1 0.1 0.2"></path>
                    <path d="m-398.4 30.6c0 3.6 0.5 7.1 0.2 10.6-0.2 2.9-1.4 5.6-2.3 8.4-2 6.1-1.3 12.3-1.7 18.7-0.1 2-0.5 4-0.5 6 0 1.8 0.2 3.5 0.1 5.2-0.1 2.8-0.1 5.7-0.3 8.5-0.1 2.1 0.3 4 0.3 6"></path>
                    <path d="m-393 41.2c1.1 1.1 2.9 10 4.9 8.5"></path>
                    <path d="m-391.2 93.3c0 0.1-0.1 0.2-0.1 0.3-0.2 1.6 1.5 4.8 2.4 5.9 0.2 0.3 0.5 0.5 0.7 0.8 1.3 1.5 2.5 2.9 3.2 4.9 1 2.8 0.9 5.4 1 8.3 0.1 1.3 0.3 2 1 3 0.4 0.6 1.3 1.9 0.5 2.6-1 0.7-2.7-0.7-3-1.3-0.7-1.1-1-2.5-1.3-3.8-0.4-1.7-0.2-4.9-1.8-5.9"></path>
                    <path d="m-402.9 93.5c0.1 0.1 0.3 0.3 0.3 0.6 0.2 0.8 0.2 2.2 0.3 2.9 0.2 1.6 0.4 3.2 0.4 4.9-0.1 3.2-0.5 6.4-0.8 9.6-0.1 1.5-0.2 1.8 0.7 2.9 0.8 1 1.3 2.1 1.9 3.2 1 2 1.8 5.3 4.5 5.3v0.1c0.1 0.1-0.1 0-0.1-0.1"></path>
                    <path d="m-388.7 107.7c0.1 0 0.1 0.2 0.1 0.5 0 0.8-0.1 2.1-0.2 2.6-0.1 0.9-0.2 1.8-0.1 2.7 0.2 2.1 1.1 3.9 2.1 5.7 0.9 1.6 1.6 3.3 2.3 5 0.3 0.7 0.8 1.3 1 2 0.1 0.5-0.2 2.2-0.6 1.9l-0.1-0.1"></path>
                    <path d="m-394.8 112.1c3.2 2.5 4 7.4 5.5 10.9 0.6 1.4 1.4 2.3 2.5 3.4l0.1 0.1c0.6 0.7 2.3 3 2.7 1.8"></path>
                    <path d="m-398 113.8c2.6 3 4.4 6.6 6.2 10 0.2 0.4 0.5 0.8 0.8 1.1 1.1 1.1 2.6 1.6 4.2 1.4 0.1 0.1-0.1 0-0.2 0.1"></path>
                    <path d="m-400.2 114.3c2 2.3 2.8 5.1 4.3 7.6l0.6 0.9c0.3 0.4 0.7 0.7 1.1 1 0.9 0.7 2.1 1.3 3.1 1.2"></path>
                    <path d="m-315 35.2c0 3.2 0.6 6.2 0.7 9.2 0.1 2.8 0.4 5.1 1.1 7.7 0.8 2.6 0.8 5.2 0.9 7.9 0 0.6 0.1 3.2 0.2 4.8 0 0.8 0.1 1.3 0.2 1.4"></path>
                    <path d="m-296.7 30.7c0.1 3-0.6 6-0.6 9s0.8 5.5 1.4 8.3c1.8 10 1 20.1-0.5 30-0.8 5.2-1.1 10.6-1.3 15.8-0.1 1.3 0.1 5.6-0.5 7.5-0.1 0.4-0.3 0.6-0.5 0.8"></path>
                    <path d="m-312.2 64.7c0.1 0 0.1 0.1 0.1 0.1 0.4 0.6 0.2 1.9 0.3 2.7 0.1 0.5 0.2 1.1 0.3 1.6 0.1 0.6 0.2 1.1 0.3 1.7 0.5 3 0.8 6 1.2 9 0.9 6.3 1.6 12.5-0.2 18.6v0.2c-0.1 0.2-0.1 0.4-0.2 0.6-0.1 0.3-0.3 0.5-0.5 0.7"></path>
                    <path d="m-307.4 50c3.2-1.2 4.4-5.7 4.4-8.7"></path>
                    <path d="m-310.4 99.2c-1.2 1.9-3.3 2.6-4.3 4.7-1.4 3.1-0.8 6.5-1.3 9.8-0.3 1.9-1.9 4.6-1.9 6.6 0 0.2 0 0.4 0.1 0.6 0.6 3.2 3.9-1.1 4.3-2.5 0.2-0.8 0.4-1.6 0.5-2.4 0.4-2.5 0.3-5.1 0.4-7.6 2.4 0.2 0.5 4.6 0.1 5.6-0.2 0.6-0.4 1.3-0.5 2-0.2 1.4-0.2 2.8-0.5 4.1-0.2 1.1-0.3 2.1-1 3.1-0.8 1.2-1.7 2.2-2.1 3.7-0.3 1-0.6 2.5 0.7 2.9 0.7 0.2 1.2-0.1 1.7-0.7s0.9-1.3 1.2-1.8c1.4-2.1 3.1-4 4.2-6.3 1.3-2.6 2-5.1 2.4-8"></path>
                    <path d="m-298.3 101.3c-0.6 3.2-0.4 6.8-0.2 10 0.1 2.3 1 4.6-0.4 6.7-0.8 1.3-1.2 2.1-1.6 3.5-0.3 1.1-1.3 1.9-2.3 2.5-0.2 0.1-0.3 0.2-0.5 0.2-1 0.5-1.8 1-2.7 1.8-0.8 0.7-1.8 1.8-2.8 2.2-1.6 0.8-4.1-0.1-5.2 0.9"></path>
                    <path d="m-302.8 115.3c-1.1 0.7-1.6 3.1-2 4.4-0.5 1.4-0.8 2.6-1.7 3.9-0.9 1.2-3.1 4.1-4 4.6"></path>
                    <path d="m-300.3 116.3c-1 1.8-1.5 4.1-2.6 5.8-0.8 1.1-1.8 2.3-2.6 3.3"></path>
                    <path d="m-343.7 121c-0.5 1.2-0.2 2.7-0.2 3.9-0.1 2.4-1 4.7-1.9 6.9-0.5 1.1-0.9 2.3-1.2 3.4-0.8 2.6-1.4 5.2-2.2 7.7-1.7 6-4.1 12.7-4.1 18.3"></path>
                    <path d="m-394.5 124.1c0 2.7 0.1 6.4-0.2 9.4-0.4 3.6-1.3 7.1-2 10.6-0.8 3.8-1.9 8.6-1.4 12.5 1.2 0.3 2 1.6 2.7 2.6 0.8 1 1.7 1.9 2.7 2.6 0.6 0.4 1.3 0.8 2 1.1 2.7 1.3 5.9 1.8 8.8 2.5 3.4 0.7 6.7 1.8 10.2 1.1 1.3-0.2 2.6-0.5 4-0.7 3.1-0.5 6.1-1 9.1-1.7 1.8-0.4 3.5-1.5 5.2-1.7 0-0.4 0.1-0.8 0.2-1.1 0-0.1 0.1-0.2 0.1-0.4"></path>
                    <path d="m-387.2 98.1c-0.3 0-0.6 1.6-0.8 2.1"></path>
                    <path d="m-372.5 100.2c-1.6 1.9-3.1 4-5 5.6-1 0.8-2.7 1.6-3.1 2.9"></path>
                    <path d="m-366.9 101c-1.5 3.2-3.2 6.4-4.5 9.6-1.9 4.6-4.5 8.4-7.5 12.4"></path>
                    <path d="m-346.8 135.2c0 1.5 1.3 3.6 1.9 4.9 0 0.1 0.1 0.1 0.1 0.2 1 2.4 2.2 4.3 2.7 6.9 0.4 2.2 1.2 4.7 1 6.9"></path>
                    <path d="m-303.2 124.8c0-0.2 0.1-0.3-0.1-0.4-0.7 2.9 0 6.5 0.3 9.5 0.4 3.3 1.4 6.4 2 9.6 0.5 2.4 0.8 4.9 1.2 7.3 0.2 1.1 1.2 2.3 0.6 3.2-0.4 0.6-1.6 1.2-2.1 1.6s-0.9 0.7-1.4 1.1c-0.6 0.5-1.3 1-2 1.3-2.2 1.1-4.6 1.9-7 2.3-3.1 0.5-6.5 0.1-9.6 0.1h-8-1c-2 0-4 0.2-6-0.1-1.8-0.2-3.3 0.5-5.1 0.4-0.8 0-2.3-0.1-2.7-1-0.2-0.5 0.1-0.9 0.2-1.4 0.1-0.9 0.1-1.7 0-2.6-0.2-5.2-1.3-10.3-1.3-15.5"></path>
                    <path d="m-332.8 99.2c1 0.2 2.2 3.2 2.7 4 3.4 5.7 6.5 11.6 10.3 17"></path>
                    <path d="m-327.9 98.7c0.4-0.1 1.4 1 1.9 1.4 3.1 2.4 6.1 4.9 8.9 7.6"></path>
                    <path d="m-367.8 165.6v0.2c-0.1 1.1-0.6 2-0.8 3.1-0.3 1.3-0.4 2.6-0.8 4-0.6 2.1-1 4.3-1.6 6.4-0.5 2.1-1 4.4-1.8 6.5-0.4 1.1-2.2 5.2-3.2 5.3"></path>
                    <path d="m-392.8 161.8c0 4 0 8-1 11.9-1.1 4-2.5 7.8-3.6 11.8 0 0.1 0 0.1-0.1 0.2-0.7 2.3-1.7 4.6-2.8 6.8-1.2 2.5-2 5.4-3 8-2.5 6.6-2.9 13.6-2.9 20.7 0 7.6 1.3 15.1 1.6 22.7v0.9"></path>
                    <path d="m-375.7 190.6h-0.1l-0.3 0.3c-0.5 1-0.3 3.6-0.3 4.4 0 2.5-0.5 4.8-0.6 7.3-0.3 4.7-0.1 9.1-1.5 13.7-0.8 2.9-2.4 5.2-3.5 7.9-1.2 2.9-2.4 5.7-3.5 8.6-1.8 4.6-1.3 9.8-2.7 14.6-0.7 2.1-1.3 4.1-1.7 6.4-0.2 1-0.2 2-0.3 3.1-0.2 1-0.7 1.8-1.1 2.7-0.1 0.3-0.3 0.5-0.4 0.8"></path>
                    <path d="m-404.8 243.8c0 2-0.1 3.9-0.4 5.8-0.2 1.5-0.2 2.9-0.4 4.4-0.2 1.6-1.2 3-1.5 4.5 0 0.1-0.1 0.2-0.1 0.3v0.1"></path>
                    <path d="m-397.5 185.2c0 0.1 0.1 0.2 0.1 0.2 0.6 1.8 2.3 3.3 3.9 4.4 2.1 1.4 4.4 1.3 6.7 1.6 3.2 0.5 8.2 1 11-0.9"></path>
                    <path d="m-302.5 156.6v0.2c0.1 2.1-0.3 4.3-0.3 6.4s0 4.1 0.4 6.1c0.7 4.1 2 8.6 1.1 12.8 0 0.2-0.1 0.5-0.1 0.7"></path>
                    <path d="m-330.2 160.8v-0.2-0.1 0.1c0.1 1.2 0.9 2.6 1.3 3.7 0.5 1.7 1.2 3.3 1.4 5 0.5 3.4 0.4 6.8 1.2 10.1 1.1 4.3 4.4 7.6 5.2 12 0.1 0.2 0.1 0.5 0.1 0.7 0.1 0 0-0.1 0-0.3"></path>
                    <path d="m-320.9 192.6c-0.3 1 0.1 2.8 0.1 3.9 0.1 1.4 0 2.8 0.1 4.3 0.3 4.4 1 8.4 1.9 12.6 0.9 4.1 3 7.8 4.1 11.9 1.2 4.1 2.4 8.3 3.8 12.4 1.2 3.7 1.9 7.4 2.7 11.2 0.9 4.1 0.6 8.1 0.8 12.2"></path>
                    <path d="m-320.9 191.4c0.2 1.6 3.8 1.9 5.1 1.9 2.4 0.1 5-0.4 7.3-0.9 2-0.4 4.2-1.2 5.8-2.5 1-0.8 2.6-1.9 3.1-3"></path>
                    <path d="m-407 258.6s-0.1 0 0 0c-3.2 3.7-5.7 7.5-8.3 11.6-1.4 2.2-3.7 3-5.7 4.5-0.5 0.4-2 1.4-1.8 2.2 0.1 0.9 2.5 1.7 3.3 2 5.8 2 11.8 2.3 17.5-0.2 2.2-1 4.7-1.9 7.1-2 1.3-0.1 2 0.1 3-0.9 0.7-0.8 1.3-2 1.7-3 0.7-2.1 0.5-5.2 0.2-7.4-0.3-2-1.4-3.6-1.4-5.7v-0.3"></path>
                    <path d="m-407.3 259.2c0-0.1 0.1-0.1 0.2-0.3 0.4-0.6 1.6-1.8 2.2-2.4 1-0.9 1.8-1.2 3.2-1.1 2.4 0.1 5.1 0.8 6.5 2.8 0.8 1-0.2 4.9 1.4 5 0.8 0 2.1-2.3 2.5-3.5 0.1-0.2 0.1-0.3 0.1-0.4"></path>
                    <path d="m-301.3 182c0.4 1.8 1.1 3.4 1.7 5 0.2 0.7 0.5 1.4 0.6 2.2 0.6 2.9 2 5.5 3.2 8.3 1.8 4.4 3 9.6 3.2 14.3 0.2 4-0.3 7.9-0.3 11.8 0 6.9 0.2 13.7 0.6 20.5 0.3 5.4 1.5 10.8 1.5 16.2"></path>
                    <path d="m-291.4 260.2c0.1 0.1 0.2 0.2 0.2 0.3l0.1 0.1c3.1 3.5 5.6 7.2 8.2 11.2 1.4 2.2 3.9 3 5.9 4.5 0.6 0.4 2.1 1.4 1.9 2.2-0.1 0.9-2.6 1.7-3.4 2-6 2-12.3 2.3-18.1-0.3-2.3-1-4.9-1.9-7.4-2-1.4 0-2.1 0.1-3.1-0.9-0.8-0.8-1.4-2-1.8-3-0.8-2.1-0.5-5.2-0.2-7.4 0.3-1.8 1.2-3.3 1.4-5.1 0-0.3 0.1-0.6 0-0.9"></path>
                    <path d="m-291.2 261.8c0-0.1-0.2-0.4-0.5-0.7-0.1-0.1-0.1-0.2-0.2-0.2-0.1-0.1-0.2-0.2-0.2-0.3l-0.3-0.3-0.3-0.3-0.3-0.3c-0.3-0.2-0.5-0.5-0.7-0.6-1-0.9-1.9-1.2-3.3-1.1-2.4 0.1-5.2 0.8-6.7 2.8-0.8 1 0.2 4.9-1.4 5-0.9 0-2.5-3-2.7-3.8"></path>
                    <path d="m-364.2-67.5c0.3 1.1-0.4 3.5-0.8 4.6 0 0.1-0.1 0.2-0.1 0.4-0.4 1.5-0.3 3.1-0.3 4.6v1c-0.1 2.3-0.2 4.7 0.1 7 0.1 0.5 0.1 1.1 0.2 1.6 0.2 1.3 0.4 2.7 0.5 4 0.2 1.7 0.1 3 0.9 4.6 0.9 1.9 2.4 3.2 3.6 5v0.1c1.1 1.6 2.4 3.7 4.2 4.6 1.6 0.8 3.3 0.7 5.1 0.7 1.1 0 1.7-0.3 2.7-0.6 1.1-0.3 1.6-0.9 2.6-1.5 1.7-1.1 3.3-3.1 4.6-4.6 0.6-0.7 0.9-1.6 1.6-2.2 0.8-0.7 0.9-1.2 1.4-2.2 0.2-0.4 0.4-0.8 0.5-1.1 0.3-0.7 0.5-1.4 0.5-2.1 0.1-1 0.2-1.9 0.4-2.9v-0.2c0.3-1.4 0.6-3 0.6-4.4v-0.9"></path>
                    <path d="m-334.5-53.9c-0.1-0.2-0.1-0.4 0-0.6 0.2-0.9 1.4-2.2 2.6-2.8 1.4-0.7 2.9-0.5 2.9 2.1-0.1 2.6-1.7 5.1-3.2 7-0.9 1.1-1.8 2.4-3.3 2 0-0.2-0.2-0.2-0.3-0.4"></path>
                    <path d="m-365.5-57.9c-0.6-0.5-1.6-1.3-2.3-0.4s-0.3 3.3-0.2 4.4c0.1 1 1 6 2.6 5.7"></path>
                    <path d="m-341.2-57.4c-1.8-1-4-1-6.1-1-1.6 0.1-2.8 0.3-4 1.4"></path>
                    <path d="m-364.2-58.2c1-0.8 4-0.9 5.2-0.4 1.7 0.7 3.2 2.3 3.2 4.2 0 2-0.4 4.1-0.7 6-0.2 1.7-0.3 2.9 1.6 3.4 1.1 0.3 3.1 0.3 3.9-0.5"></path>
                    <path d="m-365.8-62.7c-0.5-2.3-2.1-4.1-2-6.7s1.5-5.1 3.3-6.9c1-1.1 2.4-1.9 3.7-2.6 1.4-0.8 2.5-1.6 4.1-2.2 3.8-1.3 7.3-3 11.5-1.8 1.9 0.6 3.7 1.6 5.4 2.4 1.6 0.8 3.3 1.6 4.6 2.8 0.6 0.5 1.2 1.1 1.8 1.6 0.8 0.8 0.9 1.6 1.2 2.5 0.7 2 1.5 3.9 1.9 6 0.5 2.5-0.6 4.4-1.2 6.6-0.2 0.7-0.3 1.2-0.4 1.9v1 0.5"></path>
                    <path d="m-341.4-69.5c0-0.1-0.1-0.1-0.1-0.1-0.7-0.7-2.7-0.4-3.5-0.3-1.8 0.3-3.4 0.8-5.1 1.1-1.3 0.3-2.5 1-3.9 1.1-1.1 0.1-2-0.2-3.1-0.3-1.6-0.2-2.9-1.2-4.6-1.2-1.4 0-2.1 0.7-2.8 1.6-0.1 0.1-0.2 0.2-0.3 0.4"></path>
                    <path d="m-341.6-69.6s0.1 0 0 0c1.2 0.4 2.9 3.1 3.3 4.3 0.7 1.7 0.5 3.6 1 5.3 0.5 1.5 0.4 2.8 0.3 4.4s0.7 3.1 0.6 4.6c0.3 0 0.5-0.2 0.6-0.4 0.6-0.7 0.6-2.2 0.8-3.2 0-0.1 0-0.3 0.1-0.4"></path>
                    </g>
                    </g>
                    <path d="m-387.2 10c-0.4 4.5 5.5 6.1 6.8 9.7 0.7 2 0.1 4.3-0.1 6.3-0.2 1.8 0 4.6-1 6.1-1.6-0.8-2.5-1.3-4.3-1.5-1.5-0.1-3.4-0.4-4.5-1.2 3.6-2.5 5.8-3.9 4.5-8.7-0.7-2.4-3.8-8.7-1.6-10.8 0.1 0.2 0.4 0.5 0.5 0.7" opacity=".4" stroke="#000"></path>
                    <path d="m-385.1 9c0.6-0.2 0.3-2.1 0.3-2.9 0.6 3.7 3.1 6.2 4.1 9.6-2.2-0.7-3.3-4.4-4.5-6.3 0-0.3 0.2 0 0.3-0.2" opacity=".4" stroke="#000"></path>
                    <path d="m-376.9 37.3c-0.1-0.7 0.2-1.1 0.8-1.3 1.3 1.2 0.4 6.6-1.4 6.6-1.3-2.8-0.7-7-0.2-9.8 0.5-3.3 0.4-6.6 0.7-9.8 1.2 0.5 1.6 1.9 2.3 2.8 1.2 1.6 2.5 2.3 4.3 2.7 3.5 0.7 7 0 9.8-2.2-1.9 1.6-3.4 5.3-4.4 7.5-1.1 2.5-1.1 5.4-1.5 8.1-1 7.3-3.8 14.3-5.8 21.6-0.8 2.9-1.9 4.7-3.7 7.1-1 1.4-3.1 4.2-5.2 3.9-1-3.5 2.6-5.8 2.5-9.3-0.2-3.5-0.3-6.3 1.2-9.8 1.8-4.2 4.6-7.9 5.3-12.5 0.4-2.3 1.1-6 0.2-8.3-0.7-1.8-3.6-3.1-5.1-1.5-0.7 0.7-0.8 2.1-0.8 3 0.1 1.2 1.1 2.7 1.7 0.8" opacity=".4" stroke="#000"></path>
                    <path d="m-362.6 65.8c-2.1 3.9-4.4 7.6-7.9 10.8-2.9 2.7-8 4.6-10.1 8.2-2.8 4.7 8 1.6 9.5 1.2 2.8-0.8 8.5-2.9 9.7-6 1.5-3.8-0.6-8.7-0.2-12.7 0.1-1 0.5-2.2-0.2-3-0.6 0.7-1 1.9-1 2.9" opacity=".4" stroke="#000"></path>
                    <path d="m-325.4 44.7c1.4 3.5 1 7.5 3 10.8 1.2 1.9 3.2 3.3 4.9 4.8 3.3 2.9 5 9.4 4.8 13.8-1-0.1-3.5-5.2-4.3-6.3-1.3-2-2.4-4.5-3.4-6.7-1.1-2.5-2.6-4.9-3.7-7.5-0.9-2.1-1.9-6.5-1.2-8.7" opacity=".4" stroke="#000"></path>
                    <path d="m-331.7 26.3c2.6-0.2 5.2-1.2 7.5-2.9 1.6-1.1 2.6-3.3 4.1-4.2 0.4 3 1 6 1.2 9.1 0.2 3.9 0.2 7.9 0.5 11.7 0.2 2.6 0.8 5.2 1.3 7.7 0.4 1.8 1 4.4 0.7 6.3-1.4-0.2-3.4-8.5-3.6-10.3-0.4-2.6 0.5-5.6-1.1-7.8-1.2-1.7-3.6-3.6-5.3-4.9-1.4-1-5.3-3.2-5.5-5" opacity=".4" stroke="#000"></path>
                    <path d="m-310.1 4.5c-1.1 1.4-0.8 5.6 1.3 3.4-1.8 1.6-3.2 4.7-4.3 6.9s-2 4.6-3.5 6.6c0.7-2.9 1.1-5.6 2.6-8.3 1.4-2.5 2.2-5.9 4-8" opacity=".4" stroke="#000"></path>
                    <path d="m-309.4 18.7c-2.3 1.8-4.7 4.8-5.5 7.5-0.7 2.5-2 4.6-1.8 7.3 1.5-0.5 2.3-1.8 3.4-3 1.4-1.5 2.9-1.8 3.1-3.9 0.3-3.1-0.2-6.5 0.8-9.3" opacity=".4" stroke="#000"></path>
                    <path d="m-310.6 33.8c1.7-2.5 8-2 10.8-2-4.8 3.4-3.8 10.8-6.9 15.4 2.2-3.9 0.5-11.8-3.6-13.5" opacity=".4" stroke="#000"></path>
                    <path d="m-342.2 122.2c0 2.9 1.2 7.4 2.2 11 1.1 4 3.3 7.6 4.5 11.6 0.8 2.7 2 5.7 2.3 8.5 0.1 0.8 0.4 3.6-0.2 4.1-0.3 0.3-2.6 0.4-3.3 0.6-1.3 0.3-2.7 0.7-4 0.8 0-2.9 0.6-6 0.3-9-0.3-3.3-1.5-6.2-2.5-9.2-1-2.7-2.8-4.3-1.8-7.3 1-2.8 1.6-5.8 2.1-8.7 0.2-0.8 0.3-2.1 0.9-2.8" opacity=".4" stroke="#000"></path>
                    <path d="m-372.6 101c1.4 0.9-1.7 8.3-2.1 10-0.6 2.2-1.2 4.3-1.9 6.4 1.2-3.1 3.1-6.7 4.8-9.6 1.2-2 2.8-4 2.5-6.5-0.9 0-2.1-0.1-2.8-0.4" opacity=".4" stroke="#000"></path>
                    <path d="m-380.9 99.3c1.7 1.1 4.7 0.8 6.6 1.2-2.4 2.6-6.3 4.4-8.1 7.6 0.3-2.6-0.1-6.6 1.5-8.8" opacity=".4" stroke="#000"></path>
                    <path d="m-330.1 100.3c1.2 1.3 1.9 2.9 2.8 4.3 1 1.6 2.1 2.8 2.9 4.5 1.1 2.3 2.8 4.3 4.1 6.4-1-1.8-5.9-11.1-0.3-9.7-2 0.4-4.5-3.1-5.7-4.7-1.5-2.1-1.6-1.6-4.1-1.4 0 0 0.6 0.4 0.9 0.5" opacity=".4" stroke="#000"></path>
                    <path d="m-324.4 99.5c2.2 0.7 5.1 0.4 7.4 0.5 1.2 0.1 4.3 0.4 5.2-0.3-3.3 0.4-3.5 4.3-4.7 6.4-1.3-0.9-8.3-5.4-8.1-6.6" opacity=".4" stroke="#000"></path>
                    <path d="m-328.2 162c5 1 11 0.8 15.8-0.5-2.8 0.7-5.8 6-7 8.5-1.6 3.4-2.2 7.1-3.8 10.4-1.9-1.7-1.6-6.3-1.9-8.6-0.2-1.6-0.3-3.2-0.9-4.7-0.5-1.2-2.8-3.6-2.5-4.7" opacity=".4" stroke="#000"></path>
                    <path d="m-363.6 116.7c-2.3 5.5-5.2 10.3-9.1 14.8-2.1 2.4-4.1 4.6-6.6 6.6-0.8 0.6-2.8 1.7-3 2.9-0.2 1.4 1.6 2 1.2 3.3-0.3 0.9-1.8 1.9-2.4 2.7-1.2 1.6-2.2 3.3-3.3 5-2.3 3.8-0.3 6.8 3.8 8.2 3.1 1 6.2 1 9.5 1 2 0 4.7 0 6.3-1.4 2.3-1.9 2.9-5.7 3.7-8.5 1.3-4.4 4.4-8 6.5-12 2.5-5.1 4.2-10.4 6-15.7 1.8-5 3.7-10.3 3.4-15.6-1.4 0.1-3.7 3.9-4.7 5-1.6 1.8-2.3 3.6-4.8 3.9-1.5 0.2-6.4-0.6-6.9 0.7" fill="#fff" opacity=".5" stroke="#fff"></path>
                    <path d="m-397.4 48.3c-2.1 1.2-2.9 5.5-3 7.7-0.2 3.7-0.3 7.4-0.3 11.1 0 6.9-0.7 13.8-0.1 20.7 1.3-4.2 1.5-9.1 2.2-13.6 0.7-5 1.9-10.1 3-15 0.5-2.4 2.6-11.2-1.4-10.9" fill="#fff" opacity=".5" stroke="#fff"></path>
                    <path d="m-377.1-17.8c-2.1 0.2-4.1 0.7-6.2 0.9-1.8 0.2-3.4-0.1-5.1 0.3-3.8 0.8-6.8 3.3-6 7.8 1.1 6 7.8 4.3 12 3.7 4-0.6 6 0.9 8.7 3.9 2.1 2.4 3.4 5 4.9 7.9 1.6 3.2 3.8 4.5 7 5.6 3.5 1.3 7 2.4 10.7 1 1.6-0.6 2.9-1.7 4.5-2 1.7-0.4 3.6 0.2 5.3 0.7 3.1 0.9 6.2 2.4 9.5 1.9 6-0.8 9.3-6.7 12.3-11.2 2.6-3.9 6-4.5 10.5-5 3.8-0.4 6.3-2.7 6.8-6.5 0.4-3.2-1.3-7-4.5-8.1s-6.5-1.3-9.8-2c-1.3-0.3-3.1-1.1-4.4-0.9-1.8 0.3-3.5 2.1-4.9 3.1-2.8 1.9-5.9 3.4-8.6 5.4-2.1 1.5-4.1 3.2-6.3 4.4-1.6 0.9-3.7 2-5.7 1.4-1.3-0.4-2.6-2.2-3.8-3.2-4.1-3.3-7.6-6.7-13-7.8-3.1-0.6-6.1-1.2-9.2-1.6-1.8-0.3-3.6 0-5.3 0" fill="#fff" opacity=".5" stroke="#fff"></path>
</svg>