<?xml version="1.0" encoding="UTF-8" standalone="no"?>
<!DOCTYPE svg PUBLIC "-//W3C//DTD SVG 1.1//EN" "http://www.w3.org/Graphics/SVG/1.1/DTD/svg11.dtd">
<svg width="100%" height="100%" viewBox="0 0 22 22" version="1.1" xmlns="http://www.w3.org/2000/svg" xmlns:xlink="http://www.w3.org/1999/xlink" xml:space="preserve" xmlns:serif="http://www.serif.com/" style="fill-rule:evenodd;clip-rule:evenodd;stroke-linejoin:round;">
    <path d="M19.724,14.128L18.74,14.331L17.816,14.496L16.965,14.619L16.204,14.697L15.552,14.727L15.037,14.713L14.693,14.669L14.395,14.567L14.233,14.436L14.039,14.145L13.82,13.599L13.624,12.817L13.462,11.859L13.315,10.782L13.144,9.629L12.897,8.428L12.49,7.191L11.794,5.949L10.662,4.844L9.843,4.328L8.995,3.893L8.117,3.54L7.215,3.266L6.29,3.064L5.341,2.926L4.362,2.839L3.345,2.795L2.276,2.784M19.591,18.739L18.536,18.927L17.52,19.074L16.543,19.173L15.606,19.216L14.701,19.19L13.809,19.07L12.193,18.479L10.914,17.459L10.06,16.223L9.539,14.951L9.223,13.705L9.02,12.507L8.866,11.383L8.717,10.373L8.546,9.532L8.351,8.929L8.184,8.617L8.108,8.536L7.618,8.226L7.131,7.977L6.63,7.775L6.091,7.612L5.496,7.483L4.828,7.385L4.076,7.319L3.232,7.283L2.29,7.273" style="fill:none;fill-rule:nonzero;stroke:rgb(30,30,30);stroke-width:2.5px;"/>
    <rect x="19.976" y="7.809" width="5.75" height="13.848" style="fill:none;"/>
</svg>
