<?xml version="1.0" encoding="UTF-8" standalone="no"?>
<!DOCTYPE svg PUBLIC "-//W3C//DTD SVG 1.1//EN" "http://www.w3.org/Graphics/SVG/1.1/DTD/svg11.dtd">
<svg width="100%" height="100%" viewBox="0 0 22 20" version="1.1" xmlns="http://www.w3.org/2000/svg" xmlns:xlink="http://www.w3.org/1999/xlink" xml:space="preserve" xmlns:serif="http://www.serif.com/" style="fill-rule:evenodd;clip-rule:evenodd;stroke-linecap:round;stroke-linejoin:round;">
    <path d="M1,17.008C1,18.111 1.896,19.008 3,19.008L19,19.008C20.104,19.008 21,18.111 21,17.008L21,3C21,1.896 20.104,1 19,1L3,1C1.896,1 1,1.896 1,3L1,17.008Z" style="fill:none;stroke:black;stroke-width:2px;"/>
    <path d="M13.724,17.008C13.724,18.111 14.62,19.008 15.724,19.008L19,19.008C20.104,19.008 21,18.111 21,17.008C21,15.904 20.104,15.008 19,15.008L15.724,15.008C14.62,15.008 13.724,15.904 13.724,17.008Z" style="fill:none;stroke:black;stroke-width:2px;"/>
</svg>
