<?xml version="1.0" encoding="UTF-8" standalone="no"?>
<!DOCTYPE svg PUBLIC "-//W3C//DTD SVG 1.1//EN" "http://www.w3.org/Graphics/SVG/1.1/DTD/svg11.dtd">
<svg width="100%" height="100%" viewBox="0 0 22 20" version="1.1" xmlns="http://www.w3.org/2000/svg" xmlns:xlink="http://www.w3.org/1999/xlink" xml:space="preserve" xmlns:serif="http://www.serif.com/" style="fill-rule:evenodd;clip-rule:evenodd;stroke-linecap:round;stroke-linejoin:round;">
    <path d="M21,17.008C21,18.111 20.104,19.008 19,19.008L3,19.008C1.896,19.008 1,18.111 1,17.008L1,3C1,1.896 1.896,1 3,1L19,1C20.104,1 21,1.896 21,3L21,17.008Z" style="fill:none;stroke:black;stroke-width:2px;"/>
    <path d="M8.276,17.008C8.276,18.111 7.38,19.008 6.276,19.008L3,19.008C1.896,19.008 1,18.111 1,17.008C1,15.904 1.896,15.008 3,15.008L6.276,15.008C7.38,15.008 8.276,15.904 8.276,17.008Z" style="fill:none;stroke:black;stroke-width:2px;"/>
</svg>
