<?xml version="1.0" encoding="UTF-8" standalone="no"?>
<!DOCTYPE svg PUBLIC "-//W3C//DTD SVG 1.1//EN" "http://www.w3.org/Graphics/SVG/1.1/DTD/svg11.dtd">
<svg width="100%" height="100%" viewBox="0 0 20 20" version="1.1" xmlns="http://www.w3.org/2000/svg" xmlns:xlink="http://www.w3.org/1999/xlink" xml:space="preserve" xmlns:serif="http://www.serif.com/" style="fill-rule:evenodd;clip-rule:evenodd;stroke-linecap:round;stroke-linejoin:round;stroke-miterlimit:1.5;">
    <path d="M7.199,12.266C4.402,12.266 2.132,9.995 2.132,7.199C2.132,4.402 4.402,2.132 7.199,2.132C9.995,2.132 12.266,4.402 12.266,7.199M12.266,7.199L15.201,7.199C16.673,7.199 17.868,8.394 17.868,9.866L17.868,15.201C17.868,16.673 16.673,17.868 15.201,17.868L9.866,17.868C8.394,17.868 7.199,16.673 7.199,15.201L7.199,12.266M7.199,12.266L7.199,9.866C7.199,8.394 8.394,7.199 9.866,7.199L12.266,7.199" style="fill:none;stroke:black;stroke-width:2px;"/>
</svg>
