<?xml version="1.0" encoding="UTF-8" standalone="no"?>
<!DOCTYPE svg PUBLIC "-//W3C//DTD SVG 1.1//EN" "http://www.w3.org/Graphics/SVG/1.1/DTD/svg11.dtd">
<svg width="100%" height="100%" viewBox="0 0 548 633" version="1.1" xmlns="http://www.w3.org/2000/svg" xmlns:xlink="http://www.w3.org/1999/xlink" xml:space="preserve" xmlns:serif="http://www.serif.com/" style="fill-rule:evenodd;clip-rule:evenodd;stroke-miterlimit:10;">
    <g id="Capa-1" serif:id="Capa 1">
        <path d="M-91.328,-19.9L-91.328,158.185L0,105.457L0,-0L-34.467,-19.9L-91.328,-19.9Z" style="fill:url(#_Linear1);fill-rule:nonzero;"/>
        <g>
            <clipPath id="_clip2">
                <rect x="-91.328" y="-19.9" width="1095.91" height="780" clip-rule="nonzero"/>
            </clipPath>
            <g clip-path="url(#_clip2)">
                <path d="M-91.328,-52.729L-182.657,0L-182.657,105.457L-91.328,158.185L0.001,105.457L0.001,0L-91.328,-52.729Z" style="fill:none;fill-rule:nonzero;stroke:black;stroke-width:2.01px;"/>
                <path d="M34.468,-19.9L0,0L0,105.457L91.329,158.185L182.658,105.457L182.658,0L148.19,-19.9L34.468,-19.9Z" style="fill:url(#_Linear3);fill-rule:nonzero;"/>
                <clipPath id="_clip4">
                    <rect x="-91.328" y="-19.9" width="1095.91" height="780" clip-rule="nonzero"/>
                </clipPath>
                <g clip-path="url(#_clip4)">
                    <path d="M91.329,-52.729L-0,0L-0,105.457L91.329,158.185L182.658,105.457L182.658,0L91.329,-52.729Z" style="fill:none;fill-rule:nonzero;stroke:black;stroke-width:2px;"/>
                </g>
                <path d="M217.126,-19.9L182.658,0L182.658,105.457L273.986,158.185L365.315,105.457L365.315,0L330.847,-19.9L217.126,-19.9Z" style="fill:url(#_Linear5);fill-rule:nonzero;"/>
                <clipPath id="_clip6">
                    <rect x="-91.328" y="-19.9" width="1095.91" height="780" clip-rule="nonzero"/>
                </clipPath>
                <g clip-path="url(#_clip6)">
                    <path d="M273.986,-52.729L182.657,0L182.657,105.457L273.986,158.185L365.315,105.457L365.315,0L273.986,-52.729Z" style="fill:none;fill-rule:nonzero;stroke:black;stroke-width:2px;"/>
                </g>
            </g>
        </g>
        <path d="M399.783,-19.9L365.315,-0L365.315,105.457L456.643,158.185L547.972,105.457L547.972,0L513.504,-19.9L399.783,-19.9Z" style="fill:url(#_Linear7);fill-rule:nonzero;"/>
        <g>
            <clipPath id="_clip8">
                <rect x="-91.328" y="-19.9" width="1095.91" height="780" clip-rule="nonzero"/>
            </clipPath>
            <g clip-path="url(#_clip8)">
                <path d="M456.644,-52.729L365.315,0L365.315,105.457L456.644,158.185L547.973,105.457L547.973,0L456.644,-52.729Z" style="fill:none;fill-rule:nonzero;stroke:black;stroke-width:2.01px;"/>
                <path d="M582.44,-19.9L547.972,0L547.972,105.457L639.301,158.185L730.629,105.457L730.629,0L696.162,-19.9L582.44,-19.9Z" style="fill:url(#_Linear9);fill-rule:nonzero;"/>
                <clipPath id="_clip10">
                    <rect x="-91.328" y="-19.9" width="1095.91" height="780" clip-rule="nonzero"/>
                </clipPath>
                <g clip-path="url(#_clip10)">
                    <path d="M639.301,-52.729L547.972,0L547.972,105.457L639.301,158.185L730.63,105.457L730.63,0L639.301,-52.729Z" style="fill:none;fill-rule:nonzero;stroke:black;stroke-width:2px;"/>
                </g>
            </g>
        </g>
        <g>
            <clipPath id="_clip11">
                <rect x="-91.328" y="-19.9" width="1095.91" height="780" clip-rule="nonzero"/>
            </clipPath>
            <g clip-path="url(#_clip11)">
                <path d="M-91.328,158.185L-91.328,263.643L0,316.371L91.329,263.643L91.329,158.185L0,105.457L-91.328,158.185Z" style="fill:url(#_Linear12);fill-rule:nonzero;"/>
                <clipPath id="_clip13">
                    <rect x="-91.328" y="-19.9" width="1095.91" height="780" clip-rule="nonzero"/>
                </clipPath>
                <g clip-path="url(#_clip13)">
                    <path d="M0,105.457L-91.329,158.186L-91.329,263.643L0,316.371L91.329,263.643L91.329,158.186L0,105.457Z" style="fill:none;fill-rule:nonzero;stroke:black;stroke-width:2px;"/>
                </g>
                <path d="M182.658,105.457L91.329,158.186L91.329,263.643L182.658,316.371L273.986,263.643L273.986,158.186L182.658,105.457Z" style="fill:url(#_Linear14);fill-rule:nonzero;stroke:black;stroke-width:2.01px;"/>
                <path d="M365.315,105.457L273.986,158.186L273.986,263.643L365.315,316.371L456.644,263.643L456.644,158.186L365.315,105.457Z" style="fill:url(#_Linear15);fill-rule:nonzero;stroke:black;stroke-width:2px;"/>
                <path d="M547.972,105.457L456.644,158.186L456.644,263.643L547.972,316.371L639.301,263.643L639.301,158.186L547.972,105.457Z" style="fill:url(#_Linear16);fill-rule:nonzero;stroke:black;stroke-width:2px;"/>
                <path d="M-91.328,263.643L-91.328,474.557L0,421.829L0,316.371L-91.328,263.643Z" style="fill:url(#_Linear17);fill-rule:nonzero;"/>
                <clipPath id="_clip18">
                    <rect x="-91.328" y="-19.9" width="1095.91" height="780" clip-rule="nonzero"/>
                </clipPath>
                <g clip-path="url(#_clip18)">
                    <path d="M-91.328,263.643L-182.657,316.372L-182.657,421.829L-91.328,474.557L0.001,421.829L0.001,316.372L-91.328,263.643Z" style="fill:none;fill-rule:nonzero;stroke:black;stroke-width:2.01px;"/>
                </g>
                <path d="M91.329,263.643L0,316.371L0,421.829L91.329,474.557L182.658,421.829L182.658,316.371L91.329,263.643Z" style="fill:url(#_Linear19);fill-rule:nonzero;stroke:black;stroke-width:2px;"/>
                <path d="M273.986,263.643L182.658,316.371L182.658,421.829L273.986,474.557L365.315,421.829L365.315,316.371L273.986,263.643Z" style="fill:url(#_Linear20);fill-rule:nonzero;stroke:black;stroke-width:2px;"/>
                <path d="M456.644,263.643L365.315,316.371L365.315,421.829L456.644,474.557L547.972,421.829L547.972,316.371L456.644,263.643Z" style="fill:url(#_Linear21);fill-rule:nonzero;stroke:black;stroke-width:2.01px;"/>
                <path d="M639.301,263.643L547.972,316.371L547.972,421.829L639.301,474.557L730.63,421.829L730.63,316.371L639.301,263.643Z" style="fill:url(#_Linear22);fill-rule:nonzero;stroke:black;stroke-width:2px;"/>
                <path d="M-91.328,474.557L-91.328,580.014L0,632.743L91.329,580.014L91.329,474.557L0,421.829L-91.328,474.557Z" style="fill:url(#_Linear23);fill-rule:nonzero;"/>
                <clipPath id="_clip24">
                    <rect x="-91.328" y="-19.9" width="1095.91" height="780" clip-rule="nonzero"/>
                </clipPath>
                <g clip-path="url(#_clip24)">
                    <path d="M0,421.829L-91.329,474.558L-91.329,580.015L0,632.744L91.329,580.015L91.329,474.558L0,421.829Z" style="fill:none;fill-rule:nonzero;stroke:black;stroke-width:2px;"/>
                </g>
                <path d="M182.658,421.829L91.329,474.557L91.329,580.014L182.658,632.743L273.986,580.014L273.986,474.557L182.658,421.829Z" style="fill:url(#_Linear25);fill-rule:nonzero;stroke:black;stroke-width:2.01px;"/>
                <path d="M365.315,421.829L273.986,474.557L273.986,580.014L365.315,632.743L456.644,580.014L456.644,474.557L365.315,421.829Z" style="fill:url(#_Linear26);fill-rule:nonzero;stroke:black;stroke-width:2px;"/>
                <path d="M547.972,421.829L456.644,474.557L456.644,580.014L547.972,632.743L639.301,580.014L639.301,474.557L547.972,421.829Z" style="fill:url(#_Linear27);fill-rule:nonzero;stroke:black;stroke-width:2px;"/>
            </g>
        </g>
        <path d="M-91.328,580.014L-91.328,760.1L-37.931,760.1L-0,738.2L0,632.743L-91.328,580.014Z" style="fill:url(#_Linear28);fill-rule:nonzero;"/>
        <g>
            <clipPath id="_clip29">
                <rect x="-91.328" y="-19.9" width="1095.91" height="780" clip-rule="nonzero"/>
            </clipPath>
            <g clip-path="url(#_clip29)">
                <path d="M-91.328,580.015L-182.657,632.744L-182.657,738.2L-91.328,790.93L0.001,738.2L0.001,632.744L-91.328,580.015Z" style="fill:none;fill-rule:nonzero;stroke:black;stroke-width:2.01px;"/>
                <path d="M0,632.743L0,738.2L37.932,760.1L144.726,760.1L182.658,738.2L182.658,632.743L91.329,580.014L0,632.743Z" style="fill:url(#_Linear30);fill-rule:nonzero;"/>
                <clipPath id="_clip31">
                    <rect x="-91.328" y="-19.9" width="1095.91" height="780" clip-rule="nonzero"/>
                </clipPath>
                <g clip-path="url(#_clip31)">
                    <path d="M91.329,580.015L-0,632.744L-0,738.2L91.329,790.93L182.658,738.2L182.658,632.744L91.329,580.015Z" style="fill:none;fill-rule:nonzero;stroke:black;stroke-width:2px;"/>
                </g>
                <path d="M182.658,632.743L182.658,738.2L220.59,760.1L327.383,760.1L365.315,738.2L365.315,632.743L273.986,580.014L182.658,632.743Z" style="fill:url(#_Linear32);fill-rule:nonzero;"/>
                <clipPath id="_clip33">
                    <rect x="-91.328" y="-19.9" width="1095.91" height="780" clip-rule="nonzero"/>
                </clipPath>
                <g clip-path="url(#_clip33)">
                    <path d="M273.986,580.015L182.657,632.744L182.657,738.2L273.986,790.93L365.315,738.2L365.315,632.744L273.986,580.015Z" style="fill:none;fill-rule:nonzero;stroke:black;stroke-width:2px;"/>
                </g>
            </g>
        </g>
        <path d="M365.315,632.743L365.315,738.2L403.246,760.1L510.041,760.1L547.972,738.2L547.972,632.743L456.643,580.014L365.315,632.743Z" style="fill:url(#_Linear34);fill-rule:nonzero;"/>
        <g>
            <clipPath id="_clip35">
                <rect x="-91.328" y="-19.9" width="1095.91" height="780" clip-rule="nonzero"/>
            </clipPath>
            <g clip-path="url(#_clip35)">
                <path d="M456.644,580.015L365.315,632.744L365.315,738.2L456.644,790.93L547.973,738.2L547.973,632.744L456.644,580.015Z" style="fill:none;fill-rule:nonzero;stroke:black;stroke-width:2.01px;"/>
                <path d="M547.972,632.743L547.972,738.2L585.904,760.1L692.698,760.1L730.629,738.2L730.629,632.743L639.301,580.014L547.972,632.743Z" style="fill:url(#_Linear36);fill-rule:nonzero;"/>
                <clipPath id="_clip37">
                    <rect x="-91.328" y="-19.9" width="1095.91" height="780" clip-rule="nonzero"/>
                </clipPath>
                <g clip-path="url(#_clip37)">
                    <path d="M639.301,580.015L547.972,632.744L547.972,738.2L639.301,790.93L730.63,738.2L730.63,632.744L639.301,580.015Z" style="fill:none;fill-rule:nonzero;stroke:black;stroke-width:2px;"/>
                </g>
            </g>
        </g>
        <g>
            <clipPath id="_clip38">
                <rect x="-91.328" y="-19.9" width="1095.91" height="780" clip-rule="nonzero"/>
            </clipPath>
            <g clip-path="url(#_clip38)">
                <path d="M-34.467,-19.9L0,0L34.468,-19.9L-34.467,-19.9Z" style="fill:url(#_Linear39);fill-rule:nonzero;"/>
                <clipPath id="_clip40">
                    <rect x="-91.328" y="-19.9" width="1095.91" height="780" clip-rule="nonzero"/>
                </clipPath>
                <g clip-path="url(#_clip40)">
                    <path d="M0,-210.915L-91.329,-158.186L-91.329,-52.729L0,-0.001L91.329,-52.729L91.329,-158.186L0,-210.915Z" style="fill:none;fill-rule:nonzero;stroke:black;stroke-width:2px;"/>
                </g>
            </g>
        </g>
        <path d="M148.19,-19.9L182.658,0L217.126,-19.9L148.19,-19.9Z" style="fill:url(#_Linear41);fill-rule:nonzero;"/>
        <g>
            <clipPath id="_clip42">
                <rect x="-91.328" y="-19.9" width="1095.91" height="780" clip-rule="nonzero"/>
            </clipPath>
            <g clip-path="url(#_clip42)">
                <path d="M182.658,-210.915L91.329,-158.186L91.329,-52.729L182.658,-0.001L273.987,-52.729L273.987,-158.186L182.658,-210.915Z" style="fill:none;fill-rule:nonzero;stroke:black;stroke-width:2.01px;"/>
                <path d="M330.847,-19.9L365.315,0L399.783,-19.9L330.847,-19.9Z" style="fill:url(#_Linear43);fill-rule:nonzero;"/>
                <clipPath id="_clip44">
                    <rect x="-91.328" y="-19.9" width="1095.91" height="780" clip-rule="nonzero"/>
                </clipPath>
                <g clip-path="url(#_clip44)">
                    <path d="M365.315,-210.915L273.986,-158.186L273.986,-52.729L365.315,-0.001L456.644,-52.729L456.644,-158.186L365.315,-210.915Z" style="fill:none;fill-rule:nonzero;stroke:black;stroke-width:2px;"/>
                </g>
                <path d="M513.504,-19.9L547.972,0L582.44,-19.9L513.504,-19.9Z" style="fill:url(#_Linear45);fill-rule:nonzero;"/>
                <clipPath id="_clip46">
                    <rect x="-91.328" y="-19.9" width="1095.91" height="780" clip-rule="nonzero"/>
                </clipPath>
                <g clip-path="url(#_clip46)">
                    <path d="M547.972,-210.915L456.643,-158.186L456.643,-52.729L547.972,-0.001L639.301,-52.729L639.301,-158.186L547.972,-210.915Z" style="fill:none;fill-rule:nonzero;stroke:black;stroke-width:2px;"/>
                </g>
            </g>
        </g>
        <rect x="0" y="0" width="547.972" height="632.572" style="fill:rgb(236,236,236);fill-opacity:0;"/>
    </g>
    <defs>
        <linearGradient id="_Linear1" x1="0" y1="0" x2="1" y2="0" gradientUnits="userSpaceOnUse" gradientTransform="matrix(144.057,144.057,-144.057,144.057,-163.357,-19.3004)"><stop offset="0" style="stop-color:rgb(44,44,44);stop-opacity:1"/><stop offset="1" style="stop-color:black;stop-opacity:1"/></linearGradient>
        <linearGradient id="_Linear3" x1="0" y1="0" x2="1" y2="0" gradientUnits="userSpaceOnUse" gradientTransform="matrix(182.657,0,0,182.657,0.0002123,52.7283)"><stop offset="0" style="stop-color:rgb(247,247,248);stop-opacity:1"/><stop offset="1" style="stop-color:rgb(195,196,202);stop-opacity:1"/></linearGradient>
        <linearGradient id="_Linear5" x1="0" y1="0" x2="1" y2="0" gradientUnits="userSpaceOnUse" gradientTransform="matrix(182.657,0,0,182.657,182.658,52.7283)"><stop offset="0" style="stop-color:rgb(247,247,248);stop-opacity:1"/><stop offset="1" style="stop-color:rgb(195,196,202);stop-opacity:1"/></linearGradient>
        <linearGradient id="_Linear7" x1="0" y1="0" x2="1" y2="0" gradientUnits="userSpaceOnUse" gradientTransform="matrix(144.057,144.057,-144.057,144.057,384.615,-19.3004)"><stop offset="0" style="stop-color:rgb(44,44,44);stop-opacity:1"/><stop offset="1" style="stop-color:black;stop-opacity:1"/></linearGradient>
        <linearGradient id="_Linear9" x1="0" y1="0" x2="1" y2="0" gradientUnits="userSpaceOnUse" gradientTransform="matrix(182.657,0,0,182.657,547.972,52.7283)"><stop offset="0" style="stop-color:rgb(247,247,248);stop-opacity:1"/><stop offset="1" style="stop-color:rgb(195,196,202);stop-opacity:1"/></linearGradient>
        <linearGradient id="_Linear12" x1="0" y1="0" x2="1" y2="0" gradientUnits="userSpaceOnUse" gradientTransform="matrix(182.657,0,0,182.657,-91.3285,210.914)"><stop offset="0" style="stop-color:rgb(247,247,248);stop-opacity:1"/><stop offset="1" style="stop-color:rgb(195,196,202);stop-opacity:1"/></linearGradient>
        <linearGradient id="_Linear14" x1="0" y1="0" x2="1" y2="0" gradientUnits="userSpaceOnUse" gradientTransform="matrix(144.057,144.057,-144.057,144.057,110.629,138.885)"><stop offset="0" style="stop-color:rgb(44,44,44);stop-opacity:1"/><stop offset="1" style="stop-color:black;stop-opacity:1"/></linearGradient>
        <linearGradient id="_Linear15" x1="0" y1="0" x2="1" y2="0" gradientUnits="userSpaceOnUse" gradientTransform="matrix(182.657,0,0,182.657,273.986,210.914)"><stop offset="0" style="stop-color:rgb(247,247,248);stop-opacity:1"/><stop offset="1" style="stop-color:rgb(195,196,202);stop-opacity:1"/></linearGradient>
        <linearGradient id="_Linear16" x1="0" y1="0" x2="1" y2="0" gradientUnits="userSpaceOnUse" gradientTransform="matrix(182.657,0,0,182.657,456.644,210.914)"><stop offset="0" style="stop-color:rgb(247,247,248);stop-opacity:1"/><stop offset="1" style="stop-color:rgb(195,196,202);stop-opacity:1"/></linearGradient>
        <linearGradient id="_Linear17" x1="0" y1="0" x2="1" y2="0" gradientUnits="userSpaceOnUse" gradientTransform="matrix(144.057,144.057,-144.057,144.057,-163.357,297.071)"><stop offset="0" style="stop-color:rgb(44,44,44);stop-opacity:1"/><stop offset="1" style="stop-color:black;stop-opacity:1"/></linearGradient>
        <linearGradient id="_Linear19" x1="0" y1="0" x2="1" y2="0" gradientUnits="userSpaceOnUse" gradientTransform="matrix(182.657,0,0,182.657,0.0002123,369.1)"><stop offset="0" style="stop-color:rgb(247,247,248);stop-opacity:1"/><stop offset="1" style="stop-color:rgb(195,196,202);stop-opacity:1"/></linearGradient>
        <linearGradient id="_Linear20" x1="0" y1="0" x2="1" y2="0" gradientUnits="userSpaceOnUse" gradientTransform="matrix(182.657,0,0,182.657,182.658,369.1)"><stop offset="0" style="stop-color:rgb(247,247,248);stop-opacity:1"/><stop offset="1" style="stop-color:rgb(195,196,202);stop-opacity:1"/></linearGradient>
        <linearGradient id="_Linear21" x1="0" y1="0" x2="1" y2="0" gradientUnits="userSpaceOnUse" gradientTransform="matrix(144.057,144.057,-144.057,144.057,384.615,297.071)"><stop offset="0" style="stop-color:rgb(44,44,44);stop-opacity:1"/><stop offset="1" style="stop-color:black;stop-opacity:1"/></linearGradient>
        <linearGradient id="_Linear22" x1="0" y1="0" x2="1" y2="0" gradientUnits="userSpaceOnUse" gradientTransform="matrix(182.657,0,0,182.657,547.972,369.1)"><stop offset="0" style="stop-color:rgb(247,247,248);stop-opacity:1"/><stop offset="1" style="stop-color:rgb(195,196,202);stop-opacity:1"/></linearGradient>
        <linearGradient id="_Linear23" x1="0" y1="0" x2="1" y2="0" gradientUnits="userSpaceOnUse" gradientTransform="matrix(182.657,0,0,182.657,-91.3285,527.286)"><stop offset="0" style="stop-color:rgb(247,247,248);stop-opacity:1"/><stop offset="1" style="stop-color:rgb(195,196,202);stop-opacity:1"/></linearGradient>
        <linearGradient id="_Linear25" x1="0" y1="0" x2="1" y2="0" gradientUnits="userSpaceOnUse" gradientTransform="matrix(144.057,144.057,-144.057,144.057,110.629,455.257)"><stop offset="0" style="stop-color:rgb(44,44,44);stop-opacity:1"/><stop offset="1" style="stop-color:black;stop-opacity:1"/></linearGradient>
        <linearGradient id="_Linear26" x1="0" y1="0" x2="1" y2="0" gradientUnits="userSpaceOnUse" gradientTransform="matrix(182.657,0,0,182.657,273.986,527.286)"><stop offset="0" style="stop-color:rgb(247,247,248);stop-opacity:1"/><stop offset="1" style="stop-color:rgb(195,196,202);stop-opacity:1"/></linearGradient>
        <linearGradient id="_Linear27" x1="0" y1="0" x2="1" y2="0" gradientUnits="userSpaceOnUse" gradientTransform="matrix(182.657,0,0,182.657,456.644,527.286)"><stop offset="0" style="stop-color:rgb(247,247,248);stop-opacity:1"/><stop offset="1" style="stop-color:rgb(195,196,202);stop-opacity:1"/></linearGradient>
        <linearGradient id="_Linear28" x1="0" y1="0" x2="1" y2="0" gradientUnits="userSpaceOnUse" gradientTransform="matrix(144.057,144.057,-144.057,144.057,-163.357,613.443)"><stop offset="0" style="stop-color:rgb(44,44,44);stop-opacity:1"/><stop offset="1" style="stop-color:black;stop-opacity:1"/></linearGradient>
        <linearGradient id="_Linear30" x1="0" y1="0" x2="1" y2="0" gradientUnits="userSpaceOnUse" gradientTransform="matrix(182.657,0,0,182.657,0.0002123,685.472)"><stop offset="0" style="stop-color:rgb(247,247,248);stop-opacity:1"/><stop offset="1" style="stop-color:rgb(195,196,202);stop-opacity:1"/></linearGradient>
        <linearGradient id="_Linear32" x1="0" y1="0" x2="1" y2="0" gradientUnits="userSpaceOnUse" gradientTransform="matrix(182.657,0,0,182.657,182.658,685.472)"><stop offset="0" style="stop-color:rgb(247,247,248);stop-opacity:1"/><stop offset="1" style="stop-color:rgb(195,196,202);stop-opacity:1"/></linearGradient>
        <linearGradient id="_Linear34" x1="0" y1="0" x2="1" y2="0" gradientUnits="userSpaceOnUse" gradientTransform="matrix(144.057,144.057,-144.057,144.057,384.615,613.443)"><stop offset="0" style="stop-color:rgb(44,44,44);stop-opacity:1"/><stop offset="1" style="stop-color:black;stop-opacity:1"/></linearGradient>
        <linearGradient id="_Linear36" x1="0" y1="0" x2="1" y2="0" gradientUnits="userSpaceOnUse" gradientTransform="matrix(182.657,0,0,182.657,547.972,685.472)"><stop offset="0" style="stop-color:rgb(247,247,248);stop-opacity:1"/><stop offset="1" style="stop-color:rgb(195,196,202);stop-opacity:1"/></linearGradient>
        <linearGradient id="_Linear39" x1="0" y1="0" x2="1" y2="0" gradientUnits="userSpaceOnUse" gradientTransform="matrix(182.657,0,0,182.657,-91.3285,-105.458)"><stop offset="0" style="stop-color:rgb(247,247,248);stop-opacity:1"/><stop offset="1" style="stop-color:rgb(195,196,202);stop-opacity:1"/></linearGradient>
        <linearGradient id="_Linear41" x1="0" y1="0" x2="1" y2="0" gradientUnits="userSpaceOnUse" gradientTransform="matrix(144.057,144.057,-144.057,144.057,110.629,-177.486)"><stop offset="0" style="stop-color:rgb(44,44,44);stop-opacity:1"/><stop offset="1" style="stop-color:black;stop-opacity:1"/></linearGradient>
        <linearGradient id="_Linear43" x1="0" y1="0" x2="1" y2="0" gradientUnits="userSpaceOnUse" gradientTransform="matrix(182.657,0,0,182.657,273.986,-105.458)"><stop offset="0" style="stop-color:rgb(247,247,248);stop-opacity:1"/><stop offset="1" style="stop-color:rgb(195,196,202);stop-opacity:1"/></linearGradient>
        <linearGradient id="_Linear45" x1="0" y1="0" x2="1" y2="0" gradientUnits="userSpaceOnUse" gradientTransform="matrix(182.657,0,0,182.657,456.644,-105.458)"><stop offset="0" style="stop-color:rgb(247,247,248);stop-opacity:1"/><stop offset="1" style="stop-color:rgb(195,196,202);stop-opacity:1"/></linearGradient>
    </defs>
</svg>
