<?xml version="1.0" encoding="UTF-8" standalone="no"?>
<!DOCTYPE svg PUBLIC "-//W3C//DTD SVG 1.1//EN" "http://www.w3.org/Graphics/SVG/1.1/DTD/svg11.dtd">
<svg width="100%" height="100%" viewBox="0 0 1604 4775" version="1.1" xmlns="http://www.w3.org/2000/svg" xmlns:xlink="http://www.w3.org/1999/xlink" xml:space="preserve" xmlns:serif="http://www.serif.com/" style="fill-rule:evenodd;clip-rule:evenodd;stroke-linejoin:round;stroke-miterlimit:2;">
    <path d="M14.925,4769.44C3.713,4763.35 0,4755.8 0,4739.07C0,4717.08 10.792,4701.13 47.088,4669.47C65.021,4653.83 85.042,4634.12 91.571,4625.64C114.5,4595.93 145.183,4525.18 163.996,4458.68C168.117,4444.08 174.396,4423.82 177.946,4413.66C184.992,4393.43 186.004,4374.39 181.333,4349.71C171.321,4296.91 144.888,4040.53 136.996,3919.62C129.721,3808.03 144.725,3657.13 176.904,3518.23C183.104,3491.49 193.504,3455.39 200.017,3438.01C216.75,3393.38 221.808,3365.41 225.129,3299.3C227.896,3244.31 229.638,3224.16 233.267,3204.77C234.425,3198.6 233.592,3196.18 230.321,3196.18C227.817,3196.18 223.925,3193.97 221.663,3191.24C217.333,3186.02 219.725,3142.92 229.688,3046.18C235.142,2993.35 247.788,2858.21 256.3,2761.8C269.321,2614.46 296.567,2407.75 315.592,2311.97C321.925,2280.12 324.071,2262.89 322.054,2260.45C320.038,2258.03 320.542,2250.98 323.55,2239.76C335.808,2193.95 344.742,2141.98 350.179,2084.97C353.483,2050.44 362.55,1966.47 370.346,1898.36C396.779,1667.32 397.463,1659.69 399.121,1575.46C400.846,1487.71 397.833,1462.73 390.95,1507.59C386.588,1535.96 382.438,1548.18 376.367,1550.51C370.217,1552.87 363.575,1570.43 353.058,1612.08C341.392,1658.3 327.604,1697.38 312.046,1728.34C296.696,1758.87 291.571,1779.66 289.113,1821.18C283.967,1908.5 278.483,1944.31 257.633,2026.58C225.375,2153.92 224.642,2157.62 207.796,2281.92C199.042,2346.5 193.033,2421.42 195.654,2433.43C196.617,2437.86 205.292,2464.7 214.925,2493.05C229.933,2537.24 232.617,2548.72 233.771,2573.3C234.504,2589.05 233.546,2610.86 231.658,2621.75C228.938,2637.36 229.183,2648.08 232.846,2672.49C240.35,2722.41 237.729,2741.31 222.821,2745.05C203.629,2749.87 187.679,2715.77 187.533,2669.62C187.467,2646.91 182.879,2624.3 178.337,2624.3C173.325,2624.3 171.517,2638.77 169.742,2693.05C168.375,2735.19 169.142,2755.76 173.113,2782.67C179.575,2826.44 177.733,2839.03 161.979,2858.97C144.321,2881.32 128.013,2878.49 123.046,2852.23C121.925,2846.32 119.271,2839.39 117.121,2836.8C102.458,2819.16 79.688,2748.78 76.675,2711.8C75.488,2697.2 72.508,2674.7 70.067,2661.8C63.625,2627.79 64.488,2611.12 76.288,2541.49C95.492,2428.1 95.508,2427.64 86.425,2333.68C60.158,2062.13 58.771,1912.21 81.642,1813.66C85.271,1798.03 98.063,1758.53 110.075,1725.87C133.417,1662.37 146.925,1613.97 162.679,1537.29L172.525,1489.34L162.825,1479.33C157.488,1473.83 153.125,1467 153.125,1464.15C153.125,1461.3 161.508,1431.84 171.729,1398.67C195.217,1322.6 212.467,1252.36 223.404,1188.37C238.038,1102.75 263.592,1026.69 292.171,983.695C313.15,952.136 336.867,934.67 454.688,863.999C491.913,841.67 556.038,806.024 596.012,785.47C612.613,776.924 629.038,765.857 634.75,759.345L644.662,748.065L642.692,708.84C639.842,652.445 632.404,601.303 624.854,586.528C621.338,579.624 616,561.77 613.004,546.828L607.538,519.665L595.8,520.674C571.875,522.74 560.904,506.69 542.775,443.053C528.158,391.799 526.092,374.84 532.763,360.778C538.508,348.686 551.808,341.474 564.029,343.82C568.342,344.649 571.875,344.632 571.875,343.786C571.875,342.957 569.775,329.445 567.204,313.757C559.929,269.486 556.704,218.72 559.767,196.632C563.458,169.845 571.192,153.565 590.25,132.54C602.083,119.453 606.25,112.407 606.25,105.407C606.25,71.649 660.4,26.695 721.338,9.865C737.596,5.374 741.554,5.145 743.683,8.565C745.783,11.982 748.713,11.753 759.846,7.295C782.113,-1.626 824.267,-2.455 861.733,5.307C897.346,12.665 947.688,29.903 967.479,41.507C982.813,50.49 1000,69.19 1000,76.874C1000,79.886 1007.15,89.328 1015.88,97.87C1041.2,122.578 1055.96,157.407 1061.17,204.774C1063,221.62 1062.61,224.303 1058.22,224.303C1054.17,224.303 1053.11,227.657 1053.08,240.711C1053.03,255.928 1050.42,284.328 1045.08,328.111L1042.92,345.982L1053.21,343.036C1065.82,339.407 1077.65,344.274 1083.67,355.553C1090.32,368.003 1086.23,405.211 1073.42,449.057C1055.62,510.011 1048.91,519.94 1026.2,519.061C1012.93,518.557 1012.66,518.753 1010.87,530.015C1009.88,536.332 1006.9,549.936 1004.26,560.24C995.721,593.67 994.204,609.311 993.979,666.67C993.767,720.77 994.075,723.715 1001.55,738.724C1005.83,747.315 1013.67,757.553 1018.96,761.461C1024.25,765.382 1059.77,784.132 1097.88,803.145C1318.86,913.365 1365.2,954.64 1404.02,1075.87C1416.57,1115.09 1422.41,1142.46 1431,1202.62C1438.35,1253.91 1453.6,1317.8 1474.82,1386.2C1483.51,1414.23 1490.62,1440.89 1490.62,1445.46C1490.62,1450.98 1486.3,1458.17 1477.69,1466.94L1464.75,1480.13L1470.02,1509.25C1485.94,1597.14 1500.5,1651.22 1527.96,1724.22C1566.29,1826.13 1573.49,1877.77 1570.87,2032.12C1569.06,2137.07 1566.75,2179.61 1557.67,2274.3C1543.93,2417.64 1544.14,2433.89 1561.1,2532.64C1575,2613.64 1575.41,2618.57 1570.18,2645.28C1567.56,2658.66 1563.98,2685.8 1562.24,2705.55C1558.61,2746.44 1544.5,2793.98 1526.38,2826.37C1520.48,2836.97 1515.62,2847.81 1515.62,2850.44C1515.62,2858.89 1508.62,2871 1502.65,2872.9C1493.05,2875.95 1485.63,2871.72 1473.44,2856.24L1461.82,2841.49L1464.42,2802.43C1468.3,2744.13 1467.62,2633.39 1463.36,2625.87C1459.98,2619.89 1459.67,2620.01 1456.46,2628.42C1454.62,2633.25 1453.08,2644.5 1453.03,2653.42C1452.73,2702.72 1442.08,2736.64 1425,2742.6C1403.86,2749.95 1396.57,2725.98 1404.7,2675.88C1409,2649.53 1409.2,2640.68 1406.02,2619.34C1399.98,2578.7 1403.14,2550.43 1418.54,2507.12C1446.3,2429.09 1445.46,2433.86 1441.39,2376.65C1433.4,2264.88 1417.25,2169.44 1382.83,2030.77C1360.06,1938.95 1357.67,1924.09 1351.65,1836.8C1346.84,1767.08 1345.62,1762.34 1318.91,1708.84C1304.46,1679.89 1300.03,1666.59 1282.9,1600.33C1271.45,1556.06 1268.18,1547.25 1261.33,1542.26C1251.63,1535.21 1243.2,1509.88 1237.4,1470.51C1227.96,1406.27 1223.57,1469.06 1229.58,1582.36C1232.13,1630.36 1236.35,1720.95 1238.97,1783.68C1244.78,1923.21 1244.58,1920.97 1259.67,2013.66C1271.17,2084.3 1279.96,2124.16 1298.86,2191.42C1303.63,2208.37 1306.02,2223.12 1304.92,2228.63C1303.88,2233.86 1307.73,2261.38 1313.92,2292.78C1349.32,2472.4 1365.17,2587.1 1392.08,2858.68C1398.11,2919.7 1408.9,3018.04 1416.02,3077.23L1428.99,3184.83L1421.14,3191.57L1413.3,3198.33L1415.85,3265.22C1419.95,3372.29 1423.13,3395.35 1441.88,3454.8C1460.63,3514.23 1479.07,3613.37 1487.92,3702.43C1493.03,3753.85 1493.15,3897.6 1488.12,3941.49C1468.55,4112.29 1444.89,4296.99 1435.85,4349.3C1429.6,4385.52 1429.82,4388.9 1441.08,4435.24C1450.44,4473.69 1486.12,4575.23 1499.43,4601.34C1508.69,4619.47 1526.6,4639.73 1558.08,4667.71C1591.88,4697.79 1603.12,4715.77 1603.12,4739.82C1603.12,4753.65 1601.76,4757.41 1593.83,4765.34L1584.52,4774.65L1486.8,4773.67C1392.89,4772.76 1388.36,4772.43 1370.98,4765.43C1353.12,4758.24 1331.25,4739.7 1331.25,4731.76C1331.25,4722.67 1311.83,4705.98 1291.38,4697.48C1251.24,4680.82 1243.75,4671.07 1243.75,4635.45C1243.75,4611.05 1257.55,4516.15 1264.1,4495.59C1273.16,4467.06 1268.7,4315.86 1256.12,4225.86C1252.75,4201.81 1243.59,4155.41 1235.76,4122.74C1211.21,4020.48 1188.13,3920.74 1182.24,3891.49C1174.28,3852.12 1174.46,3726.53 1182.57,3647.74C1189.11,3584.05 1188.05,3485.22 1180.5,3457.12C1177.88,3447.3 1170.25,3433.76 1160.06,3420.79C1143.98,3400.33 1131.45,3377.28 1131.32,3367.92C1131.28,3365.27 1124.82,3356.84 1116.98,3349.17C1109.13,3341.51 1096.23,3324.7 1088.3,3311.8C1067.09,3277.3 1067.24,3277.43 1047.17,3277.41C1037.55,3277.41 1024.55,3275.96 1018.25,3274.22C1005.18,3270.59 1010.3,3284.31 972.2,3150.87C959.929,3107.9 943.621,3051.65 935.938,3025.87C928.271,3000.09 916.879,2956.5 910.646,2928.99C895.575,2862.59 888.592,2839.07 864.633,2774.24C853.533,2744.19 841.846,2712.24 838.671,2703.21C835.5,2694.19 831.788,2686.8 830.404,2686.8C821.858,2686.8 743.392,2912.2 731.137,2971.91C727.717,2988.63 721.338,3032.23 716.992,3068.79C712.629,3105.34 706.413,3152.12 703.175,3172.74C699.933,3193.36 696.321,3222.2 695.167,3236.8C694.008,3251.42 690.967,3266.7 688.412,3270.77C683.983,3277.8 682.617,3278.06 661.767,3276.01C649.675,3274.82 629.296,3271.85 616.471,3269.39C603.646,3266.93 591.863,3265.72 590.267,3266.72C588.688,3267.7 583.95,3275.26 579.771,3283.51C570.638,3301.53 536.996,3344.55 528.483,3349.11C525.146,3350.9 519.921,3359.05 516.879,3367.24C510.254,3385.06 497.983,3403.7 484.471,3416.49C479.021,3421.65 471.958,3430.08 468.783,3435.24C454.525,3458.37 449.529,3565.82 457.813,3671.18C468.017,3800.9 462.808,3856.48 428.646,3982.12C420.229,4013.06 403.988,4072.82 392.529,4114.93C361.1,4230.57 351.4,4295.41 347.329,4417.01C345.638,4467.26 346.029,4488.66 348.829,4498.19C355.029,4519.34 368.767,4616.23 368.571,4637.45C368.246,4673.52 366.079,4676.42 323.437,4697.74C288.313,4715.3 285.367,4717.5 277.083,4732.23C266.779,4750.57 255.338,4759.23 229.883,4767.99C213.004,4773.8 203.908,4774.3 117.479,4774.19C40.575,4774.07 21.892,4773.21 14.925,4769.44ZM326.854,4500.9C328.954,4498.1 331.138,4467.97 332.471,4423.59C336.346,4295.15 344.629,4230.19 368.683,4139.93C411.979,3977.38 438.446,3871.1 436.183,3868.84C435.742,3868.39 417.938,3869.24 396.6,3870.72C375.258,3872.2 342.138,3872.27 322.983,3870.87C252.117,3865.72 213.492,3851.14 165.188,3811.26C157.208,3804.69 149.642,3799.3 148.371,3799.3C144.517,3799.3 149.154,3944.57 154.492,3991.49C159.083,4031.69 162.517,4066.7 176.546,4216.49C179.296,4245.71 184.992,4293.77 189.208,4323.28C193.425,4352.79 196.875,4381.48 196.875,4387.02C196.875,4392.57 192.658,4410.27 187.5,4426.37C175.958,4462.42 175.683,4466.56 185.158,4463.09C189.029,4461.67 204.133,4460.45 218.75,4460.39C252.313,4460.21 272.2,4468.9 282.779,4488.36C286.525,4495.25 292.983,4502.67 297.133,4504.85C306.021,4509.54 321.988,4507.41 326.854,4500.9ZM1318.1,4503.8C1321.94,4501.1 1327.96,4493.25 1331.5,4486.33C1344.4,4461.04 1391.9,4451.35 1428.91,4466.49C1436.67,4469.66 1436.05,4462.97 1425,4424.3L1415.62,4391.51L1424.87,4338.36C1429.96,4309.15 1441.31,4226.17 1450.08,4153.99C1458.85,4081.81 1468.77,4000.25 1472.12,3972.74C1475.45,3945.25 1479.1,3896.83 1480.21,3865.17L1482.24,3807.59L1462.25,3823.76C1436.65,3844.49 1407.76,3859.61 1376.42,3868.67C1354.17,3875.12 1345.02,3875.87 1289.06,3875.87C1254.69,3875.87 1219.89,3874.84 1211.72,3873.59C1198.85,3871.6 1196.88,3872.02 1196.92,3876.71C1196.97,3882.49 1221.01,3990.09 1246.4,4098.1C1275.34,4221.27 1282.15,4279.28 1282.54,4406.61L1282.81,4496.73L1290.19,4502.7C1299.14,4509.97 1308.76,4510.34 1318.1,4503.8ZM1323.44,3727.38C1383.53,3720.69 1440.27,3695.14 1462.19,3664.86L1470.9,3652.85L1465.04,3615.92C1454.77,3551.16 1444.11,3503.68 1429.85,3459.18C1412.71,3405.68 1406.8,3364.46 1403.24,3273.3C1401.78,3235.78 1400.08,3204.6 1399.48,3203.99C1398.29,3202.8 1351.03,3216.8 1284.38,3238.11C1261.17,3245.51 1226.01,3254.01 1206.25,3257C1186.49,3259.98 1155.94,3265.79 1138.38,3269.92C1120.82,3274.06 1102.73,3277.43 1098.19,3277.43C1088.12,3277.43 1088.83,3279.89 1106.74,3306.4C1127.2,3336.72 1157.88,3365.68 1180.47,3376.03C1191.21,3380.96 1200,3386.14 1200,3387.55C1200,3396.18 1172.27,3391.36 1158.22,3380.32C1143.82,3368.98 1149.03,3380.68 1169.99,3406.76C1195.54,3438.53 1237.61,3519.22 1231.67,3525.09C1227.3,3529.45 1227.64,3529.85 1210.22,3499.63L1200.13,3482.12L1201.95,3536.8C1203.19,3574.21 1202.17,3612.18 1198.71,3656.92C1195.93,3692.89 1194.73,3723.39 1196.05,3724.68C1201.66,3730.21 1282.6,3731.92 1323.44,3727.38ZM1398.57,3553.21C1397.38,3539.89 1393.07,3510.62 1388.97,3488.14C1382.83,3454.45 1381.64,3438.41 1382.18,3396.73C1382.52,3368.93 1383.69,3346.18 1384.77,3346.18C1391.11,3346.18 1393.25,3359.72 1394.56,3408.68C1395.6,3447.48 1397.9,3471.99 1402.46,3493.05C1414.23,3547.33 1415.14,3577.43 1405,3577.43C1401.95,3577.43 1400.11,3570.53 1398.57,3553.21ZM1330.47,3508.32C1318.62,3503.8 1319.38,3498.03 1331.53,3500.46C1336.83,3501.51 1347.3,3500.85 1354.77,3498.96C1372.64,3494.45 1378.89,3496.62 1368.23,3503.6C1357.75,3510.47 1341.44,3512.5 1330.47,3508.32ZM1264.52,3480.49C1261.46,3475.31 1252.02,3463.14 1243.54,3453.45C1227.49,3435.11 1225.26,3430.55 1232.33,3430.55C1237.12,3430.55 1272.09,3466.07 1277.75,3476.71C1285.61,3491.44 1273.1,3495.02 1264.52,3480.49ZM1338.27,3482.9C1338.97,3480.75 1344.97,3478.55 1351.6,3478C1362.24,3477.1 1363.17,3477.56 1359.55,3481.9C1354.64,3487.83 1336.36,3488.69 1338.27,3482.9ZM438.9,3722.38C444.042,3720.4 444.4,3717.53 442.596,3693.35C437.988,3631.77 436.913,3555.08 440.154,3518.22C442.025,3496.83 443.067,3478.83 442.463,3478.24C441.879,3477.64 436.833,3485.31 431.267,3495.26C420.296,3514.88 413.037,3524.3 408.888,3524.3C397.283,3524.3 437.242,3449.09 468.654,3411.8C487.142,3389.88 501.188,3371.18 499.188,3371.18C498.325,3371.18 489.729,3374.79 480.079,3379.22C462.433,3387.29 449.917,3388.27 447.771,3381.71C447.121,3379.77 450.537,3377.2 455.338,3376.01C466.7,3373.18 491.308,3357.98 509.829,3342.37C527.492,3327.48 548.6,3301.1 562.208,3276.91C571.271,3260.81 571.663,3259.04 566.554,3257.46C563.458,3256.51 511.717,3245.93 451.563,3233.97C351.138,3214 252.229,3199.17 247.95,3203.44C245.688,3205.72 241.717,3244.86 237.775,3303.99C233.463,3368.57 227.538,3398.99 207.975,3457.12C193.1,3501.26 173.729,3583.68 167.025,3631.25L164.942,3646.01L184.196,3666.05C214.779,3697.92 250.308,3713.63 308.238,3720.89C323.471,3722.79 340.154,3724.94 345.312,3725.65C358.904,3727.52 432.163,3724.95 438.9,3722.38ZM227.05,3572.2C221.971,3567.11 225.408,3521.14 233.204,3489.93C239.713,3463.85 241.829,3445.89 243.521,3402.35C245.654,3347.48 246.958,3339.93 254.313,3339.93C257.358,3339.93 258.087,3352.51 257.55,3395.4C256.967,3443.18 255.729,3455.6 248.6,3485.05C244.058,3503.83 239.488,3530.2 238.458,3543.64C236.733,3566.04 232.208,3577.35 227.05,3572.2ZM279.296,3502.17C268.896,3499.14 260.254,3491.15 263.688,3487.7C264.829,3486.56 272.721,3488.12 281.2,3491.18C291.033,3494.71 300.096,3495.97 306.138,3494.65C317.954,3492.05 319.092,3498.15 307.617,3502.51C298.208,3506.09 292.596,3506.01 279.296,3502.17ZM358.154,3484.25C353.417,3476.58 398.7,3424.3 410.058,3424.3C413.117,3424.3 415.625,3425.16 415.625,3426.21C415.625,3427.26 408.417,3436.01 399.608,3445.64C390.804,3455.28 380.242,3468.48 376.138,3474.99C369.075,3486.15 361.688,3489.96 358.154,3484.25ZM285.158,3480.24C273.617,3475.96 276.4,3469.11 289.062,3470.59C295.217,3471.31 300,3473.62 300,3475.88C300,3481.45 293.521,3483.35 285.158,3480.24ZM1396.37,3188.14L1407.13,3183.63L1405.03,3164.13C1403.88,3153.4 1400.15,3114.39 1396.76,3077.43C1380.4,2899.12 1350.39,2625.7 1337.24,2535.24C1324.17,2445.32 1287.37,2245.01 1283.14,2240.77C1280.34,2237.99 1246.88,2250.07 1246.88,2253.88C1246.88,2256.14 1249.58,2271.16 1252.87,2287.24C1258.94,2316.85 1282.58,2457.69 1299.75,2566.49C1318.68,2686.49 1347.28,2943.18 1360.85,3114.93C1367.45,3198.37 1367.22,3197.25 1377.36,3194.7C1381.88,3193.56 1390.45,3190.61 1396.37,3188.14ZM279.525,3179.77C280.454,3174.19 283.383,3140.79 286.021,3105.55C296.679,2963.01 310.271,2818.62 321.875,2724.3C342.513,2556.45 353.142,2480.89 372.3,2365.47C380.958,2313.33 387.321,2269.96 386.442,2269.1C385.579,2268.22 376.467,2266.75 366.213,2265.82C347.658,2264.13 347.542,2264.18 345.704,2273.12C342.204,2290.19 322.133,2416.67 312.792,2480.55C288.492,2646.63 266.925,2853.54 248.471,3097.74C241.033,3196.13 240.463,3184.93 253.125,3187.18C275.863,3191.2 277.717,3190.68 279.525,3179.77ZM147.688,2859.46C152.033,2854.62 152.1,2852.02 148.292,2836.8C133.804,2779.07 127.783,2709.25 134.017,2671.18C135.708,2660.81 136.783,2670.26 138.071,2707.12C139.813,2757.08 153.433,2843.05 159.604,2843.05C164.046,2843.05 166.454,2821.95 164.354,2801.55C159.717,2756.45 158.771,2686.32 162.388,2655.23C166.583,2619.06 169.271,2611.8 178.417,2611.8C188.625,2611.8 195.946,2633.5 198.438,2671.18C200.571,2703.37 207.208,2726.92 215.625,2732.12C223.096,2736.74 225.408,2726.11 223.096,2697.74C221.842,2682.28 220.704,2641.49 220.575,2607.12C220.329,2547.14 219.971,2543.74 211.929,2522.74C207.308,2510.71 199.071,2488.92 193.621,2474.3L183.708,2447.74L185.45,2396.18C187.125,2346.54 202.604,2216.98 214.208,2155.55C216.958,2140.95 229.525,2087.5 242.104,2036.8C254.688,1986.1 266.488,1933.37 268.313,1919.62C273.029,1884.1 278.971,1799.12 276.904,1797.04C275.946,1796.08 273.013,1797.07 270.396,1799.24C267.775,1801.42 265.625,1801.83 265.625,1800.15C265.625,1798.47 276.317,1774.05 289.404,1745.85C320.296,1679.3 326.238,1663.33 340.917,1607.54C347.625,1581.97 353.125,1560.53 353.125,1559.88C353.125,1559.22 344.988,1558.68 335.025,1558.68C301.204,1558.68 253.663,1541.91 210.842,1514.88C197.283,1506.32 185.304,1499.3 184.229,1499.3C183.137,1499.3 180.517,1509.51 178.4,1521.96C167.008,1588.95 144.092,1672.43 120.346,1733.32C88.071,1816.12 81.233,1855.66 79.037,1972.74C77.279,2065.79 82.163,2165.6 95.458,2308.14C99.675,2353.4 103.125,2400.28 103.125,2412.32C103.125,2439.73 96.092,2497.55 84.392,2566.49C75.717,2617.55 75.538,2620.59 79.833,2644.62C82.292,2658.37 85.854,2686.49 87.758,2707.12C90.267,2734.45 94.221,2753.94 102.329,2778.99C108.429,2797.9 113.996,2811.75 114.679,2809.77C115.379,2807.78 113.738,2793.72 111.033,2778.52C108.35,2763.32 104.704,2728.54 102.929,2701.24C101.171,2673.95 99.625,2650.74 99.496,2649.68C99.367,2648.62 99.575,2644.92 99.95,2641.49C101.35,2628.74 106.167,2657.93 110.775,2707.12C113.346,2734.62 119.725,2778.91 124.967,2805.55C135.646,2859.99 136.913,2864.93 140.35,2864.93C141.683,2864.93 144.988,2862.47 147.688,2859.46ZM214.992,1835.24C213.85,1831.81 211.263,1820.56 209.229,1810.24C207.179,1799.94 202.05,1781.87 197.821,1770.12C193.604,1758.37 190.933,1747.97 191.896,1746.99C195.083,1743.8 209.521,1779.64 214.338,1802.74C219.025,1825.26 219.517,1848.98 214.992,1835.24ZM1513.77,2801.39C1520.22,2768.15 1526.74,2723.51 1528.24,2702.17C1531.43,2656.92 1534.02,2640.53 1538.35,2637.85C1540.37,2636.61 1540.74,2640.79 1539.42,2649.64C1538.28,2657.2 1536,2684.46 1534.33,2710.24C1532.67,2736.02 1529.18,2767.66 1526.6,2780.55C1521.05,2808.16 1521.09,2807.64 1524.69,2803.85C1532.76,2795.33 1547.23,2737.36 1549.9,2702.85C1551.45,2682.85 1555.1,2655.75 1558.01,2642.63C1563.31,2618.75 1563.31,2618.75 1553.56,2559.82C1533.94,2441.24 1532.42,2400.64 1543.75,2296.18C1551.08,2228.63 1556.51,2132.47 1558.35,2038.37C1561.38,1882.49 1553.84,1825.74 1517.73,1731.99C1506.45,1702.69 1492.25,1659.79 1486.2,1636.67C1473.17,1586.93 1456.25,1508.46 1456.25,1497.82C1456.25,1493.69 1455.19,1489.65 1453.89,1488.84C1452.59,1488.04 1442.4,1492.81 1431.23,1499.43C1388.4,1524.87 1324.9,1546.18 1291.99,1546.18C1283.69,1546.18 1281.02,1547.33 1282.21,1550.41C1283.09,1552.74 1289.58,1576.73 1296.62,1603.73C1309.98,1655.08 1317.33,1674.55 1351.6,1749.3C1363.02,1774.22 1373.11,1796.37 1374.01,1798.52C1376.12,1803.5 1371.16,1803.6 1366.24,1798.69C1361.44,1793.88 1361.35,1808.19 1365.77,1865.09C1370.23,1922.51 1375.34,1950.33 1398.57,2043.77C1433.01,2182.42 1449.48,2289.13 1451.97,2389.93C1453.56,2454.09 1455.26,2445.46 1426.19,2521.18C1417.32,2544.29 1417.19,2545.55 1417.1,2610.24C1417.06,2646.34 1415.8,2686.74 1414.31,2700C1412.25,2718.3 1412.57,2725.31 1415.59,2728.96C1418.85,2732.87 1420.46,2733.03 1424.33,2729.82C1433.48,2722.24 1438.38,2703.72 1440.72,2667.78C1443.1,2631.19 1448.4,2613.43 1458.01,2609.74C1466.47,2606.5 1471.16,2614.99 1474.85,2640.27C1479.36,2671.03 1479.54,2749.24 1475.2,2778.99C1470.8,2809.1 1471.09,2831.41 1475.99,2838.11C1479.58,2843.02 1480.98,2839.47 1487.09,2809.8C1497.59,2758.82 1499.84,2739.16 1500.25,2694.62C1500.72,2643.64 1505.5,2654.22 1505.94,2707.2C1506.18,2736.19 1504.07,2757.21 1496.73,2799.11C1491.5,2828.97 1487.94,2855.31 1488.82,2857.62C1489.7,2859.91 1493.03,2861.8 1496.23,2861.8C1501.27,2861.8 1503.55,2853.94 1513.77,2801.39ZM1420.28,1824.25C1421.34,1814.83 1423.76,1800.79 1425.67,1793.05C1429.38,1777.93 1443.3,1747.81 1445.53,1750.05C1446.27,1750.8 1444,1759.72 1440.46,1769.89C1436.93,1780.05 1431.36,1799.43 1428.09,1812.97C1420.9,1842.76 1417.66,1847.43 1420.28,1824.25ZM943.75,2266.49C1119.08,2257.33 1222.05,2244.97 1274.14,2226.86C1296.66,2219.01 1296.23,2226.62 1277.83,2162.31C1264.35,2115.22 1257.1,2079.98 1245.56,2005.55C1234.36,1933.48 1231.93,1908.11 1228.19,1824.3C1226.38,1783.92 1222.56,1707.98 1219.68,1655.55C1216.81,1603.13 1214.37,1534.93 1214.26,1503.99C1214.08,1451.4 1214.63,1445.74 1222.85,1416.93C1228.29,1397.87 1232.75,1372.25 1234.54,1349.75C1245.41,1213.8 1259.78,1137.85 1290.75,1052.69C1306.58,1009.18 1306.77,1008.19 1301.11,1001.83C1292.38,992.061 1257.7,964.961 1230.6,946.749C1208.19,931.678 1135.24,886.803 1133.15,886.803C1132.65,886.803 1114.78,877.003 1093.46,865.024L1054.69,843.232L1037.5,859.803C996.858,898.995 954.363,921.195 892.188,935.665C854.133,944.536 777.392,943.64 737.5,933.874C679.15,919.582 634.717,898.328 603.938,869.94L585.938,853.34L531.25,885.761C413.267,955.715 383.088,975.67 342.463,1010.55L327.538,1023.36L346.271,1080.86C377.1,1175.44 391.05,1250.93 397.038,1355.55C398.863,1387.36 403.142,1431.32 406.542,1453.24C411.15,1482.78 412.758,1508.71 412.746,1553.24C412.746,1622.6 410.563,1650.72 393.492,1802.43C386.621,1863.45 375.571,1966.8 368.946,2032.12C359.129,2128.83 354.771,2160.06 345.396,2200.36C339.062,2227.59 334.342,2250.31 334.912,2250.87C337.321,2253.2 485.304,2262.66 620.313,2269.11C681.233,2272.01 866.633,2270.51 943.75,2266.49ZM417.417,2059.13C418.504,2053.37 431.233,2014.7 445.738,1973.19C486.183,1857.3 518.963,1743.79 542.4,1638.45C548.504,1610.99 554.117,1587.89 554.867,1587.14C558.283,1583.73 555.617,1606.4 548.325,1642.66C537.875,1694.71 516.342,1777.82 494.792,1849.3C470.425,1930.19 411.767,2089.23 417.417,2059.13ZM1180.23,1939.15C1141.65,1826.84 1113.45,1719.86 1099.87,1634.46C1090.17,1573.42 1094.04,1573.93 1105.84,1635.24C1118.42,1700.64 1135.9,1769.05 1168.13,1878.99C1194.79,1969.96 1197.67,1980.55 1195.72,1980.55C1195.02,1980.55 1188.05,1961.91 1180.23,1939.15ZM363.8,1542.62C368.067,1540.66 373.046,1534.83 374.838,1529.66C379.917,1515.12 379.083,1510.83 371.6,1512.78C354.525,1517.26 293.833,1500.93 254.688,1481.35C229.867,1468.95 193.863,1445.56 185.725,1436.57C178.108,1428.16 176.479,1428.89 172.363,1442.64C165.692,1464.93 167.254,1469.86 185.158,1483.16C222.608,1510.97 275.033,1536.1 313.754,1544.8C333.742,1549.29 350.783,1548.54 363.8,1542.62ZM1355.68,1519.5C1395.48,1506.19 1441.28,1481.53 1462.45,1462.02L1477.95,1447.74L1474.5,1431.34C1472.59,1422.32 1469.9,1414.93 1468.5,1414.93C1467.1,1414.93 1457.1,1421.62 1446.26,1429.8C1399.23,1465.29 1335.51,1490.3 1280.14,1495.04L1255.58,1497.14L1257.38,1508.39C1258.46,1515.17 1262.55,1522.56 1267.73,1527.05C1275.63,1533.92 1278.06,1534.35 1299.43,1532.54C1312.88,1531.4 1336.49,1525.93 1355.68,1519.5ZM385.238,1461.8C396.175,1381.46 384.033,1249.16 356.038,1143.56C346.55,1107.75 307.975,996.699 303.467,992.157C300.454,989.149 279.083,1034.75 265.95,1072.19C241.7,1141.25 234.488,1184.49 234.017,1263.37C233.788,1299.03 232.617,1321.85 231.25,1316.49C229.933,1311.33 228.696,1296.31 228.5,1283.09C228.288,1269.86 226.954,1258.32 225.521,1257.44C224.071,1256.55 221.242,1264.89 219.188,1276C217.138,1287.08 207.6,1323.65 197.967,1357.26L180.454,1418.36L187.875,1426.32C198.763,1437.96 242.921,1466.65 266.196,1477.21C304.575,1494.62 345.525,1505.52 368.654,1504.48L379.492,1503.99L385.238,1461.8ZM1326.56,1477.43C1367.4,1466.54 1427.78,1435.22 1458.64,1408.94L1465.72,1402.91L1456.46,1370.64C1451.37,1352.9 1443.44,1323.25 1438.83,1304.77C1434.25,1286.3 1429.25,1271.18 1427.73,1271.18C1426.24,1271.18 1424.85,1277.87 1424.69,1286.02C1424.51,1294.19 1423.35,1304.38 1422.09,1308.68C1420.83,1312.97 1418.98,1285.55 1417.98,1247.74C1415.97,1171.99 1409.52,1131.45 1390.37,1073.8C1379.75,1041.87 1356.77,995.624 1343.75,980.032L1335.5,970.153L1320.7,1003.92C1301.29,1048.28 1280.96,1108.16 1270.83,1150.87C1255.42,1215.94 1238.07,1373.7 1242.19,1411.39C1245.42,1441.07 1250.29,1475.56 1252.1,1481.76C1253.65,1487.08 1256.14,1487.49 1277.69,1485.87C1290.82,1484.9 1312.81,1481.09 1326.56,1477.43ZM410.288,948.39C429.558,935.632 458.675,917.482 475,908.045C491.325,898.62 514.046,885.145 525.488,878.128C536.929,871.095 551.692,862.503 558.3,859.02C580.125,847.495 579.704,848.424 570.346,832.457L561.85,817.97L544.204,827.882C388.458,915.432 312.371,966.295 312.567,982.749C312.613,985.845 315.379,994.403 318.717,1001.78L324.821,1015.2L350.033,993.395C363.917,981.415 391.033,961.153 410.288,948.39ZM1322.82,979.757L1331.59,963.365L1316.67,950.099C1296.08,931.774 1259.13,905.486 1224.45,884.507C1199.73,869.549 1081.58,808.678 1077.26,808.678C1074.66,808.678 1058.87,834.232 1060.48,835.845C1061.36,836.707 1089.94,852.853 1123.99,871.732C1190.58,908.611 1262.01,954.786 1292.06,980.34C1302.3,989.049 1311.42,996.178 1312.37,996.161C1313.3,996.145 1318,988.757 1322.82,979.757ZM900.163,923.39C971.242,904.853 1021.99,871.649 1056.18,821.274L1068.86,802.59L1053.55,794.828L1038.22,787.065L1024.03,805.128C957.779,889.457 810.708,917.207 691.958,867.761C658.088,853.665 629.458,832.378 609.179,806.22L601.221,795.949L586.542,804.136C578.483,808.645 571.908,813.982 571.958,815.986C572.104,823.39 594.288,849.611 614.517,866.295C649.933,895.511 693.179,914.765 752.425,927.703C791.504,936.232 858.4,934.282 900.163,923.39ZM870.313,874.011C929.167,864.132 988.654,830.928 1015.79,792.824L1022.36,783.595L1008.77,770.365C984.392,746.62 982.813,740.661 982.813,671.974C982.813,638.886 981.917,611.82 980.813,611.82C979.704,611.803 968.946,623.407 956.883,637.586C929.442,669.878 895.183,703.061 882.538,709.59C855.858,723.357 780.275,724.824 751.579,712.128C734.425,704.545 706.363,681.186 670.654,644.778C646.258,619.89 645.996,619.745 647.788,630.553C648.779,636.574 651.35,663.449 653.517,690.27C658.221,748.865 655.483,760.549 632.521,779.74C624.95,786.07 618.75,792.465 618.75,793.949C618.75,795.428 626.433,804.707 635.842,814.553C683.771,864.815 779.867,889.178 870.313,874.011ZM796.092,783.465C789.65,780.065 784.375,775.961 784.375,774.336C784.375,772.724 789.308,774.303 795.313,777.853C809.342,786.12 825.146,786.053 839.338,777.69C846.158,773.67 850.067,772.628 849.317,775.036C847.446,780.945 827.879,789.945 817.188,789.799C812.029,789.715 802.538,786.87 796.092,783.465ZM867.188,705.324C891.488,698.328 971.713,611.657 988.933,573.799C994.596,561.332 999.088,538.774 1006.72,484.507C1016.21,416.849 1016.65,410.145 1013.05,386.07C1010.92,371.861 1007.75,349.045 1005.98,335.353C1003.6,316.915 999.771,304.774 991.229,288.511C980.292,267.695 979.688,265.024 979.654,236.836C979.621,201.745 974.217,187.599 956.704,176.695C939.713,166.132 890.25,167.011 838.329,178.778C796.304,188.315 799.904,188.461 733.675,174.22C704.279,167.907 698.129,167.482 683.512,170.753C663.558,175.215 646.158,188.595 637.046,206.449C631.508,217.303 630.746,223.245 631.933,245.982C633.283,271.828 632.925,273.603 621.467,297.74C610.271,321.34 609.392,325.378 606.071,369.357C602.313,418.865 602.963,430.065 612.825,486.803C628.338,576.028 631.737,585.19 662.892,621.374C680.258,641.557 736.883,693.461 749.479,700.753C767.921,711.411 836.704,714.082 867.188,705.324ZM784.375,634.345C784.375,632.636 786.604,630.374 789.325,629.332C797.071,626.353 838.542,627.199 843.654,630.44C851.4,635.324 845.638,636.82 832.746,633.27C820.704,629.936 800.504,630.861 789.842,635.24C786.783,636.495 784.375,636.103 784.375,634.345ZM782.179,608.499C769.058,604.511 764.146,597.415 776.871,600.832C808.008,609.165 830.533,608.97 847.95,600.199C859.829,594.207 862.158,597.332 851.188,604.528C841.129,611.136 798.846,613.561 782.179,608.499ZM734.375,574.824C734.375,572.528 736.133,571.274 738.283,572.04C740.429,572.807 751.367,568.836 762.583,563.253C785.775,551.661 791.779,550.249 804.021,553.453C808.821,554.707 817.967,554.17 824.367,552.249C834.929,549.09 838.217,549.79 860.563,559.982C874.088,566.132 887.092,571.178 889.454,571.178C891.813,571.178 893.75,572.936 893.75,575.086C893.75,578.111 875.733,578.99 814.063,578.99C749.742,578.99 734.375,578.195 734.375,574.824ZM850.783,573.345C860.663,573.603 868.75,572.661 868.75,571.228C868.75,569.795 862.775,565.79 855.467,562.324C837.142,553.665 787.875,554.265 772.658,563.349C758.742,571.649 759.929,575.378 775.783,573.178C783.088,572.17 793.979,572.561 800,574.057C806.021,575.557 815.854,575.899 821.875,574.807C827.896,573.732 840.9,573.065 850.783,573.345ZM656.038,521.845C651.629,515.465 642.562,502.657 635.871,493.361C629.2,484.086 625.358,477.053 627.342,477.736C632.375,479.495 665.625,524.482 665.625,529.545C665.625,535.336 665.054,534.899 656.038,521.845ZM956.608,518.053C961.733,507.49 990.625,469.47 990.625,473.311C990.625,477.478 974.35,501.582 962.517,514.928C954.9,523.524 953.629,524.19 956.608,518.053ZM793.75,502.69C789.454,499.499 783.121,496.195 779.688,495.332C774.692,494.095 775.083,493.703 781.608,493.428C786.1,493.215 793.358,495.87 797.721,499.303C807.717,507.165 814.696,507.165 826.563,499.303C831.721,495.886 839.454,493.249 843.75,493.445C849.754,493.703 850.196,494.128 845.654,495.299C842.4,496.128 835.367,499.482 830.029,502.736C817.792,510.19 803.842,510.174 793.75,502.69ZM853.125,502.428C853.125,500.72 854.475,499.303 856.138,499.303C863.296,499.303 865.804,487.049 861.004,475.557C854.754,460.582 855.142,458.661 862.596,467.628C869.988,476.499 870.525,489.149 863.883,498.62C858.838,505.828 853.125,507.849 853.125,502.428ZM759.992,498.686C754.671,493.361 755.354,476.599 761.2,469.436C765.754,463.836 766,463.82 764.308,469.128C758.854,486.249 758.838,490.415 764.175,496.307C770.083,502.853 766.308,504.999 759.992,498.686ZM784.621,469.357C784.767,465.724 785.513,464.978 786.508,467.465C787.417,469.728 787.304,472.415 786.262,473.457C785.221,474.499 784.487,472.661 784.621,469.357ZM786.475,414.553C787.371,398.424 786.717,379.265 785.008,371.961C783.3,364.653 783.058,358.678 784.458,358.678C785.854,358.678 788.021,363.253 789.258,368.836C792.417,383.124 791.275,437.407 787.758,440.92C785.938,442.745 785.45,432.749 786.475,414.553ZM832.617,388.707C831.592,384.607 832.113,375.115 833.788,367.615L836.833,353.99L837.158,375.086C837.517,396.861 835.887,401.728 832.617,388.707ZM687.5,390.986C673.55,388.153 673.846,384.12 687.858,386.007C700.767,387.732 701.188,387.553 696.046,382.407C693.067,379.428 690.625,374.27 690.625,370.965C690.625,362.795 684.408,363.382 670.379,372.903C655.763,382.832 652.671,380.995 665.642,370.086C682.896,355.57 721.421,348.407 743.75,355.553L751.563,358.061L743.913,358.37C736.329,358.678 736.346,358.761 746.875,369.615C752.7,375.636 756.054,380.553 754.329,380.553C752.588,380.553 747.133,376.353 742.221,371.211C733.25,361.853 730.567,361.461 729.413,369.324C729.071,371.632 727.8,376.661 726.596,380.47C724.625,386.64 725.213,387.178 731.721,385.207C737.354,383.499 738.233,383.84 735.513,386.72C731.688,390.757 700.213,393.557 687.5,390.986ZM885.938,386.803C879.754,384.149 879.754,384.12 886.083,383.907C891.538,383.711 892.3,382.049 891.213,372.74C890.513,366.736 889.013,361.803 887.875,361.803C886.733,361.803 880.55,366.132 874.154,371.407C867.742,376.695 862.5,379.757 862.5,378.211C862.5,374.92 873.813,364.245 882.813,359.053C888.054,356.007 887.046,355.715 876.563,357.228C866.196,358.728 865.054,358.42 869.887,355.374C873.113,353.357 885.758,351.661 898.013,351.599C922.004,351.482 947.671,359.982 958.075,371.47C965.446,379.607 961.883,378.957 948.146,369.615C933.804,359.899 928.125,359.72 928.125,368.999C928.125,372.953 926.467,377.853 924.429,379.886C918.929,385.37 923,387.407 932.375,383.84C936.913,382.115 940.625,381.936 940.625,383.42C940.625,384.915 938.396,386.999 935.675,388.04C928.45,390.807 893.229,389.945 885.938,386.803ZM726.563,339.682C691.733,332.54 670.117,332.228 651.383,338.595C627.425,346.732 629.379,338.595 655.533,321.274C672.313,310.161 680.096,309.67 727.717,316.736C761.375,321.715 771.875,326.532 771.875,336.949C771.875,342.32 765.446,346.536 758.333,345.82C756.333,345.607 742.025,342.857 726.563,339.682ZM848,338.365C842.804,324.824 850.75,320.949 902.817,311.607L940.367,304.87L953.775,311.378C967.383,317.97 989.371,335.99 986.867,338.478C986.117,339.245 977.538,337.065 967.821,333.645C945.15,325.67 936.15,325.882 900,335.24C865.479,344.19 850.588,345.086 848,338.365ZM604.396,500.865C604.25,495.707 601.825,475.328 599.008,455.553C596.208,435.795 593.017,409.815 591.942,397.836C590.154,377.982 588.933,375.003 578.175,364.245C564.696,350.77 554.004,349.074 545.021,359.02C537.371,367.465 538.004,387.761 546.958,420.578C566.796,493.282 577.196,512.928 594.954,511.203C603.55,510.353 604.654,509.149 604.396,500.865ZM579.542,457.261C570.996,448.715 569.613,435.695 575.504,419.386C578.371,411.478 578.254,407.165 574.967,399.207C569.563,386.186 556.496,370.657 552.833,372.92C551.288,373.878 550,373.178 550,371.374C550,364.682 558.967,368.345 568.1,378.732C581.479,393.965 586.083,409.507 580.925,421.974C575.179,435.845 576.854,446.082 586.542,456.186C596.842,466.928 590.233,467.957 579.542,457.261ZM1043.57,500.378C1047.17,495.803 1052.33,484.215 1055.03,474.595C1057.73,464.978 1063.27,446.357 1067.32,433.207C1081.56,387.078 1081.35,357.815 1066.73,352.265C1061.18,350.149 1056.38,350.428 1050.78,353.178C1035.32,360.778 1030.73,371.324 1026.5,409.165C1024.32,428.665 1020.72,456.678 1018.52,471.407C1016.33,486.153 1015.43,500.557 1016.54,503.436C1019.81,511.949 1035.92,510.128 1043.57,500.378ZM1025,462.94C1025,461.853 1028.66,457.57 1033.12,453.436C1041.57,445.607 1041.81,441.753 1035.83,413.007C1032.81,398.57 1050.23,368.053 1061.47,368.053C1067.82,368.053 1066.41,373.374 1059.6,375.149C1056.3,376.011 1050,383.807 1045.6,392.465C1037.99,407.507 1037.84,408.745 1042.43,419.711C1047.98,432.995 1046.19,445.365 1037.06,456.97C1031.22,464.407 1025,467.482 1025,462.94ZM1029.78,348.686C1032.21,342.32 1035.9,321.795 1037.99,303.061C1041.15,274.578 1041.05,267.257 1037.39,258.403C1033.22,248.357 996.567,208.678 991.471,208.695C990.138,208.695 989.192,220.999 989.338,236.036C989.583,261.086 990.575,265.27 1001.19,286.215C1010.19,303.974 1013.48,315.124 1015.92,336.215C1019.47,366.782 1022.09,376.47 1024.1,366.49C1024.8,363.057 1027.36,355.049 1029.78,348.686ZM599.692,335.582C601.854,317.386 605.467,305.503 613.508,290.157C623.617,270.853 624.188,268.299 621.55,253.745C619.875,244.582 619.842,231.986 621.45,223.39C622.95,215.303 623.242,208.678 622.088,208.678C620.929,208.678 613.637,212.699 605.892,217.615C587.938,228.99 571.875,252.703 571.875,267.807C571.875,290.449 584.488,356.757 589.942,362.795C596.063,369.582 595.458,371.29 599.692,335.582ZM1042.24,231.336C1041,221.453 1038.54,210.549 1036.75,207.115C1029.75,193.59 1005.01,167.599 991.733,159.803C979.604,152.703 975.358,151.84 960.288,153.403C938.85,155.62 932.896,160.257 947.883,163.057C961.475,165.611 973.55,174.936 980.533,188.315C983.512,193.999 993.163,204.332 1002,211.282C1010.84,218.232 1022.79,229.595 1028.56,236.557C1034.34,243.507 1040.28,249.22 1041.76,249.253C1043.25,249.286 1043.46,241.215 1042.24,231.336ZM575,243.165C575,237.274 594.825,217.695 609.017,209.574C616.942,205.032 630.583,194.145 639.325,185.353L655.208,169.386L647.933,163.903C631.917,151.811 623.846,124.028 628.338,96.424C629.867,87.049 630.55,78.811 629.85,78.111C627.554,75.815 618.979,95.282 615.558,110.549C613.15,121.324 608.221,129.803 598.063,140.661C577.521,162.599 571.158,179.282 569.383,215.711C568.342,237.211 568.963,246.178 571.45,246.178C573.404,246.178 575,244.828 575,243.165ZM1044.92,197.465C1050.38,195.382 1049.38,184.149 1041.94,163.365C1038.28,153.161 1033.33,148.228 1014.83,136.411C1002.38,128.453 987.404,120.365 981.558,118.445C963.883,112.599 940.708,114.228 922.833,122.545C907.683,129.607 878.125,153.486 878.125,158.661C878.125,162.778 922.867,158.24 943.638,152.02C975.083,142.615 994.579,149.595 1022.15,180.161C1041.8,201.94 1038.93,199.757 1044.92,197.465ZM804.738,159.461C816.079,120.17 841.358,89.799 877.342,72.236C893.521,64.357 898.6,63.478 928.125,63.432C946.175,63.399 964.942,64.49 969.842,65.857C984.05,69.811 978.613,61.736 959.163,49.986C942.821,40.124 899.771,24.661 870.217,18.036C857.617,15.22 854.1,15.757 838.9,22.953C816.163,33.711 793.879,55.961 782.763,78.99C770.929,103.553 769.921,139.39 780.421,162.586C790.137,184.036 797.933,183.045 804.738,159.461ZM842.383,167.824C864.813,161.965 868.717,159.753 883.104,144.699C921.467,104.545 966.05,98.799 1013.62,127.882C1021.97,132.995 1029.41,136.574 1030.12,135.845C1032.13,133.84 1009.15,106.14 990.121,87.615C975.521,73.407 970.817,70.77 954.621,67.761C921.583,61.624 892.121,68.299 860.238,89.132C836.067,104.936 819.533,129.657 807.992,167.274C805.208,176.303 809.65,176.37 842.383,167.824ZM775,169.811C775,169.061 772.788,158.874 770.067,147.186C764.533,123.328 765.871,107.228 775.554,81.349C783.35,60.503 809.65,31.545 830.142,21.245L845.313,13.611L829.721,10.94C791.358,4.399 740.933,20.428 717.35,46.665C693.05,73.703 691.683,107.049 713.412,143.328C722.363,158.27 725.258,160.615 740.625,165.432C756.867,170.511 775,172.824 775,169.811ZM694.338,159.636L715.217,157.865L705.679,140.97C698.813,128.795 695.688,118.478 694.533,104.17C692.367,77.07 695.2,64.895 707.438,48.878C713.15,41.378 718.879,31.936 720.167,27.899C722.25,21.324 721.729,20.77 715.154,22.595C698.504,27.215 655.533,50.815 648.421,59.265C639.292,70.12 631.217,95.545 631.317,113.153C631.463,138.461 652.392,167.874 667.075,163.365C670.575,162.29 682.846,160.615 694.338,159.636Z" style="fill-rule:nonzero;"/>
</svg>
